<?xml version="1.0" encoding="UTF-8" standalone="no"?>
<!-- Created with Inkscape (http://www.inkscape.org/) -->

<svg
   width="100"
   height="100"
   viewBox="0 0 100 100"
   version="1.1"
   id="svg1"
   inkscape:version="1.3.1 (9b9bdc1480, 2023-11-25, custom)"
   sodipodi:docname="qr_stesiam_cv.svg"
   xmlns:inkscape="http://www.inkscape.org/namespaces/inkscape"
   xmlns:sodipodi="http://sodipodi.sourceforge.net/DTD/sodipodi-0.dtd"
   xmlns="http://www.w3.org/2000/svg"
   xmlns:svg="http://www.w3.org/2000/svg">
  <sodipodi:namedview
     id="namedview1"
     pagecolor="#ffffff"
     bordercolor="#cccccc"
     borderopacity="1"
     inkscape:showpageshadow="0"
     inkscape:pageopacity="1"
     inkscape:pagecheckerboard="0"
     inkscape:deskcolor="#d1d1d1"
     inkscape:document-units="px"
     inkscape:zoom="3.4708827"
     inkscape:cx="49.987284"
     inkscape:cy="50.131339"
     inkscape:window-width="1304"
     inkscape:window-height="704"
     inkscape:window-x="0"
     inkscape:window-y="0"
     inkscape:window-maximized="1"
     inkscape:current-layer="g1" />
  <defs
     id="defs1" />
  <g
     inkscape:label="Layer 1"
     inkscape:groupmode="layer"
     id="layer1">
    <g
       style="fill:#000000;stroke:none"
       id="g1"
       transform="matrix(0.53461535,0,0,0.53461535,1.0826955,1.0826955)">
      <g
         style="fill:#000000;stroke:none"
         id="g2"
         transform="matrix(1.1015159,0,0,1.1015159,-9.2887049,-9.2887049)">
        <path
           d="m 167.4,171 h -1.8 c -0.331,0 -0.6,-0.269 -0.6,-0.6 v -4.8 c 0,-0.331 0.269,-0.6 0.6,-0.6 h 1.8 c 0.331,0 0.6,0.269 0.6,0.6 v 4.8 c 0,0.331 -0.269,0.6 -0.6,0.6 z m -12,0 h -1.8 c -0.331,0 -0.6,-0.269 -0.6,-0.6 v -1.8 c 0,-0.331 -0.269,-0.6 -0.6,-0.6 h -1.8 c -0.331,0 -0.6,-0.269 -0.6,-0.6 v -1.8 c 0,-0.331 0.269,-0.6 0.6,-0.6 h 10.8 c 0.331,0 0.6,0.269 0.6,0.6 v 1.8 c 0,0.331 -0.269,0.6 -0.6,0.6 h -4.8 c -0.331,0 -0.6,0.269 -0.6,0.6 v 1.8 c 0,0.331 -0.269,0.6 -0.6,0.6 z m -9,0 h -1.8 c -0.331,0 -0.6,-0.269 -0.6,-0.6 v -1.8 c 0,-0.331 0.269,-0.6 0.6,-0.6 h 1.8 c 0.331,0 0.6,0.269 0.6,0.6 v 1.8 c 0,0.331 -0.269,0.6 -0.6,0.6 z m -9,0 h -1.8 c -0.331,0 -0.6,-0.269 -0.6,-0.6 v -1.8 c 0,-0.331 -0.269,-0.6 -0.6,-0.6 h -1.8 c -0.331,0 -0.6,0.269 -0.6,0.6 v 1.8 c 0,0.331 -0.269,0.6 -0.6,0.6 h -1.8 c -0.331,0 -0.6,-0.269 -0.6,-0.6 v -1.8 c 0,-0.331 -0.269,-0.6 -0.6,-0.6 h -4.8 c -0.331,0 -0.6,0.269 -0.6,0.6 v 1.8 c 0,0.331 -0.269,0.6 -0.6,0.6 h -1.8 c -0.331,0 -0.6,-0.269 -0.6,-0.6 v -4.8 c 0,-0.331 -0.269,-0.6 -0.6,-0.6 h -4.8 c -0.331,0 -0.6,0.269 -0.6,0.6 v 4.8 c 0,0.331 -0.269,0.6 -0.6,0.6 h -4.8 c -0.331,0 -0.6,-0.269 -0.6,-0.6 v -1.8 c 0,-0.331 0.269,-0.6 0.6,-0.6 h 1.8 c 0.331,0 0.6,-0.269 0.6,-0.6 v -1.8 c 0,-0.331 -0.269,-0.6 -0.6,-0.6 h -1.8 c -0.331,0 -0.6,-0.269 -0.6,-0.6 v -1.8 c 0,-0.331 0.269,-0.6 0.6,-0.6 h 7.8 c 0.331,0 0.6,-0.269 0.6,-0.6 v -4.8 c 0,-0.331 0.269,-0.6 0.6,-0.6 h 1.8 c 0.331,0 0.6,0.269 0.6,0.6 v 1.8 c 0,0.331 0.269,0.6 0.6,0.6 h 7.8 c 0.331,0 0.6,-0.269 0.6,-0.6 v -4.8 c 0,-0.331 0.269,-0.6 0.6,-0.6 h 7.8 c 0.331,0 0.6,0.269 0.6,0.6 v 1.8 c 0,0.331 -0.269,0.6 -0.6,0.6 h -4.8 c -0.331,0 -0.6,0.269 -0.6,0.6 v 4.8 c 0,0.331 -0.269,0.6 -0.6,0.6 h -1.8 c -0.331,0 -0.6,0.269 -0.6,0.6 v 1.8 c 0,0.331 0.269,0.6 0.6,0.6 h 1.8 c 0.331,0 0.6,-0.269 0.6,-0.6 v -1.8 c 0,-0.331 0.269,-0.6 0.6,-0.6 h 1.8 c 0.331,0 0.6,0.269 0.6,0.6 v 1.8 c 0,0.331 0.269,0.6 0.6,0.6 h 1.8 c 0.331,0 0.6,-0.269 0.6,-0.6 v -1.8 c 0,-0.331 0.269,-0.6 0.6,-0.6 h 1.8 c 0.331,0 0.6,-0.269 0.6,-0.6 v -1.8 c 0,-0.331 -0.269,-0.6 -0.6,-0.6 h -1.8 c -0.331,0 -0.6,-0.269 -0.6,-0.6 v -1.8 c 0,-0.331 0.269,-0.6 0.6,-0.6 h 4.8 c 0.331,0 0.6,-0.269 0.6,-0.6 v -1.8 c 0,-0.331 -0.269,-0.6 -0.6,-0.6 h -1.8 c -0.331,0 -0.6,-0.269 -0.6,-0.6 v -1.8 c 0,-0.331 -0.269,-0.6 -0.6,-0.6 h -1.8 c -0.331,0 -0.6,-0.269 -0.6,-0.6 v -1.8 c 0,-0.331 0.269,-0.6 0.6,-0.6 h 1.8 c 0.331,0 0.6,-0.269 0.6,-0.6 v -4.8 c 0,-0.331 -0.269,-0.6 -0.6,-0.6 h -1.8 c -0.331,0 -0.6,-0.269 -0.6,-0.6 v -1.8 c 0,-0.331 -0.269,-0.6 -0.6,-0.6 h -1.8 c -0.331,0 -0.6,-0.269 -0.6,-0.6 v -1.8 c 0,-0.331 -0.269,-0.6 -0.6,-0.6 h -4.8 c -0.331,0 -0.6,-0.269 -0.6,-0.6 v -1.8 c 0,-0.331 -0.269,-0.6 -0.6,-0.6 h -4.8 c -0.331,0 -0.6,-0.269 -0.6,-0.6 v -1.8 c 0,-0.331 0.269,-0.6 0.6,-0.6 h 7.8 c 0.331,0 0.6,0.269 0.6,0.6 v 1.8 c 0,0.331 0.269,0.6 0.6,0.6 h 1.8 c 0.331,0 0.6,-0.269 0.6,-0.6 v -1.8 c 0,-0.331 0.269,-0.6 0.6,-0.6 h 1.8 c 0.331,0 0.6,0.269 0.6,0.6 v 1.8 c 0,0.331 0.269,0.6 0.6,0.6 h 1.8 c 0.331,0 0.6,0.269 0.6,0.6 v 4.8 c 0,0.331 0.269,0.6 0.6,0.6 h 1.8 c 0.331,0 0.6,0.269 0.6,0.6 v 1.8 c 0,0.331 0.269,0.6 0.6,0.6 h 1.8 c 0.331,0 0.6,0.269 0.6,0.6 v 1.8 c 0,0.331 0.269,0.6 0.6,0.6 h 4.8 c 0.331,0 0.6,-0.269 0.6,-0.6 v -1.8 c 0,-0.331 -0.269,-0.6 -0.6,-0.6 h -1.8 c -0.331,0 -0.6,-0.269 -0.6,-0.6 v -1.8 c 0,-0.331 0.269,-0.6 0.6,-0.6 h 7.8 c 0.331,0 0.6,-0.269 0.6,-0.6 v -1.8 c 0,-0.331 0.269,-0.6 0.6,-0.6 h 1.8 c 0.331,0 0.6,0.269 0.6,0.6 v 4.8 c 0,0.331 -0.269,0.6 -0.6,0.6 h -4.8 c -0.331,0 -0.6,0.269 -0.6,0.6 v 1.8 c 0,0.331 0.269,0.6 0.6,0.6 h 1.8 c 0.331,0 0.6,0.269 0.6,0.6 v 1.8 c 0,0.331 0.269,0.6 0.6,0.6 h 1.8 c 0.331,0 0.6,0.269 0.6,0.6 v 1.8 c 0,0.331 -0.269,0.6 -0.6,0.6 h -1.8 c -0.331,0 -0.6,0.269 -0.6,0.6 v 4.8 c 0,0.331 0.269,0.6 0.6,0.6 h 7.8 c 0.331,0 0.6,0.269 0.6,0.6 v 1.8 c 0,0.331 0.269,0.6 0.6,0.6 h 1.8 c 0.331,0 0.6,0.269 0.6,0.6 v 4.8 c 0,0.331 -0.269,0.6 -0.6,0.6 h -1.8 c -0.331,0 -0.6,-0.269 -0.6,-0.6 v -1.8 c 0,-0.331 -0.269,-0.6 -0.6,-0.6 h -1.8 c -0.331,0 -0.6,-0.269 -0.6,-0.6 v -1.8 c 0,-0.331 -0.269,-0.6 -0.6,-0.6 h -1.8 c -0.331,0 -0.6,0.269 -0.6,0.6 v 1.8 c 0,0.331 -0.269,0.6 -0.6,0.6 h -1.8 c -0.331,0 -0.6,-0.269 -0.6,-0.6 v -1.8 c 0,-0.331 -0.269,-0.6 -0.6,-0.6 h -4.8 c -0.331,0 -0.6,0.269 -0.6,0.6 v 1.8 c 0,0.331 -0.269,0.6 -0.6,0.6 h -7.8 c -0.331,0 -0.6,0.269 -0.6,0.6 v 4.8 c 0,0.331 -0.269,0.6 -0.6,0.6 h -4.8 c -0.331,0 -0.6,0.269 -0.6,0.6 v 1.8 c 0,0.331 -0.269,0.6 -0.6,0.6 z m -51,0 h -1.8 c -0.3314,0 -0.6,-0.269 -0.6,-0.6 v -4.8 c 0,-0.331 0.2686,-0.6 0.6,-0.6 h 1.8 c 0.3314,0 0.6,-0.269 0.6,-0.6 v -4.8 c 0,-0.331 -0.2686,-0.6 -0.6,-0.6 h -1.8 c -0.3314,0 -0.6,-0.269 -0.6,-0.6 v -4.8 c 0,-0.331 -0.2686,-0.6 -0.6,-0.6 h -7.8 c -0.3314,0 -0.6,-0.269 -0.6,-0.6 v -1.8 c 0,-0.331 0.2686,-0.6 0.6,-0.6 h 4.8 c 0.3314,0 0.6,-0.269 0.6,-0.6 v -1.8 c 0,-0.331 0.2686,-0.6 0.6,-0.6 h 1.8 c 0.3314,0 0.6,-0.269 0.6,-0.6 v -1.8 c 0,-0.331 0.2686,-0.6 0.6,-0.6 h 7.8 c 0.3314,0 0.6,-0.269 0.6,-0.6 v -1.8 c 0,-0.331 -0.2686,-0.6 -0.6,-0.6 h -4.8 c -0.3314,0 -0.6,-0.269 -0.6,-0.6 v -1.8 c 0,-0.331 -0.2686,-0.6 -0.6,-0.6 h -7.8 c -0.3314,0 -0.6,0.269 -0.6,0.6 v 4.8 c 0,0.331 -0.2686,0.6 -0.6,0.6 h -1.8 c -0.3314,0 -0.6,-0.269 -0.6,-0.6 v -7.8 c 0,-0.331 0.2686,-0.6 0.6,-0.6 h 4.8 c 0.3314,0 0.6,-0.269 0.6,-0.6 v -1.8 c 0,-0.331 0.2686,-0.6 0.6,-0.6 h 1.8 c 0.3314,0 0.6,0.269 0.6,0.6 v 1.8 c 0,0.331 0.2686,0.6 0.6,0.6 h 1.8 c 0.3314,0 0.6,-0.269 0.6,-0.6 v -1.8 c 0,-0.331 0.2686,-0.6 0.6,-0.6 h 1.8 c 0.3314,0 0.6,0.269 0.6,0.6 v 4.8 c 0,0.331 0.2686,0.6 0.6,0.6 h 4.8 c 0.3314,0 0.6,-0.269 0.6,-0.6 v -1.8 c 0,-0.331 0.2686,-0.6 0.6,-0.6 h 1.8 c 0.3314,0 0.6,-0.269 0.6,-0.6 v -4.8 c 0,-0.331 0.2686,-0.6 0.6,-0.6 h 1.8 c 0.331,0 0.6,0.269 0.6,0.6 v 1.8 c 0,0.331 0.269,0.6 0.6,0.6 h 4.8 c 0.331,0 0.6,0.269 0.6,0.6 v 1.8 c 0,0.331 0.269,0.6 0.6,0.6 h 13.8 c 0.331,0 0.6,0.269 0.6,0.6 v 1.8 c 0,0.331 -0.269,0.6 -0.6,0.6 h -1.8 c -0.331,0 -0.6,0.269 -0.6,0.6 v 1.8 c 0,0.331 -0.269,0.6 -0.6,0.6 h -10.8 c -0.331,0 -0.6,0.269 -0.6,0.6 v 1.8 c 0,0.331 -0.269,0.6 -0.6,0.6 h -1.8 c -0.331,0 -0.6,0.269 -0.6,0.6 v 1.8 c 0,0.331 -0.269,0.6 -0.6,0.6 h -1.8 c -0.331,0 -0.6,-0.269 -0.6,-0.6 v -7.8 c 0,-0.331 -0.269,-0.6 -0.6,-0.6 h -1.8 c -0.3314,0 -0.6,0.269 -0.6,0.6 v 1.8 c 0,0.331 -0.2686,0.6 -0.6,0.6 h -1.8 c -0.3314,0 -0.6,0.269 -0.6,0.6 v 1.8 c 0,0.331 0.2686,0.6 0.6,0.6 h 1.8 c 0.3314,0 0.6,0.269 0.6,0.6 v 1.8 c 0,0.331 0.2686,0.6 0.6,0.6 h 1.8 c 0.331,0 0.6,0.269 0.6,0.6 v 4.8 c 0,0.331 0.269,0.6 0.6,0.6 h 1.8 c 0.331,0 0.6,-0.269 0.6,-0.6 v -4.8 c 0,-0.331 0.269,-0.6 0.6,-0.6 h 1.8 c 0.331,0 0.6,0.269 0.6,0.6 v 1.8 c 0,0.331 0.269,0.6 0.6,0.6 h 1.8 c 0.331,0 0.6,-0.269 0.6,-0.6 v -4.8 c 0,-0.331 0.269,-0.6 0.6,-0.6 h 4.8 c 0.331,0 0.6,0.269 0.6,0.6 v 1.8 c 0,0.331 -0.269,0.6 -0.6,0.6 h -1.8 c -0.331,0 -0.6,0.269 -0.6,0.6 v 4.8 c 0,0.331 -0.269,0.6 -0.6,0.6 h -4.8 c -0.331,0 -0.6,0.269 -0.6,0.6 v 1.8 c 0,0.331 0.269,0.6 0.6,0.6 h 1.8 c 0.331,0 0.6,0.269 0.6,0.6 v 1.8 c 0,0.331 -0.269,0.6 -0.6,0.6 h -4.8 c -0.331,0 -0.6,-0.269 -0.6,-0.6 v -1.8 c 0,-0.331 -0.269,-0.6 -0.6,-0.6 h -4.8 c -0.3314,0 -0.6,0.269 -0.6,0.6 v 4.8 c 0,0.331 -0.2686,0.6 -0.6,0.6 h -1.8 c -0.3314,0 -0.6,0.269 -0.6,0.6 v 1.8 c 0,0.331 -0.2686,0.6 -0.6,0.6 h -1.8 c -0.3314,0 -0.6,-0.269 -0.6,-0.6 v -4.8 c 0,-0.331 -0.2686,-0.6 -0.6,-0.6 h -1.8 c -0.3314,0 -0.6,0.269 -0.6,0.6 v 4.8 c 0,0.331 0.2686,0.6 0.6,0.6 h 1.8 c 0.3314,0 0.6,0.269 0.6,0.6 v 1.8 c 0,0.331 -0.2686,0.6 -0.6,0.6 h -4.8 c -0.3314,0 -0.6,0.269 -0.6,0.6 v 1.8 c 0,0.331 -0.2686,0.6 -0.6,0.6 z m -15,0 H 57.6 c -0.3314,0 -0.6,-0.269 -0.6,-0.6 v -1.8 c 0,-0.331 0.2686,-0.6 0.6,-0.6 h 7.8 c 0.3314,0 0.6,-0.269 0.6,-0.6 v -1.8 c 0,-0.331 -0.2686,-0.6 -0.6,-0.6 h -1.8 c -0.3314,0 -0.6,-0.269 -0.6,-0.6 v -4.8 c 0,-0.331 -0.2686,-0.6 -0.6,-0.6 h -1.8 c -0.3314,0 -0.6,0.269 -0.6,0.6 v 1.8 c 0,0.331 -0.2686,0.6 -0.6,0.6 h -1.8 c -0.3314,0 -0.6,0.269 -0.6,0.6 v 4.8 c 0,0.331 -0.2686,0.6 -0.6,0.6 h -1.8 c -0.3314,0 -0.6,-0.269 -0.6,-0.6 v -1.8 c 0,-0.331 -0.2686,-0.6 -0.6,-0.6 h -1.8 c -0.3314,0 -0.6,-0.269 -0.6,-0.6 v -1.8 c 0,-0.331 0.2686,-0.6 0.6,-0.6 h 1.8 c 0.3314,0 0.6,-0.269 0.6,-0.6 v -7.8 c 0,-0.331 0.2686,-0.6 0.6,-0.6 h 1.8 c 0.3314,0 0.6,-0.269 0.6,-0.6 v -1.8 c 0,-0.331 -0.2686,-0.6 -0.6,-0.6 h -1.8 c -0.3314,0 -0.6,0.269 -0.6,0.6 v 1.8 c 0,0.331 -0.2686,0.6 -0.6,0.6 h -1.8 c -0.3314,0 -0.6,-0.269 -0.6,-0.6 v -10.8 c 0,-0.331 0.2686,-0.6 0.6,-0.6 h 1.8 c 0.3314,0 0.6,0.269 0.6,0.6 v 1.8 c 0,0.331 0.2686,0.6 0.6,0.6 h 1.8 c 0.3314,0 0.6,-0.269 0.6,-0.6 v -1.8 c 0,-0.331 -0.2686,-0.6 -0.6,-0.6 h -1.8 c -0.3314,0 -0.6,-0.269 -0.6,-0.6 v -1.8 c 0,-0.331 0.2686,-0.6 0.6,-0.6 h 1.8 c 0.3314,0 0.6,-0.269 0.6,-0.6 v -1.8 c 0,-0.331 -0.2686,-0.6 -0.6,-0.6 h -4.8 c -0.3314,0 -0.6,-0.269 -0.6,-0.6 v -1.8 c 0,-0.331 0.2686,-0.6 0.6,-0.6 h 1.8 c 0.3314,0 0.6,-0.269 0.6,-0.6 v -1.8 c 0,-0.331 -0.2686,-0.6 -0.6,-0.6 h -1.8 c -0.3314,0 -0.6,0.269 -0.6,0.6 v 1.8 c 0,0.331 -0.2686,0.6 -0.6,0.6 h -4.8 c -0.3314,0 -0.6,-0.269 -0.6,-0.6 v -1.8 c 0,-0.331 0.2686,-0.6 0.6,-0.6 h 1.8 c 0.3314,0 0.6,-0.269 0.6,-0.6 v -1.8 c 0,-0.331 0.2686,-0.6 0.6,-0.6 h 7.8 c 0.3314,0 0.6,0.269 0.6,0.6 v 4.8 c 0,0.331 0.2686,0.6 0.6,0.6 h 1.8 c 0.3314,0 0.6,0.269 0.6,0.6 v 7.8 c 0,0.331 0.2686,0.6 0.6,0.6 h 1.8 c 0.3314,0 0.6,0.269 0.6,0.6 v 4.8 c 0,0.331 -0.2686,0.6 -0.6,0.6 h -1.8 c -0.3314,0 -0.6,0.269 -0.6,0.6 v 1.8 c 0,0.331 0.2686,0.6 0.6,0.6 h 1.8 c 0.3314,0 0.6,0.269 0.6,0.6 v 1.8 c 0,0.331 0.2686,0.6 0.6,0.6 h 4.8 c 0.3314,0 0.6,0.269 0.6,0.6 v 4.8 c 0,0.331 -0.2686,0.6 -0.6,0.6 h -1.8 c -0.3314,0 -0.6,0.269 -0.6,0.6 v 1.8 c 0,0.331 0.2686,0.6 0.6,0.6 h 1.8 c 0.3314,0 0.6,0.269 0.6,0.6 v 1.8 c 0,0.331 0.2686,0.6 0.6,0.6 h 4.8 c 0.3314,0 0.6,-0.269 0.6,-0.6 v -1.8 c 0,-0.331 0.2686,-0.6 0.6,-0.6 h 4.8 c 0.3314,0 0.6,0.269 0.6,0.6 v 1.8 c 0,0.331 -0.2686,0.6 -0.6,0.6 h -1.8 c -0.3314,0 -0.6,0.269 -0.6,0.6 v 1.8 c 0,0.331 -0.2686,0.6 -0.6,0.6 h -4.8 c -0.3314,0 -0.6,0.269 -0.6,0.6 v 1.8 c 0,0.331 -0.2686,0.6 -0.6,0.6 z m -21,0 h -1.8 c -0.3314,0 -0.6,-0.269 -0.6,-0.6 v -1.8 c 0,-0.331 0.2686,-0.6 0.6,-0.6 h 1.8 c 0.3314,0 0.6,0.269 0.6,0.6 v 1.8 c 0,0.331 -0.2686,0.6 -0.6,0.6 z m -6,0 h -1.8 c -0.3314,0 -0.6,-0.269 -0.6,-0.6 v -1.8 c 0,-0.331 0.2686,-0.6 0.6,-0.6 h 1.8 c 0.3314,0 0.6,0.269 0.6,0.6 v 1.8 c 0,0.331 -0.2686,0.6 -0.6,0.6 z m -6,0 h -1.8 c -0.3314,0 -0.6,-0.269 -0.6,-0.6 v -1.8 c 0,-0.331 0.2686,-0.6 0.6,-0.6 h 1.8 c 0.3314,0 0.6,0.269 0.6,0.6 v 1.8 c 0,0.331 -0.2686,0.6 -0.6,0.6 z m -6,0 H 12.6 c -0.3314,0 -0.6,-0.269 -0.6,-0.6 v -19.8 c 0,-0.331 0.2686,-0.6 0.6,-0.6 h 19.8 c 0.3314,0 0.6,0.269 0.6,0.6 v 19.8 c 0,0.331 -0.2686,0.6 -0.6,0.6 z m 75,-3 h -4.8 c -0.331,0 -0.6,-0.269 -0.6,-0.6 v -1.8 c 0,-0.331 0.269,-0.6 0.6,-0.6 h 4.8 c 0.331,0 0.6,0.269 0.6,0.6 v 1.8 c 0,0.331 -0.269,0.6 -0.6,0.6 z M 30,167.4 V 153.6 C 30,153.269 29.7314,153 29.4,153 H 15.6 c -0.3314,0 -0.6,0.269 -0.6,0.6 v 13.8 c 0,0.331 0.2686,0.6 0.6,0.6 h 13.8 c 0.3314,0 0.6,-0.269 0.6,-0.6 z M 164.4,165 h -1.8 c -0.331,0 -0.6,-0.269 -0.6,-0.6 v -1.8 c 0,-0.331 0.269,-0.6 0.6,-0.6 h 1.8 c 0.331,0 0.6,0.269 0.6,0.6 v 1.8 c 0,0.331 -0.269,0.6 -0.6,0.6 z m -117,0 h -4.8 c -0.3314,0 -0.6,-0.269 -0.6,-0.6 v -1.8 c 0,-0.331 -0.2686,-0.6 -0.6,-0.6 h -1.8 c -0.3314,0 -0.6,0.269 -0.6,0.6 v 1.8 c 0,0.331 -0.2686,0.6 -0.6,0.6 h -1.8 c -0.3314,0 -0.6,-0.269 -0.6,-0.6 v -4.8 c 0,-0.331 0.2686,-0.6 0.6,-0.6 h 7.8 c 0.3314,0 0.6,0.269 0.6,0.6 v 1.8 c 0,0.331 0.2686,0.6 0.6,0.6 h 1.8 c 0.3314,0 0.6,0.269 0.6,0.6 v 1.8 c 0,0.331 -0.2686,0.6 -0.6,0.6 z m -21,0 h -7.8 c -0.3314,0 -0.6,-0.269 -0.6,-0.6 v -7.8 c 0,-0.331 0.2686,-0.6 0.6,-0.6 h 7.8 c 0.3314,0 0.6,0.269 0.6,0.6 v 7.8 c 0,0.331 -0.2686,0.6 -0.6,0.6 z m 78,-3 h -1.8 c -0.331,0 -0.6,-0.269 -0.6,-0.6 v -1.8 c 0,-0.331 0.269,-0.6 0.6,-0.6 h 1.8 c 0.331,0 0.6,0.269 0.6,0.6 v 1.8 c 0,0.331 -0.269,0.6 -0.6,0.6 z m -30,0 h -4.8 c -0.3314,0 -0.6,-0.269 -0.6,-0.6 v -1.8 c 0,-0.331 0.2686,-0.6 0.6,-0.6 h 1.8 c 0.3314,0 0.6,-0.269 0.6,-0.6 v -1.8 c 0,-0.331 0.2686,-0.6 0.6,-0.6 h 1.8 c 0.3314,0 0.6,0.269 0.6,0.6 v 4.8 c 0,0.331 -0.2686,0.6 -0.6,0.6 z m 6,-3 h -1.8 c -0.3314,0 -0.6,-0.269 -0.6,-0.6 v -1.8 c 0,-0.331 0.2686,-0.6 0.6,-0.6 h 1.8 c 0.3314,0 0.6,0.269 0.6,0.6 v 1.8 c 0,0.331 -0.2686,0.6 -0.6,0.6 z m -30,0 h -1.8 c -0.3314,0 -0.6,-0.269 -0.6,-0.6 v -1.8 c 0,-0.331 -0.2686,-0.6 -0.6,-0.6 h -4.8 c -0.3314,0 -0.6,-0.269 -0.6,-0.6 v -1.8 c 0,-0.331 0.2686,-0.6 0.6,-0.6 h 7.8 c 0.3314,0 0.6,0.269 0.6,0.6 v 4.8 c 0,0.331 -0.2686,0.6 -0.6,0.6 z M 156,155.4 v -7.8 c 0,-0.331 -0.269,-0.6 -0.6,-0.6 h -7.8 c -0.331,0 -0.6,0.269 -0.6,0.6 v 7.8 c 0,0.331 0.269,0.6 0.6,0.6 h 7.8 c 0.331,0 0.6,-0.269 0.6,-0.6 z m -39.6,0.6 h -1.8 c -0.331,0 -0.6,-0.269 -0.6,-0.6 v -1.8 c 0,-0.331 0.269,-0.6 0.6,-0.6 h 1.8 c 0.331,0 0.6,0.269 0.6,0.6 v 1.8 c 0,0.331 -0.269,0.6 -0.6,0.6 z M 96,155.4 v -7.8 c 0,-0.331 -0.2686,-0.6 -0.6,-0.6 h -7.8 c -0.3314,0 -0.6,0.269 -0.6,0.6 v 7.8 c 0,0.331 0.2686,0.6 0.6,0.6 h 7.8 c 0.3314,0 0.6,-0.269 0.6,-0.6 z M 38.4,156 h -1.8 c -0.3314,0 -0.6,-0.269 -0.6,-0.6 v -7.8 c 0,-0.331 0.2686,-0.6 0.6,-0.6 h 1.8 c 0.3314,0 0.6,0.269 0.6,0.6 v 1.8 c 0,0.331 0.2686,0.6 0.6,0.6 h 1.8 c 0.3314,0 0.6,0.269 0.6,0.6 v 1.8 c 0,0.331 -0.2686,0.6 -0.6,0.6 h -1.8 c -0.3314,0 -0.6,0.269 -0.6,0.6 v 1.8 c 0,0.331 -0.2686,0.6 -0.6,0.6 z m 129,-3 h -4.8 c -0.331,0 -0.6,-0.269 -0.6,-0.6 v -1.8 c 0,-0.331 0.269,-0.6 0.6,-0.6 h 1.8 c 0.331,0 0.6,-0.269 0.6,-0.6 v -1.8 c 0,-0.331 0.269,-0.6 0.6,-0.6 h 1.8 c 0.331,0 0.6,-0.269 0.6,-0.6 v -1.8 c 0,-0.331 0.269,-0.6 0.6,-0.6 h 1.8 c 0.331,0 0.6,0.269 0.6,0.6 v 4.8 c 0,0.331 -0.269,0.6 -0.6,0.6 h -1.8 c -0.331,0 -0.6,0.269 -0.6,0.6 v 1.8 c 0,0.331 -0.269,0.6 -0.6,0.6 z m -15,0 h -1.8 c -0.331,0 -0.6,-0.269 -0.6,-0.6 v -1.8 c 0,-0.331 0.269,-0.6 0.6,-0.6 h 1.8 c 0.331,0 0.6,0.269 0.6,0.6 v 1.8 c 0,0.331 -0.269,0.6 -0.6,0.6 z m -33,0 h -1.8 c -0.331,0 -0.6,-0.269 -0.6,-0.6 v -4.8 c 0,-0.331 0.269,-0.6 0.6,-0.6 h 7.8 c 0.331,0 0.6,0.269 0.6,0.6 v 1.8 c 0,0.331 -0.269,0.6 -0.6,0.6 h -4.8 c -0.331,0 -0.6,0.269 -0.6,0.6 v 1.8 c 0,0.331 -0.269,0.6 -0.6,0.6 z m -27,0 h -1.8 c -0.3314,0 -0.6,-0.269 -0.6,-0.6 v -1.8 c 0,-0.331 0.2686,-0.6 0.6,-0.6 h 1.8 c 0.3314,0 0.6,0.269 0.6,0.6 v 1.8 c 0,0.331 -0.2686,0.6 -0.6,0.6 z m -21,-3 h -1.8 c -0.3314,0 -0.6,-0.269 -0.6,-0.6 v -4.8 c 0,-0.331 0.2686,-0.6 0.6,-0.6 h 4.8 c 0.3314,0 0.6,0.269 0.6,0.6 v 1.8 c 0,0.331 -0.2686,0.6 -0.6,0.6 h -1.8 c -0.3314,0 -0.6,0.269 -0.6,0.6 v 1.8 c 0,0.331 -0.2686,0.6 -0.6,0.6 z m -24,0 h -4.8 c -0.3314,0 -0.6,-0.269 -0.6,-0.6 v -7.8 c 0,-0.331 0.2686,-0.6 0.6,-0.6 h 1.8 c 0.3314,0 0.6,0.269 0.6,0.6 v 1.8 c 0,0.331 0.2686,0.6 0.6,0.6 h 1.8 c 0.3314,0 0.6,0.269 0.6,0.6 v 4.8 c 0,0.331 -0.2686,0.6 -0.6,0.6 z m 90,-3 h -4.8 c -0.331,0 -0.6,-0.269 -0.6,-0.6 v -1.8 c 0,-0.331 0.269,-0.6 0.6,-0.6 h 1.8 c 0.331,0 0.6,-0.269 0.6,-0.6 v -1.8 c 0,-0.331 0.269,-0.6 0.6,-0.6 h 1.8 c 0.331,0 0.6,0.269 0.6,0.6 v 4.8 c 0,0.331 -0.269,0.6 -0.6,0.6 z m -9,0 h -1.8 c -0.331,0 -0.6,-0.269 -0.6,-0.6 v -4.8 c 0,-0.331 0.269,-0.6 0.6,-0.6 h 4.8 c 0.331,0 0.6,0.269 0.6,0.6 v 1.8 c 0,0.331 -0.269,0.6 -0.6,0.6 h -1.8 c -0.331,0 -0.6,0.269 -0.6,0.6 v 1.8 c 0,0.331 -0.269,0.6 -0.6,0.6 z m -48,0 h -1.8 c -0.3314,0 -0.6,-0.269 -0.6,-0.6 v -1.8 c 0,-0.331 0.2686,-0.6 0.6,-0.6 h 1.8 c 0.3314,0 0.6,0.269 0.6,0.6 v 1.8 c 0,0.331 -0.2686,0.6 -0.6,0.6 z m -48,0 h -1.8 c -0.3314,0 -0.6,-0.269 -0.6,-0.6 v -1.8 c 0,-0.331 0.2686,-0.6 0.6,-0.6 h 1.8 c 0.3314,0 0.6,0.269 0.6,0.6 v 1.8 c 0,0.331 -0.2686,0.6 -0.6,0.6 z m -9,0 h -1.8 c -0.3314,0 -0.6,-0.269 -0.6,-0.6 v -1.8 c 0,-0.331 0.2686,-0.6 0.6,-0.6 h 1.8 c 0.3314,0 0.6,0.269 0.6,0.6 v 1.8 c 0,0.331 -0.2686,0.6 -0.6,0.6 z m 144,-3 h -4.8 c -0.331,0 -0.6,-0.269 -0.6,-0.6 v -1.8 c 0,-0.331 0.269,-0.6 0.6,-0.6 h 1.8 c 0.331,0 0.6,-0.269 0.6,-0.6 v -4.8 c 0,-0.331 0.269,-0.6 0.6,-0.6 h 4.8 c 0.331,0 0.6,0.269 0.6,0.6 v 1.8 c 0,0.331 -0.269,0.6 -0.6,0.6 h -1.8 c -0.331,0 -0.6,0.269 -0.6,0.6 v 4.8 c 0,0.331 -0.269,0.6 -0.6,0.6 z m -147,0 h -4.8 c -0.3314,0 -0.6,-0.269 -0.6,-0.6 v -1.8 c 0,-0.331 -0.2686,-0.6 -0.6,-0.6 h -1.8 c -0.3314,0 -0.6,-0.269 -0.6,-0.6 v -13.8 c 0,-0.331 0.2686,-0.6 0.6,-0.6 h 1.8 c 0.3314,0 0.6,0.269 0.6,0.6 v 1.8 c 0,0.331 0.2686,0.6 0.6,0.6 h 1.8 c 0.3314,0 0.6,-0.269 0.6,-0.6 v -1.8 c 0,-0.331 0.2686,-0.6 0.6,-0.6 h 4.8 c 0.3314,0 0.6,-0.269 0.6,-0.6 v -1.8 c 0,-0.331 0.2686,-0.6 0.6,-0.6 h 1.8 c 0.3314,0 0.6,0.269 0.6,0.6 v 4.8 c 0,0.331 -0.2686,0.6 -0.6,0.6 h -4.8 c -0.3314,0 -0.6,0.269 -0.6,0.6 v 1.8 c 0,0.331 0.2686,0.6 0.6,0.6 h 13.8 c 0.3314,0 0.6,0.269 0.6,0.6 v 1.8 c 0,0.331 -0.2686,0.6 -0.6,0.6 h -7.8 c -0.3314,0 -0.6,0.269 -0.6,0.6 v 1.8 c 0,0.331 0.2686,0.6 0.6,0.6 h 7.8 c 0.3314,0 0.6,-0.269 0.6,-0.6 v -1.8 c 0,-0.331 0.2686,-0.6 0.6,-0.6 h 1.8 c 0.3314,0 0.6,-0.269 0.6,-0.6 v -1.8 c 0,-0.331 0.2686,-0.6 0.6,-0.6 h 4.8 c 0.3314,0 0.6,0.269 0.6,0.6 v 1.8 c 0,0.331 -0.2686,0.6 -0.6,0.6 h -1.8 c -0.3314,0 -0.6,0.269 -0.6,0.6 v 1.8 c 0,0.331 -0.2686,0.6 -0.6,0.6 h -1.8 c -0.3314,0 -0.6,0.269 -0.6,0.6 v 1.8 c 0,0.331 -0.2686,0.6 -0.6,0.6 H 21.6 c -0.3314,0 -0.6,-0.269 -0.6,-0.6 v -1.8 c 0,-0.331 0.2686,-0.6 0.6,-0.6 h 1.8 c 0.3314,0 0.6,-0.269 0.6,-0.6 v -1.8 c 0,-0.331 -0.2686,-0.6 -0.6,-0.6 h -4.8 c -0.3314,0 -0.6,-0.269 -0.6,-0.6 v -1.8 c 0,-0.331 -0.2686,-0.6 -0.6,-0.6 h -1.8 c -0.3314,0 -0.6,0.269 -0.6,0.6 v 4.8 c 0,0.331 0.2686,0.6 0.6,0.6 h 1.8 c 0.3314,0 0.6,0.269 0.6,0.6 v 1.8 c 0,0.331 0.2686,0.6 0.6,0.6 h 1.8 c 0.3314,0 0.6,0.269 0.6,0.6 v 1.8 c 0,0.331 -0.2686,0.6 -0.6,0.6 z m 114,-3 h -1.8 c -0.331,0 -0.6,-0.269 -0.6,-0.6 v -1.8 c 0,-0.331 0.269,-0.6 0.6,-0.6 h 1.8 c 0.331,0 0.6,0.269 0.6,0.6 v 1.8 c 0,0.331 -0.269,0.6 -0.6,0.6 z m -63,0 h -1.8 c -0.3314,0 -0.6,-0.269 -0.6,-0.6 v -1.8 c 0,-0.331 0.2686,-0.6 0.6,-0.6 h 1.8 c 0.3314,0 0.6,0.269 0.6,0.6 v 1.8 c 0,0.331 -0.2686,0.6 -0.6,0.6 z m -21,0 h -1.8 c -0.3314,0 -0.6,-0.269 -0.6,-0.6 v -1.8 c 0,-0.331 0.2686,-0.6 0.6,-0.6 h 1.8 c 0.3314,0 0.6,0.269 0.6,0.6 v 1.8 c 0,0.331 -0.2686,0.6 -0.6,0.6 z m 96,-3 h -1.8 c -0.331,0 -0.6,-0.269 -0.6,-0.6 v -4.8 c 0,-0.331 0.269,-0.6 0.6,-0.6 h 1.8 c 0.331,0 0.6,-0.269 0.6,-0.6 v -4.8 c 0,-0.331 -0.269,-0.6 -0.6,-0.6 h -1.8 c -0.331,0 -0.6,-0.269 -0.6,-0.6 v -4.8 c 0,-0.331 0.269,-0.6 0.6,-0.6 h 7.8 c 0.331,0 0.6,0.269 0.6,0.6 v 1.8 c 0,0.331 -0.269,0.6 -0.6,0.6 h -1.8 c -0.331,0 -0.6,0.269 -0.6,0.6 v 1.8 c 0,0.331 0.269,0.6 0.6,0.6 h 1.8 c 0.331,0 0.6,0.269 0.6,0.6 v 1.8 c 0,0.331 0.269,0.6 0.6,0.6 h 1.8 c 0.331,0 0.6,0.269 0.6,0.6 v 1.8 c 0,0.331 -0.269,0.6 -0.6,0.6 h -1.8 c -0.331,0 -0.6,0.269 -0.6,0.6 v 1.8 c 0,0.331 -0.269,0.6 -0.6,0.6 h -4.8 c -0.331,0 -0.6,0.269 -0.6,0.6 v 1.8 c 0,0.331 -0.269,0.6 -0.6,0.6 z m -18,0 h -1.8 c -0.331,0 -0.6,-0.269 -0.6,-0.6 v -1.8 c 0,-0.331 0.269,-0.6 0.6,-0.6 h 1.8 c 0.331,0 0.6,0.269 0.6,0.6 v 1.8 c 0,0.331 -0.269,0.6 -0.6,0.6 z m -63,0 h -1.8 c -0.3314,0 -0.6,-0.269 -0.6,-0.6 v -4.8 c 0,-0.331 0.2686,-0.6 0.6,-0.6 h 7.8 c 0.3314,0 0.6,0.269 0.6,0.6 v 1.8 c 0,0.331 -0.2686,0.6 -0.6,0.6 h -4.8 c -0.3314,0 -0.6,0.269 -0.6,0.6 v 1.8 c 0,0.331 -0.2686,0.6 -0.6,0.6 z m 99,-3 h -1.8 c -0.331,0 -0.6,-0.269 -0.6,-0.6 v -1.8 c 0,-0.331 -0.269,-0.6 -0.6,-0.6 h -1.8 c -0.331,0 -0.6,-0.269 -0.6,-0.6 v -1.8 c 0,-0.331 -0.269,-0.6 -0.6,-0.6 h -1.8 c -0.331,0 -0.6,-0.269 -0.6,-0.6 v -7.8 c 0,-0.331 0.269,-0.6 0.6,-0.6 h 1.8 c 0.331,0 0.6,0.269 0.6,0.6 v 1.8 c 0,0.331 0.269,0.6 0.6,0.6 h 1.8 c 0.331,0 0.6,0.269 0.6,0.6 v 1.8 c 0,0.331 0.269,0.6 0.6,0.6 h 1.8 c 0.331,0 0.6,0.269 0.6,0.6 v 7.8 c 0,0.331 -0.269,0.6 -0.6,0.6 z m -69,0 h -1.8 c -0.3314,0 -0.6,-0.269 -0.6,-0.6 v -1.8 c 0,-0.331 -0.2686,-0.6 -0.6,-0.6 h -1.8 c -0.3314,0 -0.6,-0.269 -0.6,-0.6 v -4.8 c 0,-0.331 -0.2686,-0.6 -0.6,-0.6 h -1.8 c -0.3314,0 -0.6,-0.269 -0.6,-0.6 v -7.8 C 87,117.269 86.7314,117 86.4,117 H 75.6 c -0.3314,0 -0.6,0.269 -0.6,0.6 v 1.8 c 0,0.331 -0.2686,0.6 -0.6,0.6 h -4.8 c -0.3314,0 -0.6,0.269 -0.6,0.6 v 4.8 c 0,0.331 -0.2686,0.6 -0.6,0.6 h -4.8 c -0.3314,0 -0.6,0.269 -0.6,0.6 v 4.8 c 0,0.331 -0.2686,0.6 -0.6,0.6 h -1.8 c -0.3314,0 -0.6,-0.269 -0.6,-0.6 v -4.8 c 0,-0.331 -0.2686,-0.6 -0.6,-0.6 h -1.8 c -0.3314,0 -0.6,-0.269 -0.6,-0.6 v -1.8 c 0,-0.331 0.2686,-0.6 0.6,-0.6 h 1.8 c 0.3314,0 0.6,-0.269 0.6,-0.6 v -1.8 c 0,-0.331 0.2686,-0.6 0.6,-0.6 h 4.8 c 0.3314,0 0.6,-0.269 0.6,-0.6 v -1.8 c 0,-0.331 -0.2686,-0.6 -0.6,-0.6 h -1.8 c -0.3314,0 -0.6,-0.269 -0.6,-0.6 v -1.8 c 0,-0.331 0.2686,-0.6 0.6,-0.6 h 1.8 c 0.3314,0 0.6,-0.269 0.6,-0.6 v -1.8 c 0,-0.331 0.2686,-0.6 0.6,-0.6 h 1.8 c 0.3314,0 0.6,0.269 0.6,0.6 v 4.8 c 0,0.331 0.2686,0.6 0.6,0.6 h 1.8 c 0.3314,0 0.6,-0.269 0.6,-0.6 v -1.8 c 0,-0.331 0.2686,-0.6 0.6,-0.6 h 1.8 c 0.3314,0 0.6,-0.269 0.6,-0.6 v -1.8 c 0,-0.331 -0.2686,-0.6 -0.6,-0.6 h -4.8 c -0.3314,0 -0.6,-0.269 -0.6,-0.6 v -1.8 c 0,-0.331 0.2686,-0.6 0.6,-0.6 h 7.8 c 0.3314,0 0.6,0.269 0.6,0.6 v 4.8 c 0,0.331 0.2686,0.6 0.6,0.6 h 4.8 c 0.3314,0 0.6,-0.269 0.6,-0.6 v -4.8 c 0,-0.331 0.2686,-0.6 0.6,-0.6 h 1.8 c 0.3314,0 0.6,0.269 0.6,0.6 v 4.8 c 0,0.331 0.2686,0.6 0.6,0.6 h 4.8 c 0.3314,0 0.6,-0.269 0.6,-0.6 v -1.8 c 0,-0.331 -0.2686,-0.6 -0.6,-0.6 h -1.8 c -0.3314,0 -0.6,-0.269 -0.6,-0.6 v -1.8 c 0,-0.331 0.2686,-0.6 0.6,-0.6 h 7.8 c 0.3314,0 0.6,0.269 0.6,0.6 v 1.8 c 0,0.331 -0.2686,0.6 -0.6,0.6 h -1.8 c -0.3314,0 -0.6,0.269 -0.6,0.6 v 4.8 c 0,0.331 -0.2686,0.6 -0.6,0.6 h -4.8 c -0.3314,0 -0.6,0.269 -0.6,0.6 v 4.8 c 0,0.331 0.2686,0.6 0.6,0.6 h 1.8 c 0.3314,0 0.6,0.269 0.6,0.6 v 1.8 c 0,0.331 0.2686,0.6 0.6,0.6 h 4.8 c 0.3314,0 0.6,0.269 0.6,0.6 v 1.8 c 0,0.331 -0.2686,0.6 -0.6,0.6 h -1.8 c -0.3314,0 -0.6,0.269 -0.6,0.6 v 4.8 c 0,0.331 -0.2686,0.6 -0.6,0.6 z m 48,-3 h -1.8 c -0.331,0 -0.6,-0.269 -0.6,-0.6 v -4.8 c 0,-0.331 0.269,-0.6 0.6,-0.6 h 1.8 c 0.331,0 0.6,0.269 0.6,0.6 v 4.8 c 0,0.331 -0.269,0.6 -0.6,0.6 z m -57,0 h -1.8 c -0.3314,0 -0.6,-0.269 -0.6,-0.6 v -4.8 c 0,-0.331 0.2686,-0.6 0.6,-0.6 h 1.8 c 0.3314,0 0.6,0.269 0.6,0.6 v 4.8 c 0,0.331 -0.2686,0.6 -0.6,0.6 z m -12,0 h -1.8 c -0.3314,0 -0.6,-0.269 -0.6,-0.6 v -1.8 c 0,-0.331 0.2686,-0.6 0.6,-0.6 h 1.8 c 0.3314,0 0.6,0.269 0.6,0.6 v 1.8 c 0,0.331 -0.2686,0.6 -0.6,0.6 z m -36,0 h -1.8 c -0.3314,0 -0.6,-0.269 -0.6,-0.6 v -1.8 c 0,-0.331 0.2686,-0.6 0.6,-0.6 h 1.8 c 0.3314,0 0.6,0.269 0.6,0.6 v 1.8 c 0,0.331 -0.2686,0.6 -0.6,0.6 z m 132,-3 h -1.8 c -0.331,0 -0.6,-0.269 -0.6,-0.6 v -1.8 c 0,-0.331 0.269,-0.6 0.6,-0.6 h 1.8 c 0.331,0 0.6,0.269 0.6,0.6 v 1.8 c 0,0.331 -0.269,0.6 -0.6,0.6 z m -51,0 h -10.8 c -0.331,0 -0.6,-0.269 -0.6,-0.6 v -1.8 c 0,-0.331 0.269,-0.6 0.6,-0.6 h 7.8 c 0.331,0 0.6,-0.269 0.6,-0.6 v -1.8 c 0,-0.331 0.269,-0.6 0.6,-0.6 h 1.8 c 0.331,0 0.6,-0.269 0.6,-0.6 v -1.8 c 0,-0.331 0.269,-0.6 0.6,-0.6 h 1.8 c 0.331,0 0.6,-0.269 0.6,-0.6 v -4.8 c 0,-0.331 0.269,-0.6 0.6,-0.6 h 7.8 c 0.331,0 0.6,0.269 0.6,0.6 v 4.8 c 0,0.331 -0.269,0.6 -0.6,0.6 h -1.8 c -0.331,0 -0.6,-0.269 -0.6,-0.6 v -1.8 c 0,-0.331 -0.269,-0.6 -0.6,-0.6 h -1.8 c -0.331,0 -0.6,0.269 -0.6,0.6 v 4.8 c 0,0.331 -0.269,0.6 -0.6,0.6 h -1.8 c -0.331,0 -0.6,0.269 -0.6,0.6 v 1.8 c 0,0.331 -0.269,0.6 -0.6,0.6 h -1.8 c -0.331,0 -0.6,0.269 -0.6,0.6 v 1.8 c 0,0.331 -0.269,0.6 -0.6,0.6 z m -15,0 h -1.8 c -0.331,0 -0.6,-0.269 -0.6,-0.6 v -1.8 c 0,-0.331 0.269,-0.6 0.6,-0.6 h 1.8 c 0.331,0 0.6,0.269 0.6,0.6 v 1.8 c 0,0.331 -0.269,0.6 -0.6,0.6 z m -24,0 h -1.8 c -0.3314,0 -0.6,-0.269 -0.6,-0.6 v -1.8 c 0,-0.331 0.2686,-0.6 0.6,-0.6 h 1.8 c 0.3314,0 0.6,0.269 0.6,0.6 v 1.8 c 0,0.331 -0.2686,0.6 -0.6,0.6 z m -39,0 h -1.8 c -0.3314,0 -0.6,-0.269 -0.6,-0.6 v -1.8 c 0,-0.331 0.2686,-0.6 0.6,-0.6 h 1.8 c 0.3314,0 0.6,0.269 0.6,0.6 v 1.8 c 0,0.331 -0.2686,0.6 -0.6,0.6 z m -6,0 h -4.8 c -0.3314,0 -0.6,-0.269 -0.6,-0.6 v -1.8 c 0,-0.331 0.2686,-0.6 0.6,-0.6 h 4.8 c 0.3314,0 0.6,0.269 0.6,0.6 v 1.8 c 0,0.331 -0.2686,0.6 -0.6,0.6 z m 132,-3 h -1.8 c -0.331,0 -0.6,-0.269 -0.6,-0.6 v -1.8 c 0,-0.331 0.269,-0.6 0.6,-0.6 h 1.8 c 0.331,0 0.6,0.269 0.6,0.6 v 1.8 c 0,0.331 -0.269,0.6 -0.6,0.6 z m -27,0 h -1.8 c -0.331,0 -0.6,-0.269 -0.6,-0.6 v -1.8 c 0,-0.331 0.269,-0.6 0.6,-0.6 h 1.8 c 0.331,0 0.6,0.269 0.6,0.6 v 1.8 c 0,0.331 -0.269,0.6 -0.6,0.6 z m -12,0 h -1.8 c -0.331,0 -0.6,-0.269 -0.6,-0.6 v -1.8 c 0,-0.331 0.269,-0.6 0.6,-0.6 h 1.8 c 0.331,0 0.6,0.269 0.6,0.6 v 1.8 c 0,0.331 -0.269,0.6 -0.6,0.6 z m -27,0 h -1.8 c -0.3314,0 -0.6,-0.269 -0.6,-0.6 v -4.8 c 0,-0.331 -0.2686,-0.6 -0.6,-0.6 h -1.8 c -0.3314,0 -0.6,-0.269 -0.6,-0.6 v -1.8 c 0,-0.331 0.2686,-0.6 0.6,-0.6 h 1.8 c 0.3314,0 0.6,-0.269 0.6,-0.6 v -4.8 c 0,-0.331 0.2686,-0.6 0.6,-0.6 h 1.8 c 0.331,0 0.6,0.269 0.6,0.6 v 4.8 c 0,0.331 0.269,0.6 0.6,0.6 h 1.8 c 0.331,0 0.6,-0.269 0.6,-0.6 v -1.8 c 0,-0.331 0.269,-0.6 0.6,-0.6 h 1.8 c 0.331,0 0.6,0.269 0.6,0.6 v 4.8 c 0,0.331 0.269,0.6 0.6,0.6 h 1.8 c 0.331,0 0.6,0.269 0.6,0.6 v 1.8 c 0,0.331 -0.269,0.6 -0.6,0.6 h -7.8 c -0.331,0 -0.6,0.269 -0.6,0.6 v 1.8 c 0,0.331 -0.269,0.6 -0.6,0.6 z m -18,0 h -1.8 c -0.3314,0 -0.6,-0.269 -0.6,-0.6 v -1.8 c 0,-0.331 0.2686,-0.6 0.6,-0.6 h 1.8 c 0.3314,0 0.6,0.269 0.6,0.6 v 1.8 c 0,0.331 -0.2686,0.6 -0.6,0.6 z m -45,0 h -1.8 c -0.3314,0 -0.6,-0.269 -0.6,-0.6 v -1.8 c 0,-0.331 0.2686,-0.6 0.6,-0.6 h 1.8 c 0.3314,0 0.6,0.269 0.6,0.6 v 1.8 c 0,0.331 -0.2686,0.6 -0.6,0.6 z m -21,0 h -1.8 c -0.3314,0 -0.6,-0.269 -0.6,-0.6 v -1.8 c 0,-0.331 -0.2686,-0.6 -0.6,-0.6 h -1.8 c -0.3314,0 -0.6,-0.269 -0.6,-0.6 v -10.8 c 0,-0.331 0.2686,-0.6 0.6,-0.6 h 1.8 c 0.3314,0 0.6,0.269 0.6,0.6 v 4.8 c 0,0.331 0.2686,0.6 0.6,0.6 h 1.8 c 0.3314,0 0.6,-0.269 0.6,-0.6 v -4.8 c 0,-0.331 0.2686,-0.6 0.6,-0.6 h 1.8 c 0.3314,0 0.6,0.269 0.6,0.6 v 4.8 c 0,0.331 0.2686,0.6 0.6,0.6 h 1.8 c 0.3314,0 0.6,-0.269 0.6,-0.6 v -4.8 c 0,-0.331 0.2686,-0.6 0.6,-0.6 h 4.8 c 0.3314,0 0.6,0.269 0.6,0.6 v 1.8 c 0,0.331 -0.2686,0.6 -0.6,0.6 h -1.8 c -0.3314,0 -0.6,0.269 -0.6,0.6 v 1.8 c 0,0.331 0.2686,0.6 0.6,0.6 h 1.8 c 0.3314,0 0.6,0.269 0.6,0.6 v 1.8 c 0,0.331 0.2686,0.6 0.6,0.6 h 1.8 c 0.3314,0 0.6,-0.269 0.6,-0.6 v -1.8 c 0,-0.331 0.2686,-0.6 0.6,-0.6 h 4.8 c 0.3314,0 0.6,0.269 0.6,0.6 v 1.8 c 0,0.331 -0.2686,0.6 -0.6,0.6 h -1.8 c -0.3314,0 -0.6,0.269 -0.6,0.6 v 1.8 c 0,0.331 -0.2686,0.6 -0.6,0.6 h -7.8 c -0.3314,0 -0.6,-0.269 -0.6,-0.6 v -1.8 c 0,-0.331 -0.2686,-0.6 -0.6,-0.6 h -1.8 c -0.3314,0 -0.6,0.269 -0.6,0.6 v 1.8 c 0,0.331 -0.2686,0.6 -0.6,0.6 h -4.8 c -0.3314,0 -0.6,0.269 -0.6,0.6 v 1.8 c 0,0.331 -0.2686,0.6 -0.6,0.6 z m 153,-3 h -1.8 c -0.331,0 -0.6,-0.269 -0.6,-0.6 v -1.8 c 0,-0.331 0.269,-0.6 0.6,-0.6 h 1.8 c 0.331,0 0.6,0.269 0.6,0.6 v 1.8 c 0,0.331 -0.269,0.6 -0.6,0.6 z m -90,0 h -1.8 c -0.3314,0 -0.6,-0.269 -0.6,-0.6 v -1.8 c 0,-0.331 0.2686,-0.6 0.6,-0.6 h 1.8 c 0.3314,0 0.6,0.269 0.6,0.6 v 1.8 c 0,0.331 -0.2686,0.6 -0.6,0.6 z m -36,0 h -4.8 c -0.3314,0 -0.6,-0.269 -0.6,-0.6 v -1.8 c 0,-0.331 0.2686,-0.6 0.6,-0.6 h 1.8 c 0.3314,0 0.6,-0.269 0.6,-0.6 v -4.8 c 0,-0.331 -0.2686,-0.6 -0.6,-0.6 h -4.8 c -0.3314,0 -0.6,-0.269 -0.6,-0.6 v -1.8 c 0,-0.331 0.2686,-0.6 0.6,-0.6 h 4.8 c 0.3314,0 0.6,-0.269 0.6,-0.6 v -1.8 c 0,-0.331 0.2686,-0.6 0.6,-0.6 h 1.8 c 0.3314,0 0.6,-0.269 0.6,-0.6 v -1.8 c 0,-0.331 0.2686,-0.6 0.6,-0.6 h 1.8 c 0.3314,0 0.6,0.269 0.6,0.6 v 4.8 c 0,0.331 -0.2686,0.6 -0.6,0.6 h -1.8 c -0.3314,0 -0.6,0.269 -0.6,0.6 v 1.8 c 0,0.331 0.2686,0.6 0.6,0.6 h 4.8 c 0.3314,0 0.6,-0.269 0.6,-0.6 v -1.8 c 0,-0.331 0.2686,-0.6 0.6,-0.6 h 4.8 c 0.3314,0 0.6,-0.269 0.6,-0.6 v -4.8 c 0,-0.331 0.2686,-0.6 0.6,-0.6 h 1.8 c 0.3314,0 0.6,0.269 0.6,0.6 v 1.8 c 0,0.331 0.2686,0.6 0.6,0.6 h 1.8 c 0.3314,0 0.6,0.269 0.6,0.6 v 1.8 c 0,0.331 -0.2686,0.6 -0.6,0.6 h -1.8 c -0.3314,0 -0.6,0.269 -0.6,0.6 v 7.8 c 0,0.331 -0.2686,0.6 -0.6,0.6 h -4.8 c -0.3314,0 -0.6,-0.269 -0.6,-0.6 v -1.8 c 0,-0.331 -0.2686,-0.6 -0.6,-0.6 h -1.8 c -0.3314,0 -0.6,0.269 -0.6,0.6 v 1.8 c 0,0.331 -0.2686,0.6 -0.6,0.6 h -4.8 c -0.3314,0 -0.6,0.269 -0.6,0.6 v 1.8 c 0,0.331 -0.2686,0.6 -0.6,0.6 z m 120,-3 h -1.8 c -0.331,0 -0.6,-0.269 -0.6,-0.6 v -1.8 c 0,-0.331 0.269,-0.6 0.6,-0.6 h 1.8 c 0.331,0 0.6,0.269 0.6,0.6 v 1.8 c 0,0.331 -0.269,0.6 -0.6,0.6 z m -21,0 h -7.8 c -0.331,0 -0.6,-0.269 -0.6,-0.6 v -7.8 c 0,-0.331 0.269,-0.6 0.6,-0.6 h 1.8 c 0.331,0 0.6,-0.269 0.6,-0.6 v -4.8 c 0,-0.331 0.269,-0.6 0.6,-0.6 h 1.8 c 0.331,0 0.6,0.269 0.6,0.6 v 1.8 c 0,0.331 0.269,0.6 0.6,0.6 h 1.8 c 0.331,0 0.6,-0.269 0.6,-0.6 v -1.8 c 0,-0.331 -0.269,-0.6 -0.6,-0.6 h -1.8 c -0.331,0 -0.6,-0.269 -0.6,-0.6 v -1.8 c 0,-0.331 0.269,-0.6 0.6,-0.6 h 1.8 c 0.331,0 0.6,-0.269 0.6,-0.6 v -4.8 c 0,-0.3314 -0.269,-0.6 -0.6,-0.6 h -1.8 c -0.331,0 -0.6,-0.2686 -0.6,-0.6 v -1.8 c 0,-0.3314 0.269,-0.6 0.6,-0.6 h 1.8 c 0.331,0 0.6,-0.2686 0.6,-0.6 V 81.6 c 0,-0.3314 0.269,-0.6 0.6,-0.6 h 1.8 c 0.331,0 0.6,-0.2686 0.6,-0.6 v -4.8 c 0,-0.3314 -0.269,-0.6 -0.6,-0.6 h -1.8 c -0.331,0 -0.6,0.2686 -0.6,0.6 v 4.8 c 0,0.3314 -0.269,0.6 -0.6,0.6 h -1.8 c -0.331,0 -0.6,-0.2686 -0.6,-0.6 v -1.8 c 0,-0.3314 -0.269,-0.6 -0.6,-0.6 h -1.8 c -0.331,0 -0.6,-0.2686 -0.6,-0.6 v -1.8 c 0,-0.3314 0.269,-0.6 0.6,-0.6 h 1.8 c 0.331,0 0.6,-0.2686 0.6,-0.6 v -4.8 c 0,-0.3314 -0.269,-0.6 -0.6,-0.6 h -1.8 c -0.331,0 -0.6,0.2686 -0.6,0.6 v 4.8 c 0,0.3314 -0.269,0.6 -0.6,0.6 h -4.8 c -0.331,0 -0.6,-0.2686 -0.6,-0.6 v -1.8 c 0,-0.3314 0.269,-0.6 0.6,-0.6 h 1.8 c 0.331,0 0.6,-0.2686 0.6,-0.6 v -4.8 c 0,-0.3314 0.269,-0.6 0.6,-0.6 h 10.8 c 0.331,0 0.6,0.2686 0.6,0.6 v 1.8 c 0,0.3314 -0.269,0.6 -0.6,0.6 h -1.8 c -0.331,0 -0.6,0.2686 -0.6,0.6 v 1.8 c 0,0.3314 0.269,0.6 0.6,0.6 h 7.8 c 0.331,0 0.6,-0.2686 0.6,-0.6 v -4.8 c 0,-0.3314 0.269,-0.6 0.6,-0.6 h 1.8 c 0.331,0 0.6,0.2686 0.6,0.6 v 4.8 c 0,0.3314 0.269,0.6 0.6,0.6 h 1.8 c 0.331,0 0.6,0.2686 0.6,0.6 v 1.8 c 0,0.3314 -0.269,0.6 -0.6,0.6 h -7.8 c -0.331,0 -0.6,0.2686 -0.6,0.6 v 7.8 c 0,0.3314 0.269,0.6 0.6,0.6 h 4.8 c 0.331,0 0.6,-0.2686 0.6,-0.6 v -4.8 c 0,-0.3314 0.269,-0.6 0.6,-0.6 h 1.8 c 0.331,0 0.6,0.2686 0.6,0.6 v 7.8 c 0,0.3314 0.269,0.6 0.6,0.6 h 4.8 c 0.331,0 0.6,0.2686 0.6,0.6 v 1.8 c 0,0.3314 -0.269,0.6 -0.6,0.6 h -1.8 c -0.331,0 -0.6,0.2686 -0.6,0.6 v 10.8 c 0,0.331 -0.269,0.6 -0.6,0.6 h -1.8 c -0.331,0 -0.6,-0.269 -0.6,-0.6 v -1.8 c 0,-0.3314 -0.269,-0.6 -0.6,-0.6 h -1.8 c -0.331,0 -0.6,0.2686 -0.6,0.6 v 1.8 c 0,0.331 0.269,0.6 0.6,0.6 h 1.8 c 0.331,0 0.6,0.269 0.6,0.6 v 4.8 c 0,0.331 0.269,0.6 0.6,0.6 h 1.8 c 0.331,0 0.6,-0.269 0.6,-0.6 v -4.8 c 0,-0.331 0.269,-0.6 0.6,-0.6 h 1.8 c 0.331,0 0.6,0.269 0.6,0.6 v 1.8 c 0,0.331 0.269,0.6 0.6,0.6 h 1.8 c 0.331,0 0.6,0.269 0.6,0.6 v 1.8 c 0,0.331 0.269,0.6 0.6,0.6 h 1.8 c 0.331,0 0.6,0.269 0.6,0.6 v 1.8 c 0,0.331 -0.269,0.6 -0.6,0.6 h -1.8 c -0.331,0 -0.6,0.269 -0.6,0.6 v 1.8 c 0,0.331 0.269,0.6 0.6,0.6 h 1.8 c 0.331,0 0.6,0.269 0.6,0.6 v 1.8 c 0,0.331 -0.269,0.6 -0.6,0.6 h -4.8 c -0.331,0 -0.6,-0.269 -0.6,-0.6 v -1.8 c 0,-0.331 -0.269,-0.6 -0.6,-0.6 h -7.8 c -0.331,0 -0.6,0.269 -0.6,0.6 v 1.8 c 0,0.331 -0.269,0.6 -0.6,0.6 h -1.8 c -0.331,0 -0.6,-0.269 -0.6,-0.6 v -1.8 c 0,-0.331 -0.269,-0.6 -0.6,-0.6 h -4.8 c -0.331,0 -0.6,-0.269 -0.6,-0.6 v -1.8 c 0,-0.331 0.269,-0.6 0.6,-0.6 h 4.8 c 0.331,0 0.6,-0.269 0.6,-0.6 v -1.8 c 0,-0.331 0.269,-0.6 0.6,-0.6 h 1.8 c 0.331,0 0.6,-0.269 0.6,-0.6 v -1.8 c 0,-0.331 -0.269,-0.6 -0.6,-0.6 h -4.8 c -0.331,0 -0.6,-0.269 -0.6,-0.6 v -1.8 c 0,-0.331 0.269,-0.6 0.6,-0.6 h 1.8 c 0.331,0 0.6,-0.269 0.6,-0.6 v -1.8 c 0,-0.3314 -0.269,-0.6 -0.6,-0.6 h -4.8 c -0.331,0 -0.6,0.2686 -0.6,0.6 v 10.8 c 0,0.331 -0.269,0.6 -0.6,0.6 h -4.8 c -0.331,0 -0.6,0.269 -0.6,0.6 v 4.8 c 0,0.331 0.269,0.6 0.6,0.6 h 1.8 c 0.331,0 0.6,0.269 0.6,0.6 v 1.8 c 0,0.331 -0.269,0.6 -0.6,0.6 z m -27,0 h -1.8 c -0.331,0 -0.6,-0.269 -0.6,-0.6 v -1.8 c 0,-0.331 0.269,-0.6 0.6,-0.6 h 1.8 c 0.331,0 0.6,0.269 0.6,0.6 v 1.8 c 0,0.331 -0.269,0.6 -0.6,0.6 z m 3,-3 h -1.8 c -0.331,0 -0.6,-0.269 -0.6,-0.6 v -1.8 c 0,-0.331 -0.269,-0.6 -0.6,-0.6 h -1.8 c -0.331,0 -0.6,-0.269 -0.6,-0.6 v -1.8 c 0,-0.331 0.269,-0.6 0.6,-0.6 h 7.8 c 0.331,0 0.6,0.269 0.6,0.6 v 1.8 c 0,0.331 -0.269,0.6 -0.6,0.6 h -1.8 c -0.331,0 -0.6,0.269 -0.6,0.6 v 1.8 c 0,0.331 -0.269,0.6 -0.6,0.6 z m -87,0 h -1.8 c -0.3314,0 -0.6,-0.269 -0.6,-0.6 v -1.8 c 0,-0.331 0.2686,-0.6 0.6,-0.6 h 1.8 c 0.3314,0 0.6,0.269 0.6,0.6 v 1.8 c 0,0.331 -0.2686,0.6 -0.6,0.6 z m 78,-3 h -1.8 c -0.331,0 -0.6,-0.269 -0.6,-0.6 v -7.8 c 0,-0.331 0.269,-0.6 0.6,-0.6 h 1.8 c 0.331,0 0.6,-0.269 0.6,-0.6 v -4.8 c 0,-0.3314 0.269,-0.6 0.6,-0.6 h 1.8 c 0.331,0 0.6,0.2686 0.6,0.6 v 4.8 c 0,0.331 0.269,0.6 0.6,0.6 h 1.8 c 0.331,0 0.6,0.269 0.6,0.6 v 1.8 c 0,0.331 -0.269,0.6 -0.6,0.6 h -4.8 c -0.331,0 -0.6,0.269 -0.6,0.6 v 4.8 c 0,0.331 -0.269,0.6 -0.6,0.6 z m 24,-3 h -4.8 c -0.331,0 -0.6,-0.269 -0.6,-0.6 v -1.8 c 0,-0.331 -0.269,-0.6 -0.6,-0.6 h -1.8 c -0.331,0 -0.6,-0.269 -0.6,-0.6 v -4.8 c 0,-0.331 0.269,-0.6 0.6,-0.6 h 1.8 c 0.331,0 0.6,0.269 0.6,0.6 v 1.8 c 0,0.331 0.269,0.6 0.6,0.6 h 1.8 c 0.331,0 0.6,-0.269 0.6,-0.6 v -1.8 c 0,-0.331 0.269,-0.6 0.6,-0.6 h 1.8 c 0.331,0 0.6,-0.269 0.6,-0.6 v -1.8 c 0,-0.3314 0.269,-0.6 0.6,-0.6 h 1.8 c 0.331,0 0.6,0.2686 0.6,0.6 v 4.8 c 0,0.331 -0.269,0.6 -0.6,0.6 h -1.8 c -0.331,0 -0.6,0.269 -0.6,0.6 v 4.8 c 0,0.331 -0.269,0.6 -0.6,0.6 z m -30,0 h -1.8 c -0.331,0 -0.6,-0.269 -0.6,-0.6 v -4.8 c 0,-0.331 -0.269,-0.6 -0.6,-0.6 h -1.8 c -0.3314,0 -0.6,-0.269 -0.6,-0.6 v -1.8 c 0,-0.331 0.2686,-0.6 0.6,-0.6 h 4.8 c 0.331,0 0.6,0.269 0.6,0.6 v 7.8 c 0,0.331 -0.269,0.6 -0.6,0.6 z m -72,0 h -1.8 c -0.3314,0 -0.6,-0.269 -0.6,-0.6 v -1.8 c 0,-0.331 0.2686,-0.6 0.6,-0.6 h 1.8 c 0.3314,0 0.6,0.269 0.6,0.6 v 1.8 c 0,0.331 -0.2686,0.6 -0.6,0.6 z m 51,-3 H 78.6 C 78.2686,108 78,107.731 78,107.4 V 99.6 C 78,99.2686 77.7314,99 77.4,99 H 75.6 C 75.2686,99 75,99.2686 75,99.6 v 1.8 c 0,0.331 -0.2686,0.6 -0.6,0.6 H 69.6 C 69.2686,102 69,101.731 69,101.4 V 99.6 C 69,99.2686 69.2686,99 69.6,99 h 1.8 C 71.7314,99 72,98.7314 72,98.4 V 96.6 C 72,96.2686 71.7314,96 71.4,96 H 69.6 C 69.2686,96 69,95.7314 69,95.4 V 93.6 C 69,93.2686 69.2686,93 69.6,93 h 4.8 C 74.7314,93 75,92.7314 75,92.4 V 90.6 C 75,90.2686 75.2686,90 75.6,90 h 1.8 c 0.3314,0 0.6,0.2686 0.6,0.6 v 1.8 c 0,0.3314 0.2686,0.6 0.6,0.6 h 1.8 C 80.7314,93 81,92.7314 81,92.4 V 90.6 C 81,90.2686 81.2686,90 81.6,90 h 1.8 C 83.7314,90 84,89.7314 84,89.4 V 84.6 C 84,84.2686 83.7314,84 83.4,84 H 81.6 C 81.2686,84 81,83.7314 81,83.4 V 81.6 C 81,81.2686 80.7314,81 80.4,81 H 78.6 C 78.2686,81 78,81.2686 78,81.6 v 1.8 C 78,83.7314 77.7314,84 77.4,84 H 75.6 C 75.2686,84 75,83.7314 75,83.4 V 81.6 C 75,81.2686 74.7314,81 74.4,81 H 72.6 C 72.2686,81 72,80.7314 72,80.4 V 78.6 C 72,78.2686 72.2686,78 72.6,78 h 1.8 C 74.7314,78 75,77.7314 75,77.4 V 75.6 C 75,75.2686 74.7314,75 74.4,75 H 69.6 C 69.2686,75 69,74.7314 69,74.4 V 66.6 C 69,66.2686 69.2686,66 69.6,66 h 1.8 C 71.7314,66 72,65.7314 72,65.4 V 63.6 C 72,63.2686 72.2686,63 72.6,63 h 7.8 C 80.7314,63 81,62.7314 81,62.4 V 57.6 C 81,57.2686 81.2686,57 81.6,57 h 1.8 c 0.3314,0 0.6,0.2686 0.6,0.6 v 1.8 c 0,0.3314 0.2686,0.6 0.6,0.6 h 7.8 C 92.7314,60 93,59.7314 93,59.4 V 54.6 C 93,54.2686 93.2686,54 93.6,54 h 1.8 c 0.3314,0 0.6,0.2686 0.6,0.6 v 1.8 c 0,0.3314 0.2686,0.6 0.6,0.6 h 1.8 c 0.3314,0 0.6,0.2686 0.6,0.6 v 4.8 C 99,62.7314 98.7314,63 98.4,63 H 96.6 C 96.2686,63 96,63.2686 96,63.6 v 1.8 C 96,65.7314 95.7314,66 95.4,66 H 93.6 C 93.2686,66 93,65.7314 93,65.4 V 63.6 C 93,63.2686 92.7314,63 92.4,63 H 90.6 C 90.2686,63 90,63.2686 90,63.6 v 4.8 C 90,68.7314 89.7314,69 89.4,69 H 87.6 C 87.2686,69 87,68.7314 87,68.4 V 66.6 C 87,66.2686 86.7314,66 86.4,66 H 81.6 C 81.2686,66 81,66.2686 81,66.6 v 4.8 C 81,71.7314 80.7314,72 80.4,72 H 78.6 C 78.2686,72 78,71.7314 78,71.4 V 66.6 C 78,66.2686 77.7314,66 77.4,66 H 75.6 C 75.2686,66 75,66.2686 75,66.6 v 1.8 C 75,68.7314 74.7314,69 74.4,69 H 72.6 C 72.2686,69 72,69.2686 72,69.6 v 1.8 c 0,0.3314 0.2686,0.6 0.6,0.6 h 4.8 c 0.3314,0 0.6,0.2686 0.6,0.6 v 4.8 c 0,0.3314 0.2686,0.6 0.6,0.6 h 1.8 C 80.7314,78 81,77.7314 81,77.4 V 72.6 C 81,72.2686 81.2686,72 81.6,72 h 1.8 c 0.3314,0 0.6,0.2686 0.6,0.6 v 1.8 c 0,0.3314 0.2686,0.6 0.6,0.6 h 1.8 c 0.3314,0 0.6,0.2686 0.6,0.6 v 1.8 C 87,77.7314 86.7314,78 86.4,78 H 84.6 C 84.2686,78 84,78.2686 84,78.6 v 1.8 c 0,0.3314 0.2686,0.6 0.6,0.6 h 1.8 C 86.7314,81 87,80.7314 87,80.4 V 78.6 C 87,78.2686 87.2686,78 87.6,78 h 4.8 C 92.7314,78 93,77.7314 93,77.4 V 75.6 C 93,75.2686 93.2686,75 93.6,75 h 1.8 c 0.3314,0 0.6,0.2686 0.6,0.6 v 1.8 c 0,0.3314 0.2686,0.6 0.6,0.6 h 1.8 c 0.3314,0 0.6,0.2686 0.6,0.6 v 1.8 C 99,80.7314 98.7314,81 98.4,81 H 90.6 C 90.2686,81 90,81.2686 90,81.6 v 1.8 c 0,0.3314 0.2686,0.6 0.6,0.6 h 13.8 c 0.331,0 0.6,-0.2686 0.6,-0.6 v -1.8 c 0,-0.3314 0.269,-0.6 0.6,-0.6 h 1.8 c 0.331,0 0.6,-0.2686 0.6,-0.6 v -1.8 c 0,-0.3314 0.269,-0.6 0.6,-0.6 h 7.8 c 0.331,0 0.6,0.2686 0.6,0.6 v 1.8 c 0,0.3314 -0.269,0.6 -0.6,0.6 h -1.8 c -0.331,0 -0.6,0.2686 -0.6,0.6 v 1.8 c 0,0.3314 0.269,0.6 0.6,0.6 h 4.8 c 0.331,0 0.6,0.2686 0.6,0.6 v 1.8 c 0,0.3314 0.269,0.6 0.6,0.6 h 4.8 c 0.331,0 0.6,-0.2686 0.6,-0.6 v -4.8 c 0,-0.3314 -0.269,-0.6 -0.6,-0.6 h -4.8 c -0.331,0 -0.6,-0.2686 -0.6,-0.6 v -1.8 c 0,-0.3314 -0.269,-0.6 -0.6,-0.6 h -1.8 c -0.331,0 -0.6,-0.2686 -0.6,-0.6 v -1.8 c 0,-0.3314 0.269,-0.6 0.6,-0.6 h 4.8 c 0.331,0 0.6,0.2686 0.6,0.6 v 1.8 c 0,0.3314 0.269,0.6 0.6,0.6 h 4.8 c 0.331,0 0.6,0.2686 0.6,0.6 v 10.8 c 0,0.3314 0.269,0.6 0.6,0.6 h 1.8 c 0.331,0 0.6,0.2686 0.6,0.6 v 4.8 c 0,0.3314 0.269,0.6 0.6,0.6 h 1.8 c 0.331,0 0.6,0.2686 0.6,0.6 v 1.8 c 0,0.3314 -0.269,0.6 -0.6,0.6 h -7.8 c -0.331,0 -0.6,-0.2686 -0.6,-0.6 v -1.8 c 0,-0.3314 0.269,-0.6 0.6,-0.6 h 1.8 c 0.331,0 0.6,-0.2686 0.6,-0.6 v -1.8 c 0,-0.3314 -0.269,-0.6 -0.6,-0.6 h -4.8 c -0.331,0 -0.6,0.2686 -0.6,0.6 v 1.8 c 0,0.3314 -0.269,0.6 -0.6,0.6 h -1.8 c -0.331,0 -0.6,0.2686 -0.6,0.6 v 4.8 c 0,0.331 -0.269,0.6 -0.6,0.6 h -1.8 c -0.331,0 -0.6,-0.269 -0.6,-0.6 v -1.8 c 0,-0.3314 -0.269,-0.6 -0.6,-0.6 h -1.8 c -0.331,0 -0.6,-0.2686 -0.6,-0.6 v -7.8 c 0,-0.3314 -0.269,-0.6 -0.6,-0.6 h -1.8 c -0.331,0 -0.6,-0.2686 -0.6,-0.6 v -4.8 c 0,-0.3314 -0.269,-0.6 -0.6,-0.6 h -1.8 c -0.331,0 -0.6,0.2686 -0.6,0.6 v 10.8 c 0,0.3314 -0.269,0.6 -0.6,0.6 h -4.8 c -0.331,0 -0.6,-0.2686 -0.6,-0.6 v -1.8 c 0,-0.3314 0.269,-0.6 0.6,-0.6 h 1.8 c 0.331,0 0.6,-0.2686 0.6,-0.6 v -4.8 c 0,-0.3314 -0.269,-0.6 -0.6,-0.6 h -1.8 c -0.331,0 -0.6,0.2686 -0.6,0.6 v 4.8 c 0,0.3314 -0.269,0.6 -0.6,0.6 H 99.6 C 99.2686,93 99,93.2686 99,93.6 v 4.8 C 99,98.7314 98.7314,99 98.4,99 H 96.6 C 96.2686,99 96,99.2686 96,99.6 v 1.8 c 0,0.331 -0.2686,0.6 -0.6,0.6 H 93.6 C 93.2686,102 93,101.731 93,101.4 V 99.6 C 93,99.2686 92.7314,99 92.4,99 H 84.6 C 84.2686,99 84,98.7314 84,98.4 V 96.6 C 84,96.2686 83.7314,96 83.4,96 H 81.6 C 81.2686,96 81,96.2686 81,96.6 v 7.8 c 0,0.331 0.2686,0.6 0.6,0.6 h 1.8 c 0.3314,0 0.6,0.269 0.6,0.6 v 1.8 c 0,0.331 -0.2686,0.6 -0.6,0.6 z m -15,0 h -1.8 c -0.3314,0 -0.6,-0.269 -0.6,-0.6 v -1.8 c 0,-0.331 0.2686,-0.6 0.6,-0.6 h 1.8 c 0.3314,0 0.6,0.269 0.6,0.6 v 1.8 c 0,0.331 -0.2686,0.6 -0.6,0.6 z m -15,0 h -1.8 c -0.3314,0 -0.6,-0.269 -0.6,-0.6 v -1.8 c 0,-0.331 0.2686,-0.6 0.6,-0.6 h 1.8 c 0.3314,0 0.6,0.269 0.6,0.6 v 1.8 c 0,0.331 -0.2686,0.6 -0.6,0.6 z m -12,0 h -1.8 c -0.3314,0 -0.6,-0.269 -0.6,-0.6 v -1.8 c 0,-0.331 0.2686,-0.6 0.6,-0.6 h 1.8 c 0.3314,0 0.6,0.269 0.6,0.6 v 1.8 c 0,0.331 -0.2686,0.6 -0.6,0.6 z m -6,0 h -1.8 c -0.3314,0 -0.6,-0.269 -0.6,-0.6 v -1.8 c 0,-0.331 -0.2686,-0.6 -0.6,-0.6 h -1.8 c -0.3314,0 -0.6,0.269 -0.6,0.6 v 1.8 c 0,0.331 -0.2686,0.6 -0.6,0.6 h -4.8 c -0.3314,0 -0.6,-0.269 -0.6,-0.6 v -4.8 c 0,-0.331 0.2686,-0.6 0.6,-0.6 h 1.8 c 0.3314,0 0.6,-0.269 0.6,-0.6 V 99.6 C 27,99.2686 26.7314,99 26.4,99 H 24.6 C 24.2686,99 24,98.7314 24,98.4 V 93.6 C 24,93.2686 23.7314,93 23.4,93 H 21.6 C 21.2686,93 21,92.7314 21,92.4 V 90.6 C 21,90.2686 21.2686,90 21.6,90 h 1.8 C 23.7314,90 24,89.7314 24,89.4 V 84.6 C 24,84.2686 23.7314,84 23.4,84 H 21.6 C 21.2686,84 21,83.7314 21,83.4 V 81.6 C 21,81.2686 21.2686,81 21.6,81 h 7.8 c 0.3314,0 0.6,0.2686 0.6,0.6 v 1.8 c 0,0.3314 0.2686,0.6 0.6,0.6 h 1.8 C 32.7314,84 33,83.7314 33,83.4 V 81.6 C 33,81.2686 32.7314,81 32.4,81 H 30.6 C 30.2686,81 30,80.7314 30,80.4 V 78.6 C 30,78.2686 30.2686,78 30.6,78 h 1.8 C 32.7314,78 33,77.7314 33,77.4 V 75.6 C 33,75.2686 33.2686,75 33.6,75 h 1.8 c 0.3314,0 0.6,0.2686 0.6,0.6 v 7.8 c 0,0.3314 0.2686,0.6 0.6,0.6 h 1.8 c 0.3314,0 0.6,0.2686 0.6,0.6 v 1.8 c 0,0.3314 0.2686,0.6 0.6,0.6 h 7.8 c 0.3314,0 0.6,0.2686 0.6,0.6 v 1.8 C 48,89.7314 47.7314,90 47.4,90 H 45.6 C 45.2686,90 45,90.2686 45,90.6 v 1.8 C 45,92.7314 44.7314,93 44.4,93 H 42.6 C 42.2686,93 42,92.7314 42,92.4 V 90.6 C 42,90.2686 41.7314,90 41.4,90 H 39.6 C 39.2686,90 39,90.2686 39,90.6 v 4.8 c 0,0.3314 0.2686,0.6 0.6,0.6 h 7.8 C 47.7314,96 48,95.7314 48,95.4 V 93.6 C 48,93.2686 48.2686,93 48.6,93 h 1.8 c 0.3314,0 0.6,0.2686 0.6,0.6 v 4.8 c 0,0.3314 0.2686,0.6 0.6,0.6 h 1.8 c 0.3314,0 0.6,0.2686 0.6,0.6 v 1.8 c 0,0.331 -0.2686,0.6 -0.6,0.6 H 48.6 C 48.2686,102 48,101.731 48,101.4 V 99.6 C 48,99.2686 47.7314,99 47.4,99 H 39.6 C 39.2686,99 39,99.2686 39,99.6 v 1.8 c 0,0.331 -0.2686,0.6 -0.6,0.6 H 36.6 C 36.2686,102 36,101.731 36,101.4 V 99.6 C 36,99.2686 35.7314,99 35.4,99 H 30.6 C 30.2686,99 30,99.2686 30,99.6 v 1.8 c 0,0.331 0.2686,0.6 0.6,0.6 h 4.8 c 0.3314,0 0.6,0.269 0.6,0.6 v 4.8 c 0,0.331 -0.2686,0.6 -0.6,0.6 z m -15,0 h -4.8 c -0.3314,0 -0.6,-0.269 -0.6,-0.6 v -1.8 c 0,-0.331 -0.2686,-0.6 -0.6,-0.6 h -1.8 c -0.3314,0 -0.6,-0.269 -0.6,-0.6 v -1.8 c 0,-0.331 0.2686,-0.6 0.6,-0.6 h 4.8 c 0.3314,0 0.6,0.269 0.6,0.6 v 1.8 c 0,0.331 0.2686,0.6 0.6,0.6 h 1.8 c 0.3314,0 0.6,0.269 0.6,0.6 v 1.8 c 0,0.331 -0.2686,0.6 -0.6,0.6 z m 102,-3 h -1.8 c -0.331,0 -0.6,-0.269 -0.6,-0.6 v -1.8 c 0,-0.331 0.269,-0.6 0.6,-0.6 h 1.8 c 0.331,0 0.6,0.269 0.6,0.6 v 1.8 c 0,0.331 -0.269,0.6 -0.6,0.6 z m -30,0 h -4.8 c -0.3314,0 -0.6,-0.269 -0.6,-0.6 v -1.8 c 0,-0.331 0.2686,-0.6 0.6,-0.6 h 4.8 c 0.3314,0 0.6,0.269 0.6,0.6 v 1.8 c 0,0.331 -0.2686,0.6 -0.6,0.6 z m -27,0 h -1.8 c -0.3314,0 -0.6,-0.269 -0.6,-0.6 v -1.8 c 0,-0.331 0.2686,-0.6 0.6,-0.6 h 1.8 c 0.3314,0 0.6,0.269 0.6,0.6 v 1.8 c 0,0.331 -0.2686,0.6 -0.6,0.6 z m -9,0 h -1.8 c -0.3314,0 -0.6,-0.269 -0.6,-0.6 v -1.8 c 0,-0.331 0.2686,-0.6 0.6,-0.6 h 1.8 c 0.3314,0 0.6,0.269 0.6,0.6 v 1.8 c 0,0.331 -0.2686,0.6 -0.6,0.6 z m 3,-3 H 57.6 C 57.2686,102 57,101.731 57,101.4 V 99.6 C 57,99.2686 57.2686,99 57.6,99 h 1.8 c 0.3314,0 0.6,0.2686 0.6,0.6 v 1.8 c 0,0.331 -0.2686,0.6 -0.6,0.6 z m -39,0 H 18.6 C 18.2686,102 18,101.731 18,101.4 V 96.6 C 18,96.2686 18.2686,96 18.6,96 h 1.8 c 0.3314,0 0.6,0.2686 0.6,0.6 v 4.8 c 0,0.331 -0.2686,0.6 -0.6,0.6 z m 150,-3 h -4.8 c -0.331,0 -0.6,-0.2686 -0.6,-0.6 v -7.8 c 0,-0.3314 0.269,-0.6 0.6,-0.6 h 1.8 c 0.331,0 0.6,-0.2686 0.6,-0.6 v -4.8 c 0,-0.3314 0.269,-0.6 0.6,-0.6 h 1.8 c 0.331,0 0.6,0.2686 0.6,0.6 v 7.8 c 0,0.3314 -0.269,0.6 -0.6,0.6 h -1.8 c -0.331,0 -0.6,0.2686 -0.6,0.6 v 1.8 c 0,0.3314 0.269,0.6 0.6,0.6 h 1.8 c 0.331,0 0.6,0.2686 0.6,0.6 v 1.8 c 0,0.3314 -0.269,0.6 -0.6,0.6 z m -60,0 h -1.8 c -0.331,0 -0.6,-0.2686 -0.6,-0.6 v -1.8 c 0,-0.3314 0.269,-0.6 0.6,-0.6 h 1.8 c 0.331,0 0.6,0.2686 0.6,0.6 v 1.8 c 0,0.3314 -0.269,0.6 -0.6,0.6 z m -42,0 H 66.6 C 66.2686,99 66,98.7314 66,98.4 V 96.6 C 66,96.2686 66.2686,96 66.6,96 h 1.8 c 0.3314,0 0.6,0.2686 0.6,0.6 v 1.8 c 0,0.3314 -0.2686,0.6 -0.6,0.6 z m -54,0 H 12.6 C 12.2686,99 12,98.7314 12,98.4 V 96.6 C 12,96.2686 12.2686,96 12.6,96 h 1.8 c 0.3314,0 0.6,0.2686 0.6,0.6 v 1.8 C 15,98.7314 14.7314,99 14.4,99 Z M 156,95.4 v -7.8 c 0,-0.3314 -0.269,-0.6 -0.6,-0.6 h -7.8 c -0.331,0 -0.6,0.2686 -0.6,0.6 v 7.8 c 0,0.3314 0.269,0.6 0.6,0.6 h 7.8 c 0.331,0 0.6,-0.2686 0.6,-0.6 z m -60,0 V 87.6 C 96,87.2686 95.7314,87 95.4,87 H 87.6 C 87.2686,87 87,87.2686 87,87.6 v 7.8 c 0,0.3314 0.2686,0.6 0.6,0.6 h 7.8 C 95.7314,96 96,95.7314 96,95.4 Z M 65.4,96 H 63.6 C 63.2686,96 63,95.7314 63,95.4 V 93.6 C 63,93.2686 62.7314,93 62.4,93 H 60.6 C 60.2686,93 60,93.2686 60,93.6 v 1.8 C 60,95.7314 59.7314,96 59.4,96 H 54.6 C 54.2686,96 54,95.7314 54,95.4 V 90.6 C 54,90.2686 54.2686,90 54.6,90 h 1.8 C 56.7314,90 57,89.7314 57,89.4 V 84.6 C 57,84.2686 57.2686,84 57.6,84 h 1.8 C 59.7314,84 60,83.7314 60,83.4 V 81.6 C 60,81.2686 60.2686,81 60.6,81 h 1.8 C 62.7314,81 63,80.7314 63,80.4 V 78.6 C 63,78.2686 63.2686,78 63.6,78 h 1.8 c 0.3314,0 0.6,0.2686 0.6,0.6 v 4.8 C 66,83.7314 65.7314,84 65.4,84 H 63.6 C 63.2686,84 63,84.2686 63,84.6 v 1.8 C 63,86.7314 62.7314,87 62.4,87 H 60.6 C 60.2686,87 60,87.2686 60,87.6 v 1.8 c 0,0.3314 0.2686,0.6 0.6,0.6 h 7.8 c 0.3314,0 0.6,0.2686 0.6,0.6 v 1.8 C 69,92.7314 68.7314,93 68.4,93 H 66.6 C 66.2686,93 66,93.2686 66,93.6 v 1.8 C 66,95.7314 65.7314,96 65.4,96 Z M 36,95.4 V 87.6 C 36,87.2686 35.7314,87 35.4,87 H 27.6 C 27.2686,87 27,87.2686 27,87.6 v 7.8 c 0,0.3314 0.2686,0.6 0.6,0.6 h 7.8 C 35.7314,96 36,95.7314 36,95.4 Z M 152.4,93 h -1.8 c -0.331,0 -0.6,-0.2686 -0.6,-0.6 v -1.8 c 0,-0.3314 0.269,-0.6 0.6,-0.6 h 1.8 c 0.331,0 0.6,0.2686 0.6,0.6 v 1.8 c 0,0.3314 -0.269,0.6 -0.6,0.6 z m -60,0 H 90.6 C 90.2686,93 90,92.7314 90,92.4 V 90.6 C 90,90.2686 90.2686,90 90.6,90 h 1.8 c 0.3314,0 0.6,0.2686 0.6,0.6 v 1.8 c 0,0.3314 -0.2686,0.6 -0.6,0.6 z m -60,0 H 30.6 C 30.2686,93 30,92.7314 30,92.4 V 90.6 C 30,90.2686 30.2686,90 30.6,90 h 1.8 c 0.3314,0 0.6,0.2686 0.6,0.6 v 1.8 c 0,0.3314 -0.2686,0.6 -0.6,0.6 z m -15,0 H 12.6 C 12.2686,93 12,92.7314 12,92.4 V 81.6 C 12,81.2686 12.2686,81 12.6,81 h 1.8 c 0.3314,0 0.6,0.2686 0.6,0.6 v 4.8 c 0,0.3314 0.2686,0.6 0.6,0.6 h 4.8 c 0.3314,0 0.6,0.2686 0.6,0.6 v 1.8 C 21,89.7314 20.7314,90 20.4,90 H 18.6 C 18.2686,90 18,90.2686 18,90.6 v 1.8 c 0,0.3314 -0.2686,0.6 -0.6,0.6 z m 123,-3 h -1.8 c -0.331,0 -0.6,-0.2686 -0.6,-0.6 v -1.8 c 0,-0.3314 0.269,-0.6 0.6,-0.6 h 1.8 c 0.331,0 0.6,0.2686 0.6,0.6 v 1.8 c 0,0.3314 -0.269,0.6 -0.6,0.6 z m -6,0 h -1.8 c -0.331,0 -0.6,-0.2686 -0.6,-0.6 v -7.8 c 0,-0.3314 0.269,-0.6 0.6,-0.6 h 7.8 c 0.331,0 0.6,0.2686 0.6,0.6 v 1.8 c 0,0.3314 -0.269,0.6 -0.6,0.6 h -4.8 c -0.331,0 -0.6,0.2686 -0.6,0.6 v 4.8 c 0,0.3314 -0.269,0.6 -0.6,0.6 z m -54,0 H 78.6 C 78.2686,90 78,89.7314 78,89.4 V 87.6 C 78,87.2686 78.2686,87 78.6,87 h 1.8 c 0.3314,0 0.6,0.2686 0.6,0.6 v 1.8 c 0,0.3314 -0.2686,0.6 -0.6,0.6 z m -6,0 H 72.6 C 72.2686,90 72,89.7314 72,89.4 V 87.6 C 72,87.2686 72.2686,87 72.6,87 h 1.8 c 0.3314,0 0.6,0.2686 0.6,0.6 v 1.8 c 0,0.3314 -0.2686,0.6 -0.6,0.6 z m 90,-6 h -1.8 c -0.331,0 -0.6,-0.2686 -0.6,-0.6 v -1.8 c 0,-0.3314 0.269,-0.6 0.6,-0.6 h 1.8 c 0.331,0 0.6,0.2686 0.6,0.6 v 1.8 c 0,0.3314 -0.269,0.6 -0.6,0.6 z m -93,0 H 69.6 C 69.2686,84 69,83.7314 69,83.4 V 81.6 C 69,81.2686 69.2686,81 69.6,81 h 1.8 c 0.3314,0 0.6,0.2686 0.6,0.6 v 1.8 c 0,0.3314 -0.2686,0.6 -0.6,0.6 z m -18,0 H 48.6 C 48.2686,84 48,83.7314 48,83.4 V 78.6 C 48,78.2686 48.2686,78 48.6,78 h 1.8 c 0.3314,0 0.6,0.2686 0.6,0.6 v 1.8 c 0,0.3314 0.2686,0.6 0.6,0.6 h 1.8 c 0.3314,0 0.6,0.2686 0.6,0.6 v 1.8 c 0,0.3314 -0.2686,0.6 -0.6,0.6 z m 117,-3 h -4.8 c -0.331,0 -0.6,-0.2686 -0.6,-0.6 v -1.8 c 0,-0.3314 -0.269,-0.6 -0.6,-0.6 h -4.8 c -0.331,0 -0.6,-0.2686 -0.6,-0.6 v -1.8 c 0,-0.3314 0.269,-0.6 0.6,-0.6 h 4.8 c 0.331,0 0.6,-0.2686 0.6,-0.6 v -1.8 c 0,-0.3314 0.269,-0.6 0.6,-0.6 h 1.8 c 0.331,0 0.6,0.2686 0.6,0.6 v 4.8 c 0,0.3314 0.269,0.6 0.6,0.6 h 1.8 c 0.331,0 0.6,0.2686 0.6,0.6 v 1.8 c 0,0.3314 -0.269,0.6 -0.6,0.6 z m -111,0 H 57.6 C 57.2686,81 57,80.7314 57,80.4 V 78.6 C 57,78.2686 57.2686,78 57.6,78 h 1.8 c 0.3314,0 0.6,0.2686 0.6,0.6 v 1.8 c 0,0.3314 -0.2686,0.6 -0.6,0.6 z m -39,0 H 18.6 C 18.2686,81 18,80.7314 18,80.4 V 78.6 C 18,78.2686 17.7314,78 17.4,78 H 12.6 C 12.2686,78 12,77.7314 12,77.4 V 75.6 C 12,75.2686 12.2686,75 12.6,75 h 1.8 C 14.7314,75 15,74.7314 15,74.4 V 72.6 C 15,72.2686 15.2686,72 15.6,72 h 4.8 C 20.7314,72 21,71.7314 21,71.4 V 69.6 C 21,69.2686 21.2686,69 21.6,69 h 1.8 C 23.7314,69 24,68.7314 24,68.4 V 63.6 C 24,63.2686 24.2686,63 24.6,63 h 4.8 c 0.3314,0 0.6,0.2686 0.6,0.6 v 1.8 c 0,0.3314 0.2686,0.6 0.6,0.6 h 1.8 c 0.3314,0 0.6,0.2686 0.6,0.6 v 1.8 C 33,68.7314 32.7314,69 32.4,69 H 30.6 C 30.2686,69 30,69.2686 30,69.6 v 1.8 C 30,71.7314 29.7314,72 29.4,72 H 24.6 C 24.2686,72 24,72.2686 24,72.6 v 4.8 C 24,77.7314 23.7314,78 23.4,78 H 21.6 C 21.2686,78 21,78.2686 21,78.6 v 1.8 c 0,0.3314 -0.2686,0.6 -0.6,0.6 z m 87,-3 h -4.8 c -0.331,0 -0.6,-0.2686 -0.6,-0.6 v -1.8 c 0,-0.3314 0.269,-0.6 0.6,-0.6 h 1.8 c 0.331,0 0.6,-0.2686 0.6,-0.6 v -4.8 c 0,-0.3314 0.269,-0.6 0.6,-0.6 h 4.8 c 0.331,0 0.6,0.2686 0.6,0.6 v 1.8 c 0,0.3314 -0.269,0.6 -0.6,0.6 h -1.8 c -0.331,0 -0.6,0.2686 -0.6,0.6 v 4.8 c 0,0.3314 -0.269,0.6 -0.6,0.6 z m -51,0 H 54.6 C 54.2686,78 54,77.7314 54,77.4 V 72.6 C 54,72.2686 54.2686,72 54.6,72 h 1.8 c 0.3314,0 0.6,0.2686 0.6,0.6 v 4.8 c 0,0.3314 -0.2686,0.6 -0.6,0.6 z m -9,0 H 45.6 C 45.2686,78 45,77.7314 45,77.4 V 75.6 C 45,75.2686 45.2686,75 45.6,75 h 1.8 c 0.3314,0 0.6,0.2686 0.6,0.6 v 1.8 c 0,0.3314 -0.2686,0.6 -0.6,0.6 z m -18,0 H 27.6 C 27.2686,78 27,77.7314 27,77.4 V 75.6 C 27,75.2686 27.2686,75 27.6,75 h 1.8 c 0.3314,0 0.6,0.2686 0.6,0.6 v 1.8 c 0,0.3314 -0.2686,0.6 -0.6,0.6 z m 84,-3 h -1.8 c -0.331,0 -0.6,-0.2686 -0.6,-0.6 v -1.8 c 0,-0.3314 0.269,-0.6 0.6,-0.6 h 1.8 c 0.331,0 0.6,0.2686 0.6,0.6 v 1.8 c 0,0.3314 -0.269,0.6 -0.6,0.6 z m -12,0 H 96.6 C 96.2686,75 96,74.7314 96,74.4 V 72.6 C 96,72.2686 95.7314,72 95.4,72 H 90.6 C 90.2686,72 90,71.7314 90,71.4 V 69.6 C 90,69.2686 90.2686,69 90.6,69 h 10.8 c 0.331,0 0.6,0.2686 0.6,0.6 v 4.8 c 0,0.3314 -0.269,0.6 -0.6,0.6 z m -36,0 H 63.6 C 63.2686,75 63,74.7314 63,74.4 V 69.6 C 63,69.2686 62.7314,69 62.4,69 H 54.6 C 54.2686,69 54,68.7314 54,68.4 V 66.6 C 54,66.2686 54.2686,66 54.6,66 h 4.8 C 59.7314,66 60,65.7314 60,65.4 V 63.6 C 60,63.2686 59.7314,63 59.4,63 H 57.6 C 57.2686,63 57,62.7314 57,62.4 V 60.6 C 57,60.2686 57.2686,60 57.6,60 h 1.8 C 59.7314,60 60,59.7314 60,59.4 V 57.6 C 60,57.2686 60.2686,57 60.6,57 h 1.8 c 0.3314,0 0.6,0.2686 0.6,0.6 v 4.8 c 0,0.3314 0.2686,0.6 0.6,0.6 h 1.8 c 0.3314,0 0.6,0.2686 0.6,0.6 v 10.8 c 0,0.3314 -0.2686,0.6 -0.6,0.6 z m -24,0 H 36.6 C 36.2686,75 36,74.7314 36,74.4 V 72.6 C 36,72.2686 35.7314,72 35.4,72 H 33.6 C 33.2686,72 33,71.7314 33,71.4 V 69.6 C 33,69.2686 33.2686,69 33.6,69 h 1.8 C 35.7314,69 36,68.7314 36,68.4 V 66.6 C 36,66.2686 35.7314,66 35.4,66 H 33.6 C 33.2686,66 33,65.7314 33,65.4 V 63.6 C 33,63.2686 32.7314,63 32.4,63 H 30.6 C 30.2686,63 30,62.7314 30,62.4 V 60.6 C 30,60.2686 30.2686,60 30.6,60 h 1.8 C 32.7314,60 33,59.7314 33,59.4 V 57.6 C 33,57.2686 32.7314,57 32.4,57 H 30.6 C 30.2686,57 30,56.7314 30,56.4 V 54.6 C 30,54.2686 30.2686,54 30.6,54 h 4.8 c 0.3314,0 0.6,0.2686 0.6,0.6 v 1.8 c 0,0.3314 0.2686,0.6 0.6,0.6 h 4.8 c 0.3314,0 0.6,0.2686 0.6,0.6 v 1.8 c 0,0.3314 0.2686,0.6 0.6,0.6 h 1.8 C 44.7314,60 45,59.7314 45,59.4 V 57.6 C 45,57.2686 45.2686,57 45.6,57 h 1.8 c 0.3314,0 0.6,0.2686 0.6,0.6 v 1.8 c 0,0.3314 0.2686,0.6 0.6,0.6 h 4.8 c 0.3314,0 0.6,0.2686 0.6,0.6 v 1.8 C 54,62.7314 53.7314,63 53.4,63 H 42.6 C 42.2686,63 42,63.2686 42,63.6 v 1.8 C 42,65.7314 41.7314,66 41.4,66 H 39.6 C 39.2686,66 39,66.2686 39,66.6 v 1.8 c 0,0.3314 0.2686,0.6 0.6,0.6 h 4.8 c 0.3314,0 0.6,0.2686 0.6,0.6 v 1.8 C 45,71.7314 44.7314,72 44.4,72 H 42.6 C 42.2686,72 42,72.2686 42,72.6 v 1.8 c 0,0.3314 -0.2686,0.6 -0.6,0.6 z m -9,0 H 30.6 C 30.2686,75 30,74.7314 30,74.4 V 72.6 C 30,72.2686 30.2686,72 30.6,72 h 1.8 c 0.3314,0 0.6,0.2686 0.6,0.6 v 1.8 c 0,0.3314 -0.2686,0.6 -0.6,0.6 z m 138,-3 h -1.8 c -0.331,0 -0.6,-0.2686 -0.6,-0.6 v -7.8 c 0,-0.3314 0.269,-0.6 0.6,-0.6 h 1.8 c 0.331,0 0.6,0.2686 0.6,0.6 v 7.8 c 0,0.3314 -0.269,0.6 -0.6,0.6 z m -6,0 h -1.8 c -0.331,0 -0.6,-0.2686 -0.6,-0.6 v -1.8 c 0,-0.3314 0.269,-0.6 0.6,-0.6 h 1.8 c 0.331,0 0.6,0.2686 0.6,0.6 v 1.8 c 0,0.3314 -0.269,0.6 -0.6,0.6 z m -33,0 h -4.8 c -0.331,0 -0.6,-0.2686 -0.6,-0.6 v -1.8 c 0,-0.3314 0.269,-0.6 0.6,-0.6 h 4.8 c 0.331,0 0.6,0.2686 0.6,0.6 v 1.8 c 0,0.3314 -0.269,0.6 -0.6,0.6 z m -9,0 h -4.8 c -0.331,0 -0.6,-0.2686 -0.6,-0.6 v -4.8 c 0,-0.3314 0.269,-0.6 0.6,-0.6 h 1.8 c 0.331,0 0.6,0.2686 0.6,0.6 v 1.8 c 0,0.3314 0.269,0.6 0.6,0.6 h 1.8 c 0.331,0 0.6,0.2686 0.6,0.6 v 1.8 c 0,0.3314 -0.269,0.6 -0.6,0.6 z m -69,0 H 48.6 C 48.2686,72 48,71.7314 48,71.4 V 69.6 C 48,69.2686 48.2686,69 48.6,69 h 4.8 c 0.3314,0 0.6,0.2686 0.6,0.6 v 1.8 c 0,0.3314 -0.2686,0.6 -0.6,0.6 z m 108,-3 h -1.8 c -0.331,0 -0.6,-0.2686 -0.6,-0.6 v -1.8 c 0,-0.3314 -0.269,-0.6 -0.6,-0.6 h -1.8 c -0.331,0 -0.6,-0.2686 -0.6,-0.6 v -7.8 c 0,-0.3314 0.269,-0.6 0.6,-0.6 h 1.8 c 0.331,0 0.6,0.2686 0.6,0.6 v 1.8 c 0,0.3314 0.269,0.6 0.6,0.6 h 4.8 c 0.331,0 0.6,0.2686 0.6,0.6 v 1.8 c 0,0.3314 -0.269,0.6 -0.6,0.6 h -1.8 c -0.331,0 -0.6,0.2686 -0.6,0.6 v 4.8 c 0,0.3314 -0.269,0.6 -0.6,0.6 z m -48,0 h -1.8 c -0.331,0 -0.6,-0.2686 -0.6,-0.6 v -4.8 c 0,-0.3314 0.269,-0.6 0.6,-0.6 h 1.8 c 0.331,0 0.6,0.2686 0.6,0.6 v 4.8 c 0,0.3314 -0.269,0.6 -0.6,0.6 z m 39,-3 h -1.8 c -0.331,0 -0.6,-0.2686 -0.6,-0.6 v -1.8 c 0,-0.3314 0.269,-0.6 0.6,-0.6 h 1.8 c 0.331,0 0.6,0.2686 0.6,0.6 v 1.8 c 0,0.3314 -0.269,0.6 -0.6,0.6 z m -18,0 h -7.8 c -0.331,0 -0.6,-0.2686 -0.6,-0.6 v -1.8 c 0,-0.3314 0.269,-0.6 0.6,-0.6 h 1.8 c 0.331,0 0.6,-0.2686 0.6,-0.6 v -1.8 c 0,-0.3314 -0.269,-0.6 -0.6,-0.6 h -4.8 c -0.331,0 -0.6,0.2686 -0.6,0.6 v 4.8 c 0,0.3314 -0.269,0.6 -0.6,0.6 h -1.8 c -0.331,0 -0.6,-0.2686 -0.6,-0.6 v -7.8 c 0,-0.3314 -0.269,-0.6 -0.6,-0.6 h -1.8 c -0.331,0 -0.6,0.2686 -0.6,0.6 v 4.8 c 0,0.3314 -0.269,0.6 -0.6,0.6 h -1.8 c -0.331,0 -0.6,-0.2686 -0.6,-0.6 v -4.8 c 0,-0.3314 -0.269,-0.6 -0.6,-0.6 h -1.8 c -0.331,0 -0.6,-0.2686 -0.6,-0.6 v -1.8 c 0,-0.3314 0.269,-0.6 0.6,-0.6 h 4.8 c 0.331,0 0.6,-0.2686 0.6,-0.6 v -4.8 c 0,-0.3314 0.269,-0.6 0.6,-0.6 h 1.8 c 0.331,0 0.6,0.2686 0.6,0.6 v 1.8 c 0,0.3314 0.269,0.6 0.6,0.6 h 4.8 c 0.331,0 0.6,0.2686 0.6,0.6 v 4.8 c 0,0.3314 0.269,0.6 0.6,0.6 h 7.8 c 0.331,0 0.6,0.2686 0.6,0.6 v 1.8 c 0,0.3314 -0.269,0.6 -0.6,0.6 h -1.8 c -0.331,0 -0.6,0.2686 -0.6,0.6 v 1.8 c 0,0.3314 0.269,0.6 0.6,0.6 h 1.8 c 0.331,0 0.6,0.2686 0.6,0.6 v 1.8 c 0,0.3314 -0.269,0.6 -0.6,0.6 z m -33,0 H 99.6 C 99.2686,66 99,65.7314 99,65.4 V 63.6 C 99,63.2686 99.2686,63 99.6,63 h 1.8 c 0.331,0 0.6,0.2686 0.6,0.6 v 1.8 c 0,0.3314 -0.269,0.6 -0.6,0.6 z m -81,0 H 12.6 C 12.2686,66 12,65.7314 12,65.4 V 63.6 C 12,63.2686 12.2686,63 12.6,63 h 1.8 C 14.7314,63 15,62.7314 15,62.4 V 57.6 C 15,57.2686 15.2686,57 15.6,57 h 1.8 C 17.7314,57 18,56.7314 18,56.4 V 48.6 C 18,48.2686 17.7314,48 17.4,48 H 12.6 C 12.2686,48 12,47.7314 12,47.4 V 42.6 C 12,42.2686 12.2686,42 12.6,42 h 4.8 C 17.7314,42 18,41.7314 18,41.4 V 36.6 C 18,36.2686 18.2686,36 18.6,36 h 4.8 c 0.3314,0 0.6,0.2686 0.6,0.6 v 1.8 c 0,0.3314 0.2686,0.6 0.6,0.6 h 1.8 C 26.7314,39 27,38.7314 27,38.4 V 36.6 C 27,36.2686 27.2686,36 27.6,36 h 7.8 c 0.3314,0 0.6,0.2686 0.6,0.6 v 1.8 c 0,0.3314 0.2686,0.6 0.6,0.6 h 1.8 C 38.7314,39 39,38.7314 39,38.4 V 36.6 C 39,36.2686 38.7314,36 38.4,36 H 36.6 C 36.2686,36 36,35.7314 36,35.4 V 30.6 C 36,30.2686 36.2686,30 36.6,30 h 1.8 c 0.3314,0 0.6,0.2686 0.6,0.6 v 1.8 c 0,0.3314 0.2686,0.6 0.6,0.6 h 1.8 C 41.7314,33 42,32.7314 42,32.4 V 30.6 C 42,30.2686 42.2686,30 42.6,30 h 1.8 c 0.3314,0 0.6,0.2686 0.6,0.6 v 4.8 C 45,35.7314 44.7314,36 44.4,36 H 42.6 C 42.2686,36 42,36.2686 42,36.6 v 4.8 c 0,0.3314 0.2686,0.6 0.6,0.6 h 1.8 c 0.3314,0 0.6,0.2686 0.6,0.6 v 1.8 C 45,44.7314 44.7314,45 44.4,45 H 42.6 C 42.2686,45 42,45.2686 42,45.6 v 7.8 C 42,53.7314 41.7314,54 41.4,54 H 36.6 C 36.2686,54 36,53.7314 36,53.4 V 48.6 C 36,48.2686 36.2686,48 36.6,48 h 1.8 C 38.7314,48 39,47.7314 39,47.4 V 42.6 C 39,42.2686 38.7314,42 38.4,42 H 36.6 C 36.2686,42 36,42.2686 36,42.6 v 1.8 C 36,44.7314 35.7314,45 35.4,45 H 30.6 C 30.2686,45 30,44.7314 30,44.4 V 42.6 C 30,42.2686 30.2686,42 30.6,42 h 1.8 C 32.7314,42 33,41.7314 33,41.4 V 39.6 C 33,39.2686 32.7314,39 32.4,39 H 30.6 C 30.2686,39 30,39.2686 30,39.6 v 1.8 C 30,41.7314 29.7314,42 29.4,42 H 21.6 C 21.2686,42 21,42.2686 21,42.6 v 7.8 c 0,0.3314 0.2686,0.6 0.6,0.6 h 1.8 C 23.7314,51 24,50.7314 24,50.4 V 48.6 C 24,48.2686 24.2686,48 24.6,48 h 1.8 c 0.3314,0 0.6,0.2686 0.6,0.6 v 4.8 C 27,53.7314 26.7314,54 26.4,54 H 21.6 C 21.2686,54 21,54.2686 21,54.6 v 10.8 c 0,0.3314 -0.2686,0.6 -0.6,0.6 z m 129,-3 h -1.8 c -0.331,0 -0.6,-0.2686 -0.6,-0.6 v -1.8 c 0,-0.3314 -0.269,-0.6 -0.6,-0.6 h -7.8 c -0.331,0 -0.6,-0.2686 -0.6,-0.6 v -4.8 c 0,-0.3314 0.269,-0.6 0.6,-0.6 h 1.8 c 0.331,0 0.6,-0.2686 0.6,-0.6 v -1.8 c 0,-0.3314 0.269,-0.6 0.6,-0.6 h 1.8 c 0.331,0 0.6,0.2686 0.6,0.6 v 1.8 c 0,0.3314 0.269,0.6 0.6,0.6 h 1.8 c 0.331,0 0.6,0.2686 0.6,0.6 v 1.8 c 0,0.3314 0.269,0.6 0.6,0.6 h 1.8 c 0.331,0 0.6,0.2686 0.6,0.6 v 4.8 c 0,0.3314 -0.269,0.6 -0.6,0.6 z m -39,0 h -1.8 c -0.331,0 -0.6,-0.2686 -0.6,-0.6 v -1.8 c 0,-0.3314 0.269,-0.6 0.6,-0.6 h 1.8 c 0.331,0 0.6,0.2686 0.6,0.6 v 1.8 c 0,0.3314 -0.269,0.6 -0.6,0.6 z m -39,0 H 69.6 C 69.2686,63 69,62.7314 69,62.4 V 60.6 C 69,60.2686 69.2686,60 69.6,60 h 1.8 c 0.3314,0 0.6,0.2686 0.6,0.6 v 1.8 c 0,0.3314 -0.2686,0.6 -0.6,0.6 z m 36,-3 h -4.8 c -0.331,0 -0.6,-0.2686 -0.6,-0.6 v -1.8 c 0,-0.3314 0.269,-0.6 0.6,-0.6 h 1.8 c 0.331,0 0.6,-0.2686 0.6,-0.6 v -4.8 c 0,-0.3314 0.269,-0.6 0.6,-0.6 h 4.8 c 0.331,0 0.6,0.2686 0.6,0.6 v 1.8 c 0,0.3314 -0.269,0.6 -0.6,0.6 h -1.8 c -0.331,0 -0.6,0.2686 -0.6,0.6 v 4.8 c 0,0.3314 -0.269,0.6 -0.6,0.6 z m -39,0 H 66.6 C 66.2686,60 66,59.7314 66,59.4 V 54.6 C 66,54.2686 65.7314,54 65.4,54 H 60.6 C 60.2686,54 60,54.2686 60,54.6 v 1.8 C 60,56.7314 59.7314,57 59.4,57 H 51.6 C 51.2686,57 51,56.7314 51,56.4 V 51.6 C 51,51.2686 51.2686,51 51.6,51 H 62.4 C 62.7314,51 63,50.7314 63,50.4 V 45.6 C 63,45.2686 62.7314,45 62.4,45 H 60.6 C 60.2686,45 60,44.7314 60,44.4 V 24.6 C 60,24.2686 60.2686,24 60.6,24 h 1.8 C 62.7314,24 63,23.7314 63,23.4 V 21.6 C 63,21.2686 63.2686,21 63.6,21 h 1.8 c 0.3314,0 0.6,0.2686 0.6,0.6 v 1.8 c 0,0.3314 0.2686,0.6 0.6,0.6 h 1.8 c 0.3314,0 0.6,0.2686 0.6,0.6 v 7.8 C 69,32.7314 68.7314,33 68.4,33 H 66.6 C 66.2686,33 66,32.7314 66,32.4 V 27.6 C 66,27.2686 65.7314,27 65.4,27 H 63.6 C 63.2686,27 63,27.2686 63,27.6 v 13.8 c 0,0.3314 0.2686,0.6 0.6,0.6 h 4.8 c 0.3314,0 0.6,0.2686 0.6,0.6 v 1.8 c 0,0.3314 0.2686,0.6 0.6,0.6 h 1.8 c 0.3314,0 0.6,0.2686 0.6,0.6 v 1.8 c 0,0.3314 0.2686,0.6 0.6,0.6 h 1.8 C 74.7314,48 75,47.7314 75,47.4 V 45.6 C 75,45.2686 75.2686,45 75.6,45 h 4.8 C 80.7314,45 81,44.7314 81,44.4 V 39.6 C 81,39.2686 80.7314,39 80.4,39 H 78.6 C 78.2686,39 78,38.7314 78,38.4 V 36.6 C 78,36.2686 78.2686,36 78.6,36 h 1.8 C 80.7314,36 81,35.7314 81,35.4 V 33.6 C 81,33.2686 81.2686,33 81.6,33 h 1.8 C 83.7314,33 84,32.7314 84,32.4 V 30.6 C 84,30.2686 83.7314,30 83.4,30 H 81.6 C 81.2686,30 81,30.2686 81,30.6 v 1.8 C 81,32.7314 80.7314,33 80.4,33 H 78.6 C 78.2686,33 78,32.7314 78,32.4 V 24.6 C 78,24.2686 78.2686,24 78.6,24 h 1.8 c 0.3314,0 0.6,0.2686 0.6,0.6 v 1.8 c 0,0.3314 0.2686,0.6 0.6,0.6 h 1.8 C 83.7314,27 84,26.7314 84,26.4 V 21.6 C 84,21.2686 84.2686,21 84.6,21 h 1.8 C 86.7314,21 87,20.7314 87,20.4 V 15.6 C 87,15.2686 87.2686,15 87.6,15 h 4.8 C 92.7314,15 93,14.7314 93,14.4 V 12.6 C 93,12.2686 93.2686,12 93.6,12 h 1.8 c 0.3314,0 0.6,0.2686 0.6,0.6 v 1.8 c 0,0.3314 0.2686,0.6 0.6,0.6 h 1.8 C 98.7314,15 99,14.7314 99,14.4 V 12.6 C 99,12.2686 99.2686,12 99.6,12 h 1.8 c 0.331,0 0.6,0.2686 0.6,0.6 v 4.8 c 0,0.3314 0.269,0.6 0.6,0.6 h 1.8 c 0.331,0 0.6,-0.2686 0.6,-0.6 v -1.8 c 0,-0.3314 0.269,-0.6 0.6,-0.6 h 1.8 c 0.331,0 0.6,0.2686 0.6,0.6 v 1.8 c 0,0.3314 0.269,0.6 0.6,0.6 h 1.8 c 0.331,0 0.6,0.2686 0.6,0.6 v 1.8 c 0,0.3314 -0.269,0.6 -0.6,0.6 h -1.8 c -0.331,0 -0.6,0.2686 -0.6,0.6 v 1.8 c 0,0.3314 0.269,0.6 0.6,0.6 h 1.8 c 0.331,0 0.6,0.2686 0.6,0.6 v 1.8 c 0,0.3314 0.269,0.6 0.6,0.6 h 4.8 c 0.331,0 0.6,0.2686 0.6,0.6 v 4.8 c 0,0.3314 -0.269,0.6 -0.6,0.6 h -1.8 c -0.331,0 -0.6,-0.2686 -0.6,-0.6 v -1.8 c 0,-0.3314 -0.269,-0.6 -0.6,-0.6 h -1.8 c -0.331,0 -0.6,0.2686 -0.6,0.6 v 4.8 c 0,0.3314 0.269,0.6 0.6,0.6 h 4.8 c 0.331,0 0.6,-0.2686 0.6,-0.6 v -1.8 c 0,-0.3314 0.269,-0.6 0.6,-0.6 h 1.8 c 0.331,0 0.6,0.2686 0.6,0.6 v 1.8 c 0,0.3314 0.269,0.6 0.6,0.6 h 1.8 c 0.331,0 0.6,-0.2686 0.6,-0.6 v -1.8 c 0,-0.3314 0.269,-0.6 0.6,-0.6 h 1.8 c 0.331,0 0.6,0.2686 0.6,0.6 v 1.8 c 0,0.3314 0.269,0.6 0.6,0.6 h 1.8 c 0.331,0 0.6,0.2686 0.6,0.6 v 1.8 c 0,0.3314 -0.269,0.6 -0.6,0.6 h -1.8 c -0.331,0 -0.6,0.2686 -0.6,0.6 v 4.8 c 0,0.3314 -0.269,0.6 -0.6,0.6 h -4.8 c -0.331,0 -0.6,-0.2686 -0.6,-0.6 v -1.8 c 0,-0.3314 0.269,-0.6 0.6,-0.6 h 1.8 c 0.331,0 0.6,-0.2686 0.6,-0.6 v -1.8 c 0,-0.3314 -0.269,-0.6 -0.6,-0.6 h -7.8 c -0.331,0 -0.6,0.2686 -0.6,0.6 v 4.8 c 0,0.3314 -0.269,0.6 -0.6,0.6 h -1.8 c -0.331,0 -0.6,-0.2686 -0.6,-0.6 v -1.8 c 0,-0.3314 -0.269,-0.6 -0.6,-0.6 h -1.8 C 108.269,42 108,41.7314 108,41.4 V 30.6 c 0,-0.3314 -0.269,-0.6 -0.6,-0.6 h -1.8 c -0.331,0 -0.6,-0.2686 -0.6,-0.6 v -1.8 c 0,-0.3314 -0.269,-0.6 -0.6,-0.6 h -1.8 c -0.331,0 -0.6,-0.2686 -0.6,-0.6 v -1.8 c 0,-0.3314 0.269,-0.6 0.6,-0.6 h 1.8 c 0.331,0 0.6,-0.2686 0.6,-0.6 V 21.6 C 105,21.2686 104.731,21 104.4,21 H 99.6 C 99.2686,21 99,20.7314 99,20.4 V 18.6 C 99,18.2686 98.7314,18 98.4,18 H 90.6 C 90.2686,18 90,18.2686 90,18.6 v 4.8 c 0,0.3314 0.2686,0.6 0.6,0.6 h 4.8 C 95.7314,24 96,23.7314 96,23.4 V 21.6 C 96,21.2686 96.2686,21 96.6,21 h 1.8 c 0.3314,0 0.6,0.2686 0.6,0.6 V 38.4 C 99,38.7314 98.7314,39 98.4,39 H 96.6 C 96.2686,39 96,39.2686 96,39.6 v 1.8 c 0,0.3314 0.2686,0.6 0.6,0.6 h 1.8 C 98.7314,42 99,41.7314 99,41.4 V 39.6 C 99,39.2686 99.2686,39 99.6,39 h 1.8 c 0.331,0 0.6,0.2686 0.6,0.6 v 4.8 c 0,0.3314 -0.269,0.6 -0.6,0.6 H 93.6 C 93.2686,45 93,44.7314 93,44.4 V 39.6 C 93,39.2686 92.7314,39 92.4,39 H 90.6 C 90.2686,39 90,39.2686 90,39.6 v 1.8 C 90,41.7314 89.7314,42 89.4,42 H 87.6 C 87.2686,42 87,41.7314 87,41.4 V 39.6 C 87,39.2686 86.7314,39 86.4,39 H 84.6 C 84.2686,39 84,39.2686 84,39.6 v 4.8 c 0,0.3314 0.2686,0.6 0.6,0.6 h 1.8 c 0.3314,0 0.6,0.2686 0.6,0.6 v 1.8 C 87,47.7314 86.7314,48 86.4,48 H 78.6 C 78.2686,48 78,48.2686 78,48.6 v 4.8 C 78,53.7314 77.7314,54 77.4,54 H 75.6 C 75.2686,54 75,53.7314 75,53.4 V 51.6 C 75,51.2686 74.7314,51 74.4,51 H 69.6 C 69.2686,51 69,51.2686 69,51.6 v 1.8 c 0,0.3314 0.2686,0.6 0.6,0.6 h 4.8 c 0.3314,0 0.6,0.2686 0.6,0.6 v 1.8 C 75,56.7314 74.7314,57 74.4,57 H 69.6 C 69.2686,57 69,57.2686 69,57.6 v 1.8 c 0,0.3314 -0.2686,0.6 -0.6,0.6 z m -42,0 H 24.6 C 24.2686,60 24,59.7314 24,59.4 V 57.6 C 24,57.2686 24.2686,57 24.6,57 h 1.8 c 0.3314,0 0.6,0.2686 0.6,0.6 v 1.8 c 0,0.3314 -0.2686,0.6 -0.6,0.6 z m 144,-3 h -1.8 c -0.331,0 -0.6,-0.2686 -0.6,-0.6 v -1.8 c 0,-0.3314 0.269,-0.6 0.6,-0.6 h 1.8 c 0.331,0 0.6,0.2686 0.6,0.6 v 1.8 c 0,0.3314 -0.269,0.6 -0.6,0.6 z m -69,0 H 99.6 C 99.2686,57 99,56.7314 99,56.4 V 51.6 C 99,51.2686 98.7314,51 98.4,51 H 96.6 C 96.2686,51 96,50.7314 96,50.4 V 48.6 C 96,48.2686 96.2686,48 96.6,48 h 7.8 c 0.331,0 0.6,0.2686 0.6,0.6 v 1.8 c 0,0.3314 -0.269,0.6 -0.6,0.6 h -1.8 c -0.331,0 -0.6,0.2686 -0.6,0.6 v 4.8 c 0,0.3314 -0.269,0.6 -0.6,0.6 z m -21,0 H 78.6 C 78.2686,57 78,56.7314 78,56.4 V 54.6 C 78,54.2686 78.2686,54 78.6,54 h 1.8 c 0.3314,0 0.6,0.2686 0.6,0.6 v 1.8 c 0,0.3314 -0.2686,0.6 -0.6,0.6 z m -36,0 H 42.6 C 42.2686,57 42,56.7314 42,56.4 V 54.6 C 42,54.2686 42.2686,54 42.6,54 h 1.8 c 0.3314,0 0.6,0.2686 0.6,0.6 v 1.8 c 0,0.3314 -0.2686,0.6 -0.6,0.6 z m -30,0 H 12.6 C 12.2686,57 12,56.7314 12,56.4 V 51.6 C 12,51.2686 12.2686,51 12.6,51 h 1.8 c 0.3314,0 0.6,0.2686 0.6,0.6 v 4.8 c 0,0.3314 -0.2686,0.6 -0.6,0.6 z m 153,-3 h -4.8 c -0.331,0 -0.6,-0.2686 -0.6,-0.6 v -4.8 c 0,-0.3314 0.269,-0.6 0.6,-0.6 h 4.8 c 0.331,0 0.6,-0.2686 0.6,-0.6 v -1.8 c 0,-0.3314 0.269,-0.6 0.6,-0.6 h 1.8 c 0.331,0 0.6,0.2686 0.6,0.6 v 4.8 c 0,0.3314 -0.269,0.6 -0.6,0.6 h -1.8 c -0.331,0 -0.6,0.2686 -0.6,0.6 v 1.8 c 0,0.3314 -0.269,0.6 -0.6,0.6 z m -18,0 h -1.8 c -0.331,0 -0.6,-0.2686 -0.6,-0.6 v -1.8 c 0,-0.3314 0.269,-0.6 0.6,-0.6 h 1.8 c 0.331,0 0.6,0.2686 0.6,0.6 v 1.8 c 0,0.3314 -0.269,0.6 -0.6,0.6 z m -57,0 H 90.6 C 90.2686,54 90,53.7314 90,53.4 V 51.6 C 90,51.2686 90.2686,51 90.6,51 h 1.8 c 0.3314,0 0.6,0.2686 0.6,0.6 v 1.8 c 0,0.3314 -0.2686,0.6 -0.6,0.6 z m -6,0 H 84.6 C 84.2686,54 84,53.7314 84,53.4 V 51.6 C 84,51.2686 84.2686,51 84.6,51 h 1.8 c 0.3314,0 0.6,0.2686 0.6,0.6 v 1.8 c 0,0.3314 -0.2686,0.6 -0.6,0.6 z m 72,-3 h -1.8 c -0.331,0 -0.6,-0.2686 -0.6,-0.6 v -1.8 c 0,-0.3314 0.269,-0.6 0.6,-0.6 h 1.8 c 0.331,0 0.6,0.2686 0.6,0.6 v 1.8 c 0,0.3314 -0.269,0.6 -0.6,0.6 z m -18,0 h -4.8 c -0.331,0 -0.6,-0.2686 -0.6,-0.6 v -1.8 c 0,-0.3314 0.269,-0.6 0.6,-0.6 h 1.8 c 0.331,0 0.6,-0.2686 0.6,-0.6 v -1.8 c 0,-0.3314 -0.269,-0.6 -0.6,-0.6 h -1.8 c -0.331,0 -0.6,-0.2686 -0.6,-0.6 v -4.8 c 0,-0.3314 -0.269,-0.6 -0.6,-0.6 h -1.8 c -0.331,0 -0.6,-0.2686 -0.6,-0.6 v -1.8 c 0,-0.3314 0.269,-0.6 0.6,-0.6 h 10.8 c 0.331,0 0.6,0.2686 0.6,0.6 v 1.8 c 0,0.3314 0.269,0.6 0.6,0.6 h 4.8 c 0.331,0 0.6,0.2686 0.6,0.6 v 1.8 c 0,0.3314 0.269,0.6 0.6,0.6 h 1.8 c 0.331,0 0.6,-0.2686 0.6,-0.6 v -1.8 c 0,-0.3314 0.269,-0.6 0.6,-0.6 h 1.8 c 0.331,0 0.6,0.2686 0.6,0.6 v 7.8 c 0,0.3314 -0.269,0.6 -0.6,0.6 h -4.8 c -0.331,0 -0.6,-0.2686 -0.6,-0.6 v -1.8 c 0,-0.3314 -0.269,-0.6 -0.6,-0.6 h -1.8 c -0.331,0 -0.6,-0.2686 -0.6,-0.6 v -1.8 c 0,-0.3314 -0.269,-0.6 -0.6,-0.6 h -4.8 c -0.331,0 -0.6,0.2686 -0.6,0.6 v 7.8 c 0,0.3314 -0.269,0.6 -0.6,0.6 z m -9,0 h -4.8 c -0.331,0 -0.6,-0.2686 -0.6,-0.6 v -4.8 c 0,-0.3314 0.269,-0.6 0.6,-0.6 h 1.8 c 0.331,0 0.6,0.2686 0.6,0.6 v 1.8 c 0,0.3314 0.269,0.6 0.6,0.6 h 1.8 c 0.331,0 0.6,0.2686 0.6,0.6 v 1.8 c 0,0.3314 -0.269,0.6 -0.6,0.6 z m -84,0 H 45.6 C 45.2686,51 45,50.7314 45,50.4 V 48.6 C 45,48.2686 45.2686,48 45.6,48 h 1.8 c 0.3314,0 0.6,0.2686 0.6,0.6 v 1.8 c 0,0.3314 -0.2686,0.6 -0.6,0.6 z m -15,0 H 30.6 C 30.2686,51 30,50.7314 30,50.4 V 48.6 C 30,48.2686 30.2686,48 30.6,48 h 1.8 c 0.3314,0 0.6,0.2686 0.6,0.6 v 1.8 c 0,0.3314 -0.2686,0.6 -0.6,0.6 z m 114,-3 h -1.8 c -0.331,0 -0.6,-0.2686 -0.6,-0.6 v -1.8 c 0,-0.3314 0.269,-0.6 0.6,-0.6 h 1.8 c 0.331,0 0.6,0.2686 0.6,0.6 v 1.8 c 0,0.3314 -0.269,0.6 -0.6,0.6 z m -30,0 h -1.8 c -0.331,0 -0.6,-0.2686 -0.6,-0.6 v -1.8 c 0,-0.3314 0.269,-0.6 0.6,-0.6 h 1.8 c 0.331,0 0.6,0.2686 0.6,0.6 v 1.8 c 0,0.3314 -0.269,0.6 -0.6,0.6 z m -63,0 H 48.6 C 48.2686,48 48,47.7314 48,47.4 V 42.6 C 48,42.2686 47.7314,42 47.4,42 H 45.6 C 45.2686,42 45,41.7314 45,41.4 V 39.6 C 45,39.2686 45.2686,39 45.6,39 h 1.8 C 47.7314,39 48,38.7314 48,38.4 V 36.6 C 48,36.2686 48.2686,36 48.6,36 h 1.8 C 50.7314,36 51,35.7314 51,35.4 V 33.6 C 51,33.2686 51.2686,33 51.6,33 h 1.8 c 0.3314,0 0.6,0.2686 0.6,0.6 v 1.8 c 0,0.3314 0.2686,0.6 0.6,0.6 h 1.8 c 0.3314,0 0.6,0.2686 0.6,0.6 v 1.8 C 57,38.7314 56.7314,39 56.4,39 H 51.6 C 51.2686,39 51,39.2686 51,39.6 v 1.8 c 0,0.3314 0.2686,0.6 0.6,0.6 h 1.8 c 0.3314,0 0.6,0.2686 0.6,0.6 v 4.8 c 0,0.3314 -0.2686,0.6 -0.6,0.6 z m 114,-3 h -1.8 c -0.331,0 -0.6,-0.2686 -0.6,-0.6 v -1.8 c 0,-0.3314 0.269,-0.6 0.6,-0.6 h 1.8 c 0.331,0 0.6,0.2686 0.6,0.6 v 1.8 c 0,0.3314 -0.269,0.6 -0.6,0.6 z m -6,0 h -1.8 c -0.331,0 -0.6,-0.2686 -0.6,-0.6 v -7.8 c 0,-0.3314 0.269,-0.6 0.6,-0.6 h 1.8 c 0.331,0 0.6,0.2686 0.6,0.6 v 1.8 c 0,0.3314 0.269,0.6 0.6,0.6 h 1.8 c 0.331,0 0.6,0.2686 0.6,0.6 v 1.8 c 0,0.3314 -0.269,0.6 -0.6,0.6 h -1.8 c -0.331,0 -0.6,0.2686 -0.6,0.6 v 1.8 c 0,0.3314 -0.269,0.6 -0.6,0.6 z m -54,0 h -1.8 c -0.331,0 -0.6,-0.2686 -0.6,-0.6 v -1.8 c 0,-0.3314 0.269,-0.6 0.6,-0.6 h 1.8 c 0.331,0 0.6,0.2686 0.6,0.6 v 1.8 c 0,0.3314 -0.269,0.6 -0.6,0.6 z m 63,-3 h -1.8 c -0.331,0 -0.6,-0.2686 -0.6,-0.6 v -1.8 c 0,-0.3314 -0.269,-0.6 -0.6,-0.6 h -1.8 c -0.331,0 -0.6,-0.2686 -0.6,-0.6 v -1.8 c 0,-0.3314 0.269,-0.6 0.6,-0.6 h 4.8 c 0.331,0 0.6,0.2686 0.6,0.6 v 4.8 c 0,0.3314 -0.269,0.6 -0.6,0.6 z m -96,0 H 69.6 C 69.2686,42 69,41.7314 69,41.4 V 33.6 C 69,33.2686 69.2686,33 69.6,33 h 1.8 c 0.3314,0 0.6,0.2686 0.6,0.6 v 1.8 c 0,0.3314 0.2686,0.6 0.6,0.6 h 1.8 c 0.3314,0 0.6,0.2686 0.6,0.6 v 4.8 c 0,0.3314 -0.2686,0.6 -0.6,0.6 z m 78,-3 h -1.8 c -0.331,0 -0.6,-0.2686 -0.6,-0.6 v -1.8 c 0,-0.3314 0.269,-0.6 0.6,-0.6 h 1.8 c 0.331,0 0.6,0.2686 0.6,0.6 v 1.8 c 0,0.3314 -0.269,0.6 -0.6,0.6 z m -48,0 h -1.8 c -0.331,0 -0.6,-0.2686 -0.6,-0.6 v -7.8 c 0,-0.3314 0.269,-0.6 0.6,-0.6 h 1.8 c 0.331,0 0.6,0.2686 0.6,0.6 v 7.8 c 0,0.3314 -0.269,0.6 -0.6,0.6 z m -90,0 H 12.6 C 12.2686,39 12,38.7314 12,38.4 V 36.6 C 12,36.2686 12.2686,36 12.6,36 h 1.8 c 0.3314,0 0.6,0.2686 0.6,0.6 v 1.8 c 0,0.3314 -0.2686,0.6 -0.6,0.6 z m 132,-3 h -1.8 c -0.331,0 -0.6,-0.2686 -0.6,-0.6 v -4.8 c 0,-0.3314 0.269,-0.6 0.6,-0.6 h 1.8 c 0.331,0 0.6,0.2686 0.6,0.6 v 4.8 c 0,0.3314 -0.269,0.6 -0.6,0.6 z m -15,0 h -1.8 c -0.331,0 -0.6,-0.2686 -0.6,-0.6 v -1.8 c 0,-0.3314 0.269,-0.6 0.6,-0.6 h 1.8 c 0.331,0 0.6,0.2686 0.6,0.6 v 1.8 c 0,0.3314 -0.269,0.6 -0.6,0.6 z M 96,35.4 V 27.6 C 96,27.2686 95.7314,27 95.4,27 H 87.6 C 87.2686,27 87,27.2686 87,27.6 v 7.8 c 0,0.3314 0.2686,0.6 0.6,0.6 h 7.8 C 95.7314,36 96,35.7314 96,35.4 Z M 77.4,36 H 75.6 C 75.2686,36 75,35.7314 75,35.4 V 33.6 C 75,33.2686 75.2686,33 75.6,33 h 1.8 c 0.3314,0 0.6,0.2686 0.6,0.6 v 1.8 c 0,0.3314 -0.2686,0.6 -0.6,0.6 z m 93,-3 H 150.6 C 150.269,33 150,32.7314 150,32.4 V 12.6 c 0,-0.3314 0.269,-0.6 0.6,-0.6 h 19.8 c 0.331,0 0.6,0.2686 0.6,0.6 v 19.8 c 0,0.3314 -0.269,0.6 -0.6,0.6 z m -30,0 h -1.8 c -0.331,0 -0.6,-0.2686 -0.6,-0.6 v -1.8 c 0,-0.3314 -0.269,-0.6 -0.6,-0.6 h -1.8 c -0.331,0 -0.6,0.2686 -0.6,0.6 v 1.8 c 0,0.3314 -0.269,0.6 -0.6,0.6 h -1.8 c -0.331,0 -0.6,-0.2686 -0.6,-0.6 v -4.8 c 0,-0.3314 0.269,-0.6 0.6,-0.6 h 1.8 c 0.331,0 0.6,-0.2686 0.6,-0.6 v -1.8 c 0,-0.3314 0.269,-0.6 0.6,-0.6 h 1.8 c 0.331,0 0.6,-0.2686 0.6,-0.6 v -1.8 c 0,-0.3314 0.269,-0.6 0.6,-0.6 h 1.8 c 0.331,0 0.6,0.2686 0.6,0.6 v 10.8 c 0,0.3314 -0.269,0.6 -0.6,0.6 z m -12,0 h -1.8 c -0.331,0 -0.6,-0.2686 -0.6,-0.6 v -1.8 c 0,-0.3314 -0.269,-0.6 -0.6,-0.6 h -1.8 c -0.331,0 -0.6,-0.2686 -0.6,-0.6 v -1.8 c 0,-0.3314 0.269,-0.6 0.6,-0.6 h 1.8 c 0.331,0 0.6,-0.2686 0.6,-0.6 v -4.8 c 0,-0.3314 0.269,-0.6 0.6,-0.6 h 1.8 c 0.331,0 0.6,-0.2686 0.6,-0.6 v -1.8 c 0,-0.3314 -0.269,-0.6 -0.6,-0.6 h -1.8 c -0.331,0 -0.6,-0.2686 -0.6,-0.6 v -1.8 c 0,-0.3314 -0.269,-0.6 -0.6,-0.6 h -1.8 c -0.331,0 -0.6,-0.2686 -0.6,-0.6 v -1.8 c 0,-0.3314 0.269,-0.6 0.6,-0.6 h 10.8 c 0.331,0 0.6,0.2686 0.6,0.6 v 7.8 c 0,0.3314 -0.269,0.6 -0.6,0.6 h -1.8 c -0.331,0 -0.6,0.2686 -0.6,0.6 v 4.8 c 0,0.3314 -0.269,0.6 -0.6,0.6 h -1.8 c -0.331,0 -0.6,0.2686 -0.6,0.6 v 4.8 c 0,0.3314 -0.269,0.6 -0.6,0.6 z m -6,0 h -1.8 c -0.331,0 -0.6,-0.2686 -0.6,-0.6 v -1.8 c 0,-0.3314 0.269,-0.6 0.6,-0.6 h 1.8 c 0.331,0 0.6,0.2686 0.6,0.6 v 1.8 c 0,0.3314 -0.269,0.6 -0.6,0.6 z m -30,0 H 90.6 C 90.2686,33 90,32.7314 90,32.4 V 30.6 C 90,30.2686 90.2686,30 90.6,30 h 1.8 c 0.3314,0 0.6,0.2686 0.6,0.6 v 1.8 c 0,0.3314 -0.2686,0.6 -0.6,0.6 z m -18,0 H 72.6 C 72.2686,33 72,32.7314 72,32.4 V 27.6 C 72,27.2686 72.2686,27 72.6,27 h 1.8 c 0.3314,0 0.6,0.2686 0.6,0.6 v 4.8 c 0,0.3314 -0.2686,0.6 -0.6,0.6 z m -18,0 H 54.6 C 54.2686,33 54,32.7314 54,32.4 V 30.6 C 54,30.2686 53.7314,30 53.4,30 H 51.6 C 51.2686,30 51,29.7314 51,29.4 V 27.6 C 51,27.2686 51.2686,27 51.6,27 h 1.8 C 53.7314,27 54,26.7314 54,26.4 V 18.6 C 54,18.2686 53.7314,18 53.4,18 H 51.6 C 51.2686,18 51,17.7314 51,17.4 V 15.6 C 51,15.2686 51.2686,15 51.6,15 h 1.8 C 53.7314,15 54,14.7314 54,14.4 V 12.6 C 54,12.2686 54.2686,12 54.6,12 h 13.8 c 0.3314,0 0.6,0.2686 0.6,0.6 v 1.8 c 0,0.3314 0.2686,0.6 0.6,0.6 h 1.8 C 71.7314,15 72,14.7314 72,14.4 V 12.6 C 72,12.2686 72.2686,12 72.6,12 h 1.8 c 0.3314,0 0.6,0.2686 0.6,0.6 v 1.8 c 0,0.3314 0.2686,0.6 0.6,0.6 h 4.8 c 0.3314,0 0.6,0.2686 0.6,0.6 v 1.8 C 81,17.7314 80.7314,18 80.4,18 H 72.6 C 72.2686,18 72,18.2686 72,18.6 v 1.8 c 0,0.3314 0.2686,0.6 0.6,0.6 h 4.8 c 0.3314,0 0.6,0.2686 0.6,0.6 v 1.8 C 78,23.7314 77.7314,24 77.4,24 H 69.6 C 69.2686,24 69,23.7314 69,23.4 V 21.6 C 69,21.2686 68.7314,21 68.4,21 H 66.6 C 66.2686,21 66,20.7314 66,20.4 V 15.6 C 66,15.2686 65.7314,15 65.4,15 H 57.6 C 57.2686,15 57,15.2686 57,15.6 v 1.8 c 0,0.3314 0.2686,0.6 0.6,0.6 h 1.8 c 0.3314,0 0.6,0.2686 0.6,0.6 v 4.8 C 60,23.7314 59.7314,24 59.4,24 H 57.6 C 57.2686,24 57,24.2686 57,24.6 v 7.8 c 0,0.3314 -0.2686,0.6 -0.6,0.6 z m -6,0 H 48.6 C 48.2686,33 48,32.7314 48,32.4 V 30.6 C 48,30.2686 48.2686,30 48.6,30 h 1.8 c 0.3314,0 0.6,0.2686 0.6,0.6 v 1.8 c 0,0.3314 -0.2686,0.6 -0.6,0.6 z m -18,0 H 12.6 C 12.2686,33 12,32.7314 12,32.4 V 12.6 C 12,12.2686 12.2686,12 12.6,12 h 19.8 c 0.3314,0 0.6,0.2686 0.6,0.6 V 32.4 C 33,32.7314 32.7314,33 32.4,33 Z M 168,29.4 V 15.6 c 0,-0.3314 -0.269,-0.6 -0.6,-0.6 h -13.8 c -0.331,0 -0.6,0.2686 -0.6,0.6 v 13.8 c 0,0.3314 0.269,0.6 0.6,0.6 h 13.8 c 0.331,0 0.6,-0.2686 0.6,-0.6 z m -138,0 V 15.6 C 30,15.2686 29.7314,15 29.4,15 H 15.6 C 15.2686,15 15,15.2686 15,15.6 v 13.8 c 0,0.3314 0.2686,0.6 0.6,0.6 H 29.4 C 29.7314,30 30,29.7314 30,29.4 Z M 164.4,27 h -7.8 c -0.331,0 -0.6,-0.2686 -0.6,-0.6 v -7.8 c 0,-0.3314 0.269,-0.6 0.6,-0.6 h 7.8 c 0.331,0 0.6,0.2686 0.6,0.6 v 7.8 c 0,0.3314 -0.269,0.6 -0.6,0.6 z m -114,0 H 39.6 C 39.2686,27 39,26.7314 39,26.4 V 24.6 C 39,24.2686 39.2686,24 39.6,24 h 1.8 C 41.7314,24 42,23.7314 42,23.4 V 21.6 C 42,21.2686 42.2686,21 42.6,21 h 1.8 c 0.3314,0 0.6,0.2686 0.6,0.6 v 1.8 c 0,0.3314 0.2686,0.6 0.6,0.6 h 4.8 c 0.3314,0 0.6,0.2686 0.6,0.6 v 1.8 c 0,0.3314 -0.2686,0.6 -0.6,0.6 z m -24,0 H 18.6 C 18.2686,27 18,26.7314 18,26.4 V 18.6 C 18,18.2686 18.2686,18 18.6,18 h 7.8 c 0.3314,0 0.6,0.2686 0.6,0.6 v 7.8 c 0,0.3314 -0.2686,0.6 -0.6,0.6 z m 120,-3 h -1.8 c -0.331,0 -0.6,-0.2686 -0.6,-0.6 v -1.8 c 0,-0.3314 0.269,-0.6 0.6,-0.6 h 1.8 c 0.331,0 0.6,0.2686 0.6,0.6 v 1.8 c 0,0.3314 -0.269,0.6 -0.6,0.6 z m -24,0 h -1.8 c -0.331,0 -0.6,-0.2686 -0.6,-0.6 v -1.8 c 0,-0.3314 0.269,-0.6 0.6,-0.6 h 1.8 c 0.331,0 0.6,0.2686 0.6,0.6 v 1.8 c 0,0.3314 -0.269,0.6 -0.6,0.6 z m -84,0 H 36.6 C 36.2686,24 36,23.7314 36,23.4 V 21.6 C 36,21.2686 36.2686,21 36.6,21 h 1.8 c 0.3314,0 0.6,0.2686 0.6,0.6 v 1.8 c 0,0.3314 -0.2686,0.6 -0.6,0.6 z m 105,-3 h -1.8 c -0.331,0 -0.6,-0.2686 -0.6,-0.6 v -1.8 c 0,-0.3314 -0.269,-0.6 -0.6,-0.6 h -1.8 c -0.331,0 -0.6,-0.2686 -0.6,-0.6 v -4.8 c 0,-0.3314 0.269,-0.6 0.6,-0.6 h 1.8 c 0.331,0 0.6,0.2686 0.6,0.6 v 1.8 c 0,0.3314 0.269,0.6 0.6,0.6 h 1.8 c 0.331,0 0.6,0.2686 0.6,0.6 v 4.8 c 0,0.3314 -0.269,0.6 -0.6,0.6 z m -18,0 h -1.8 c -0.331,0 -0.6,-0.2686 -0.6,-0.6 v -1.8 c 0,-0.3314 0.269,-0.6 0.6,-0.6 h 1.8 c 0.331,0 0.6,0.2686 0.6,0.6 v 1.8 c 0,0.3314 -0.269,0.6 -0.6,0.6 z m -6,0 h -4.8 c -0.331,0 -0.6,-0.2686 -0.6,-0.6 v -1.8 c 0,-0.3314 -0.269,-0.6 -0.6,-0.6 h -1.8 c -0.331,0 -0.6,-0.2686 -0.6,-0.6 v -1.8 c 0,-0.3314 0.269,-0.6 0.6,-0.6 h 4.8 c 0.331,0 0.6,0.2686 0.6,0.6 v 1.8 c 0,0.3314 0.269,0.6 0.6,0.6 h 1.8 c 0.331,0 0.6,0.2686 0.6,0.6 v 1.8 c 0,0.3314 -0.269,0.6 -0.6,0.6 z m -69,0 H 48.6 C 48.2686,21 48,20.7314 48,20.4 V 18.6 C 48,18.2686 48.2686,18 48.6,18 h 1.8 c 0.3314,0 0.6,0.2686 0.6,0.6 v 1.8 c 0,0.3314 -0.2686,0.6 -0.6,0.6 z m 72,-3 h -1.8 c -0.331,0 -0.6,-0.2686 -0.6,-0.6 v -1.8 c 0,-0.3314 0.269,-0.6 0.6,-0.6 h 1.8 c 0.331,0 0.6,0.2686 0.6,0.6 v 1.8 c 0,0.3314 -0.269,0.6 -0.6,0.6 z m -78,0 H 36.6 C 36.2686,18 36,17.7314 36,17.4 V 12.6 C 36,12.2686 36.2686,12 36.6,12 h 7.8 c 0.3314,0 0.6,0.2686 0.6,0.6 v 4.8 c 0,0.3314 -0.2686,0.6 -0.6,0.6 z m 75,-3 h -1.8 c -0.331,0 -0.6,-0.2686 -0.6,-0.6 v -1.8 c 0,-0.3314 0.269,-0.6 0.6,-0.6 h 1.8 c 0.331,0 0.6,0.2686 0.6,0.6 v 1.8 c 0,0.3314 -0.269,0.6 -0.6,0.6 z m -9,0 h -1.8 c -0.331,0 -0.6,-0.2686 -0.6,-0.6 v -1.8 c 0,-0.3314 0.269,-0.6 0.6,-0.6 h 1.8 c 0.331,0 0.6,0.2686 0.6,0.6 v 1.8 c 0,0.3314 -0.269,0.6 -0.6,0.6 z m -24,0 H 84.6 C 84.2686,15 84,14.7314 84,14.4 V 12.6 C 84,12.2686 84.2686,12 84.6,12 h 1.8 c 0.3314,0 0.6,0.2686 0.6,0.6 v 1.8 c 0,0.3314 -0.2686,0.6 -0.6,0.6 z m -36,0 H 48.6 C 48.2686,15 48,14.7314 48,14.4 V 12.6 C 48,12.2686 48.2686,12 48.6,12 h 1.8 c 0.3314,0 0.6,0.2686 0.6,0.6 v 1.8 c 0,0.3314 -0.2686,0.6 -0.6,0.6 z"
           id="path2" />
      </g>
    </g>
  </g>
</svg>
