<?xml version="1.0" encoding="UTF-8" standalone="no"?>
<!-- Created with Inkscape (http://www.inkscape.org/) -->

<svg
   width="100"
   height="100"
   viewBox="0 0 100 100"
   version="1.1"
   id="svg1"
   inkscape:version="1.3.1 (9b9bdc1480, 2023-11-25, custom)"
   sodipodi:docname="e.svg"
   xmlns:inkscape="http://www.inkscape.org/namespaces/inkscape"
   xmlns:sodipodi="http://sodipodi.sourceforge.net/DTD/sodipodi-0.dtd"
   xmlns="http://www.w3.org/2000/svg"
   xmlns:svg="http://www.w3.org/2000/svg">
  <sodipodi:namedview
     id="namedview1"
     pagecolor="#ffffff"
     bordercolor="#cccccc"
     borderopacity="1"
     inkscape:showpageshadow="0"
     inkscape:pageopacity="1"
     inkscape:pagecheckerboard="0"
     inkscape:deskcolor="#d1d1d1"
     inkscape:document-units="px"
     inkscape:zoom="4.1587323"
     inkscape:cx="47.370205"
     inkscape:cy="41.358758"
     inkscape:window-width="1304"
     inkscape:window-height="704"
     inkscape:window-x="0"
     inkscape:window-y="0"
     inkscape:window-maximized="1"
     inkscape:current-layer="layer1" />
  <defs
     id="defs1" />
  <g
     inkscape:label="Layer 1"
     inkscape:groupmode="layer"
     id="layer1">
    <g
       style="fill:#000000;stroke:none"
       id="g17"
       transform="scale(0.54644808)">
      <path
         d="m 12,12 h 3 v 3 h -3 z m 3,0 h 3 v 3 h -3 z m 3,0 h 3 v 3 h -3 z m 3,0 h 3 v 3 h -3 z m 3,0 h 3 v 3 h -3 z m 3,0 h 3 v 3 h -3 z m 3,0 h 3 v 3 h -3 z m 6,0 h 3 v 3 h -3 z m 9,0 h 3 v 3 h -3 z m 3,0 h 3 v 3 h -3 z m 9,0 h 3 v 3 h -3 z m 3,0 h 3 v 3 h -3 z m 9,0 h 3 v 3 h -3 z m 3,0 h 3 v 3 h -3 z m 3,0 h 3 v 3 h -3 z m 6,0 h 3 v 3 h -3 z m 6,0 h 3 v 3 h -3 z m 3,0 h 3 v 3 h -3 z m 12,0 h 3 v 3 h -3 z m 3,0 h 3 v 3 h -3 z m 6,0 h 3 v 3 h -3 z m 6,0 h 3 v 3 h -3 z m 3,0 h 3 v 3 h -3 z m 15,0 h 3 v 3 h -3 z m 3,0 h 3 v 3 h -3 z m 12,0 h 3 v 3 h -3 z m 3,0 h 3 v 3 h -3 z m 3,0 h 3 v 3 h -3 z m 3,0 h 3 v 3 h -3 z m 3,0 h 3 v 3 h -3 z m 3,0 h 3 v 3 h -3 z m 3,0 h 3 v 3 h -3 z M 12,15 h 3 v 3 h -3 z m 18,0 h 3 v 3 h -3 z m 6,0 h 3 v 3 h -3 z m 3,0 h 3 v 3 h -3 z m 6,0 h 3 v 3 h -3 z m 3,0 h 3 v 3 h -3 z m 3,0 h 3 v 3 h -3 z m 3,0 h 3 v 3 h -3 z m 9,0 h 3 v 3 h -3 z m 12,0 h 3 v 3 h -3 z m 3,0 h 3 v 3 h -3 z m 3,0 h 3 v 3 h -3 z m 3,0 h 3 v 3 h -3 z m 24,0 h 3 v 3 h -3 z m 6,0 h 3 v 3 h -3 z m 6,0 h 3 v 3 h -3 z m 3,0 h 3 v 3 h -3 z m 3,0 h 3 v 3 h -3 z m 9,0 h 3 v 3 h -3 z m 3,0 h 3 v 3 h -3 z m 3,0 h 3 v 3 h -3 z m 9,0 h 3 v 3 h -3 z m 18,0 h 3 v 3 h -3 z M 12,18 h 3 v 3 h -3 z m 6,0 h 3 v 3 h -3 z m 3,0 h 3 v 3 h -3 z m 3,0 h 3 v 3 h -3 z m 6,0 h 3 v 3 h -3 z m 9,0 h 3 v 3 h -3 z m 3,0 h 3 v 3 h -3 z m 3,0 h 3 v 3 h -3 z m 3,0 h 3 v 3 h -3 z m 3,0 h 3 v 3 h -3 z m 12,0 h 3 v 3 h -3 z m 9,0 h 3 v 3 h -3 z m 9,0 h 3 v 3 h -3 z m 3,0 h 3 v 3 h -3 z m 6,0 h 3 v 3 h -3 z m 3,0 h 3 v 3 h -3 z m 3,0 h 3 v 3 h -3 z m 9,0 h 3 v 3 h -3 z m 6,0 h 3 v 3 h -3 z m 21,0 h 3 v 3 h -3 z m 3,0 h 3 v 3 h -3 z m 6,0 h 3 v 3 h -3 z m 9,0 h 3 v 3 h -3 z m 6,0 h 3 v 3 h -3 z m 3,0 h 3 v 3 h -3 z m 3,0 h 3 v 3 h -3 z m 6,0 h 3 v 3 h -3 z M 12,21 h 3 v 3 h -3 z m 6,0 h 3 v 3 h -3 z m 3,0 h 3 v 3 h -3 z m 3,0 h 3 v 3 h -3 z m 6,0 h 3 v 3 h -3 z m 6,0 h 3 v 3 h -3 z m 21,0 h 3 v 3 h -3 z m 3,0 h 3 v 3 h -3 z m 12,0 h 3 v 3 h -3 z m 6,0 h 3 v 3 h -3 z m 3,0 h 3 v 3 h -3 z m 3,0 h 3 v 3 h -3 z m 9,0 h 3 v 3 h -3 z m 6,0 h 3 v 3 h -3 z m 3,0 h 3 v 3 h -3 z m 9,0 h 3 v 3 h -3 z m 3,0 h 3 v 3 h -3 z m 3,0 h 3 v 3 h -3 z m 15,0 h 3 v 3 h -3 z m 3,0 h 3 v 3 h -3 z m 3,0 h 3 v 3 h -3 z m 6,0 h 3 v 3 h -3 z m 6,0 h 3 v 3 h -3 z m 6,0 h 3 v 3 h -3 z m 3,0 h 3 v 3 h -3 z m 3,0 h 3 v 3 h -3 z m 6,0 h 3 v 3 h -3 z M 12,24 h 3 v 3 h -3 z m 6,0 h 3 v 3 h -3 z m 3,0 h 3 v 3 h -3 z m 3,0 h 3 v 3 h -3 z m 6,0 h 3 v 3 h -3 z m 9,0 h 3 v 3 h -3 z m 15,0 h 3 v 3 h -3 z m 6,0 h 3 v 3 h -3 z m 21,0 h 3 v 3 h -3 z m 3,0 h 3 v 3 h -3 z m 3,0 h 3 v 3 h -3 z m 3,0 h 3 v 3 h -3 z m 3,0 h 3 v 3 h -3 z m 3,0 h 3 v 3 h -3 z m 3,0 h 3 v 3 h -3 z m 6,0 h 3 v 3 h -3 z m 6,0 h 3 v 3 h -3 z m 3,0 h 3 v 3 h -3 z m 3,0 h 3 v 3 h -3 z m 3,0 h 3 v 3 h -3 z m 3,0 h 3 v 3 h -3 z m 3,0 h 3 v 3 h -3 z m 6,0 h 3 v 3 h -3 z m 3,0 h 3 v 3 h -3 z m 3,0 h 3 v 3 h -3 z m 12,0 h 3 v 3 h -3 z m 6,0 h 3 v 3 h -3 z m 3,0 h 3 v 3 h -3 z m 3,0 h 3 v 3 h -3 z m 6,0 h 3 v 3 h -3 z M 12,27 h 3 v 3 h -3 z m 18,0 h 3 v 3 h -3 z m 9,0 h 3 v 3 h -3 z m 3,0 h 3 v 3 h -3 z m 3,0 h 3 v 3 h -3 z m 3,0 h 3 v 3 h -3 z m 3,0 h 3 v 3 h -3 z m 9,0 h 3 v 3 h -3 z m 3,0 h 3 v 3 h -3 z m 3,0 h 3 v 3 h -3 z m 3,0 h 3 v 3 h -3 z m 6,0 h 3 v 3 h -3 z m 9,0 h 3 v 3 h -3 z m 12,0 h 3 v 3 h -3 z m 3,0 h 3 v 3 h -3 z m 9,0 h 3 v 3 h -3 z m 6,0 h 3 v 3 h -3 z m 3,0 h 3 v 3 h -3 z m 3,0 h 3 v 3 h -3 z m 3,0 h 3 v 3 h -3 z m 3,0 h 3 v 3 h -3 z m 3,0 h 3 v 3 h -3 z m 9,0 h 3 v 3 h -3 z m 12,0 h 3 v 3 h -3 z m 18,0 h 3 v 3 h -3 z M 12,30 h 3 v 3 h -3 z m 3,0 h 3 v 3 h -3 z m 3,0 h 3 v 3 h -3 z m 3,0 h 3 v 3 h -3 z m 3,0 h 3 v 3 h -3 z m 3,0 h 3 v 3 h -3 z m 3,0 h 3 v 3 h -3 z m 6,0 h 3 v 3 h -3 z m 6,0 h 3 v 3 h -3 z m 6,0 h 3 v 3 h -3 z m 6,0 h 3 v 3 h -3 z m 6,0 h 3 v 3 h -3 z m 6,0 h 3 v 3 h -3 z m 6,0 h 3 v 3 h -3 z m 6,0 h 3 v 3 h -3 z m 6,0 h 3 v 3 h -3 z m 6,0 h 3 v 3 h -3 z m 6,0 h 3 v 3 h -3 z m 6,0 h 3 v 3 h -3 z m 6,0 h 3 v 3 h -3 z m 6,0 h 3 v 3 h -3 z m 6,0 h 3 v 3 h -3 z m 6,0 h 3 v 3 h -3 z m 6,0 h 3 v 3 h -3 z m 6,0 h 3 v 3 h -3 z m 6,0 h 3 v 3 h -3 z m 6,0 h 3 v 3 h -3 z m 3,0 h 3 v 3 h -3 z m 3,0 h 3 v 3 h -3 z m 3,0 h 3 v 3 h -3 z m 3,0 h 3 v 3 h -3 z m 3,0 h 3 v 3 h -3 z m 3,0 h 3 v 3 h -3 z M 36,33 h 3 v 3 h -3 z m 3,0 h 3 v 3 h -3 z m 6,0 h 3 v 3 h -3 z m 3,0 h 3 v 3 h -3 z m 3,0 h 3 v 3 h -3 z m 6,0 h 3 v 3 h -3 z m 3,0 h 3 v 3 h -3 z m 6,0 h 3 v 3 h -3 z m 12,0 h 3 v 3 h -3 z m 6,0 h 3 v 3 h -3 z m 12,0 h 3 v 3 h -3 z m 3,0 h 3 v 3 h -3 z m 6,0 h 3 v 3 h -3 z m 3,0 h 3 v 3 h -3 z m 3,0 h 3 v 3 h -3 z m 3,0 h 3 v 3 h -3 z m 12,0 h 3 v 3 h -3 z m 15,0 h 3 v 3 h -3 z M 12,36 h 3 v 3 h -3 z m 6,0 h 3 v 3 h -3 z m 3,0 h 3 v 3 h -3 z m 6,0 h 3 v 3 h -3 z m 3,0 h 3 v 3 h -3 z m 3,0 h 3 v 3 h -3 z m 6,0 h 3 v 3 h -3 z m 3,0 h 3 v 3 h -3 z m 6,0 h 3 v 3 h -3 z m 3,0 h 3 v 3 h -3 z m 6,0 h 3 v 3 h -3 z m 3,0 h 3 v 3 h -3 z m 6,0 h 3 v 3 h -3 z m 3,0 h 3 v 3 h -3 z m 3,0 h 3 v 3 h -3 z m 3,0 h 3 v 3 h -3 z m 9,0 h 3 v 3 h -3 z m 3,0 h 3 v 3 h -3 z m 3,0 h 3 v 3 h -3 z m 3,0 h 3 v 3 h -3 z m 3,0 h 3 v 3 h -3 z m 3,0 h 3 v 3 h -3 z m 6,0 h 3 v 3 h -3 z m 24,0 h 3 v 3 h -3 z m 6,0 h 3 v 3 h -3 z m 3,0 h 3 v 3 h -3 z m 12,0 h 3 v 3 h -3 z m 9,0 h 3 v 3 h -3 z m 6,0 h 3 v 3 h -3 z m 3,0 h 3 v 3 h -3 z M 18,39 h 3 v 3 h -3 z m 9,0 h 3 v 3 h -3 z m 24,0 h 3 v 3 h -3 z m 3,0 h 3 v 3 h -3 z m 18,0 h 3 v 3 h -3 z m 3,0 h 3 v 3 h -3 z m 9,0 h 3 v 3 h -3 z m 3,0 h 3 v 3 h -3 z m 3,0 h 3 v 3 h -3 z m 12,0 h 3 v 3 h -3 z m 3,0 h 3 v 3 h -3 z m 9,0 h 3 v 3 h -3 z m 3,0 h 3 v 3 h -3 z m 3,0 h 3 v 3 h -3 z m 9,0 h 3 v 3 h -3 z m 3,0 h 3 v 3 h -3 z m 3,0 h 3 v 3 h -3 z m 3,0 h 3 v 3 h -3 z m 9,0 h 3 v 3 h -3 z m 6,0 h 3 v 3 h -3 z m 6,0 h 3 v 3 h -3 z m 3,0 h 3 v 3 h -3 z m 6,0 h 3 v 3 h -3 z M 15,42 h 3 v 3 h -3 z m 6,0 h 3 v 3 h -3 z m 6,0 h 3 v 3 h -3 z m 3,0 h 3 v 3 h -3 z m 15,0 h 3 v 3 h -3 z m 9,0 h 3 v 3 h -3 z m 18,0 h 3 v 3 h -3 z m 3,0 h 3 v 3 h -3 z m 3,0 h 3 v 3 h -3 z m 30,0 h 3 v 3 h -3 z m 9,0 h 3 v 3 h -3 z m 6,0 h 3 v 3 h -3 z m 3,0 h 3 v 3 h -3 z m 3,0 h 3 v 3 h -3 z m 3,0 h 3 v 3 h -3 z m 6,0 h 3 v 3 h -3 z m 3,0 h 3 v 3 h -3 z m 3,0 h 3 v 3 h -3 z m 3,0 h 3 v 3 h -3 z m 3,0 h 3 v 3 h -3 z m 3,0 h 3 v 3 h -3 z m 12,0 h 3 v 3 h -3 z M 12,45 h 3 v 3 h -3 z m 9,0 h 3 v 3 h -3 z m 3,0 h 3 v 3 h -3 z m 3,0 h 3 v 3 h -3 z m 6,0 h 3 v 3 h -3 z m 9,0 h 3 v 3 h -3 z m 3,0 h 3 v 3 h -3 z m 9,0 h 3 v 3 h -3 z m 15,0 h 3 v 3 h -3 z m 3,0 h 3 v 3 h -3 z m 18,0 h 3 v 3 h -3 z m 3,0 h 3 v 3 h -3 z m 3,0 h 3 v 3 h -3 z m 3,0 h 3 v 3 h -3 z m 3,0 h 3 v 3 h -3 z m 3,0 h 3 v 3 h -3 z m 6,0 h 3 v 3 h -3 z m 6,0 h 3 v 3 h -3 z m 6,0 h 3 v 3 h -3 z m 9,0 h 3 v 3 h -3 z m 3,0 h 3 v 3 h -3 z m 3,0 h 3 v 3 h -3 z m 3,0 h 3 v 3 h -3 z m 6,0 h 3 v 3 h -3 z m 15,0 h 3 v 3 h -3 z m 6,0 h 3 v 3 h -3 z M 15,48 h 3 v 3 h -3 z m 15,0 h 3 v 3 h -3 z m 6,0 h 3 v 3 h -3 z m 6,0 h 3 v 3 h -3 z m 3,0 h 3 v 3 h -3 z m 3,0 h 3 v 3 h -3 z m 18,0 h 3 v 3 h -3 z m 12,0 h 3 v 3 h -3 z m 3,0 h 3 v 3 h -3 z m 3,0 h 3 v 3 h -3 z m 9,0 h 3 v 3 h -3 z m 12,0 h 3 v 3 h -3 z m 3,0 h 3 v 3 h -3 z m 3,0 h 3 v 3 h -3 z m 3,0 h 3 v 3 h -3 z m 6,0 h 3 v 3 h -3 z m 3,0 h 3 v 3 h -3 z m 9,0 h 3 v 3 h -3 z m 9,0 h 3 v 3 h -3 z m 6,0 h 3 v 3 h -3 z m 3,0 h 3 v 3 h -3 z m 3,0 h 3 v 3 h -3 z m 12,0 h 3 v 3 h -3 z m 3,0 h 3 v 3 h -3 z M 12,51 h 3 v 3 h -3 z m 6,0 h 3 v 3 h -3 z m 3,0 h 3 v 3 h -3 z m 15,0 h 3 v 3 h -3 z m 3,0 h 3 v 3 h -3 z m 3,0 h 3 v 3 h -3 z m 3,0 h 3 v 3 h -3 z m 3,0 h 3 v 3 h -3 z m 3,0 h 3 v 3 h -3 z m 6,0 h 3 v 3 h -3 z m 24,0 h 3 v 3 h -3 z m 6,0 h 3 v 3 h -3 z m 6,0 h 3 v 3 h -3 z m 9,0 h 3 v 3 h -3 z m 9,0 h 3 v 3 h -3 z m 3,0 h 3 v 3 h -3 z m 12,0 h 3 v 3 h -3 z m 6,0 h 3 v 3 h -3 z m 6,0 h 3 v 3 h -3 z m 6,0 h 3 v 3 h -3 z m 3,0 h 3 v 3 h -3 z m 3,0 h 3 v 3 h -3 z m 3,0 h 3 v 3 h -3 z m 3,0 h 3 v 3 h -3 z m 3,0 h 3 v 3 h -3 z M 12,54 h 3 v 3 h -3 z m 3,0 h 3 v 3 h -3 z m 6,0 h 3 v 3 h -3 z m 3,0 h 3 v 3 h -3 z m 6,0 h 3 v 3 h -3 z m 9,0 h 3 v 3 h -3 z m 12,0 h 3 v 3 h -3 z m 3,0 h 3 v 3 h -3 z m 6,0 h 3 v 3 h -3 z m 3,0 h 3 v 3 h -3 z m 6,0 h 3 v 3 h -3 z m 3,0 h 3 v 3 h -3 z m 3,0 h 3 v 3 h -3 z m 6,0 h 3 v 3 h -3 z m 6,0 h 3 v 3 h -3 z m 3,0 h 3 v 3 h -3 z m 6,0 h 3 v 3 h -3 z m 12,0 h 3 v 3 h -3 z m 6,0 h 3 v 3 h -3 z m 15,0 h 3 v 3 h -3 z m 21,0 h 3 v 3 h -3 z m 3,0 h 3 v 3 h -3 z m 3,0 h 3 v 3 h -3 z m 3,0 h 3 v 3 h -3 z m 3,0 h 3 v 3 h -3 z m 3,0 h 3 v 3 h -3 z M 12,57 h 3 v 3 h -3 z m 6,0 h 3 v 3 h -3 z m 6,0 h 3 v 3 h -3 z m 9,0 h 3 v 3 h -3 z m 9,0 h 3 v 3 h -3 z m 3,0 h 3 v 3 h -3 z m 3,0 h 3 v 3 h -3 z m 3,0 h 3 v 3 h -3 z m 3,0 h 3 v 3 h -3 z m 3,0 h 3 v 3 h -3 z m 3,0 h 3 v 3 h -3 z m 6,0 h 3 v 3 h -3 z m 6,0 h 3 v 3 h -3 z m 3,0 h 3 v 3 h -3 z m 3,0 h 3 v 3 h -3 z m 6,0 h 3 v 3 h -3 z m 3,0 h 3 v 3 h -3 z m 3,0 h 3 v 3 h -3 z m 9,0 h 3 v 3 h -3 z m 12,0 h 3 v 3 h -3 z m 6,0 h 3 v 3 h -3 z m 3,0 h 3 v 3 h -3 z m 12,0 h 3 v 3 h -3 z m 3,0 h 3 v 3 h -3 z m 15,0 h 3 v 3 h -3 z m 3,0 h 3 v 3 h -3 z m 3,0 h 3 v 3 h -3 z m 3,0 h 3 v 3 h -3 z m 3,0 h 3 v 3 h -3 z m 3,0 h 3 v 3 h -3 z m 3,0 h 3 v 3 h -3 z M 21,60 h 3 v 3 h -3 z m 3,0 h 3 v 3 h -3 z m 3,0 h 3 v 3 h -3 z m 3,0 h 3 v 3 h -3 z m 3,0 h 3 v 3 h -3 z m 18,0 h 3 v 3 h -3 z m 6,0 h 3 v 3 h -3 z m 6,0 h 3 v 3 h -3 z m 12,0 h 3 v 3 h -3 z m 3,0 h 3 v 3 h -3 z m 12,0 h 3 v 3 h -3 z m 9,0 h 3 v 3 h -3 z m 3,0 h 3 v 3 h -3 z m 3,0 h 3 v 3 h -3 z m 6,0 h 3 v 3 h -3 z m 6,0 h 3 v 3 h -3 z m 6,0 h 3 v 3 h -3 z m 3,0 h 3 v 3 h -3 z m 3,0 h 3 v 3 h -3 z m 6,0 h 3 v 3 h -3 z m 3,0 h 3 v 3 h -3 z m 3,0 h 3 v 3 h -3 z m 3,0 h 3 v 3 h -3 z m 6,0 h 3 v 3 h -3 z m 3,0 h 3 v 3 h -3 z m 9,0 h 3 v 3 h -3 z m 3,0 h 3 v 3 h -3 z m 3,0 h 3 v 3 h -3 z M 18,63 h 3 v 3 h -3 z m 6,0 h 3 v 3 h -3 z m 3,0 h 3 v 3 h -3 z m 12,0 h 3 v 3 h -3 z m 3,0 h 3 v 3 h -3 z m 6,0 h 3 v 3 h -3 z m 3,0 h 3 v 3 h -3 z m 3,0 h 3 v 3 h -3 z m 9,0 h 3 v 3 h -3 z m 6,0 h 3 v 3 h -3 z m 9,0 h 3 v 3 h -3 z m 12,0 h 3 v 3 h -3 z m 3,0 h 3 v 3 h -3 z m 3,0 h 3 v 3 h -3 z m 3,0 h 3 v 3 h -3 z m 3,0 h 3 v 3 h -3 z m 3,0 h 3 v 3 h -3 z m 3,0 h 3 v 3 h -3 z m 6,0 h 3 v 3 h -3 z m 3,0 h 3 v 3 h -3 z m 6,0 h 3 v 3 h -3 z m 6,0 h 3 v 3 h -3 z m 6,0 h 3 v 3 h -3 z m 3,0 h 3 v 3 h -3 z m 3,0 h 3 v 3 h -3 z m 6,0 h 3 v 3 h -3 z m 6,0 h 3 v 3 h -3 z m 9,0 h 3 v 3 h -3 z m 3,0 h 3 v 3 h -3 z m 3,0 h 3 v 3 h -3 z M 15,66 h 3 v 3 h -3 z m 6,0 h 3 v 3 h -3 z m 6,0 h 3 v 3 h -3 z m 3,0 h 3 v 3 h -3 z m 3,0 h 3 v 3 h -3 z m 3,0 h 3 v 3 h -3 z m 6,0 h 3 v 3 h -3 z m 6,0 h 3 v 3 h -3 z m 6,0 h 3 v 3 h -3 z m 12,0 h 3 v 3 h -3 z m 9,0 h 3 v 3 h -3 z m 6,0 h 3 v 3 h -3 z m 3,0 h 3 v 3 h -3 z m 6,0 h 3 v 3 h -3 z m 3,0 h 3 v 3 h -3 z m 9,0 h 3 v 3 h -3 z m 3,0 h 3 v 3 h -3 z m 3,0 h 3 v 3 h -3 z m 12,0 h 3 v 3 h -3 z m 3,0 h 3 v 3 h -3 z m 6,0 h 3 v 3 h -3 z m 9,0 h 3 v 3 h -3 z m 3,0 h 3 v 3 h -3 z m 6,0 h 3 v 3 h -3 z m 9,0 h 3 v 3 h -3 z m 6,0 h 3 v 3 h -3 z m 3,0 h 3 v 3 h -3 z M 12,69 h 3 v 3 h -3 z m 3,0 h 3 v 3 h -3 z m 3,0 h 3 v 3 h -3 z m 3,0 h 3 v 3 h -3 z m 3,0 h 3 v 3 h -3 z m 3,0 h 3 v 3 h -3 z m 6,0 h 3 v 3 h -3 z m 9,0 h 3 v 3 h -3 z m 12,0 h 3 v 3 h -3 z m 3,0 h 3 v 3 h -3 z m 3,0 h 3 v 3 h -3 z m 12,0 h 3 v 3 h -3 z m 3,0 h 3 v 3 h -3 z m 6,0 h 3 v 3 h -3 z m 6,0 h 3 v 3 h -3 z m 6,0 h 3 v 3 h -3 z m 9,0 h 3 v 3 h -3 z m 6,0 h 3 v 3 h -3 z m 3,0 h 3 v 3 h -3 z m 3,0 h 3 v 3 h -3 z m 3,0 h 3 v 3 h -3 z m 3,0 h 3 v 3 h -3 z m 3,0 h 3 v 3 h -3 z m 15,0 h 3 v 3 h -3 z m 6,0 h 3 v 3 h -3 z m 3,0 h 3 v 3 h -3 z m 3,0 h 3 v 3 h -3 z m 9,0 h 3 v 3 h -3 z m 6,0 h 3 v 3 h -3 z M 24,72 h 3 v 3 h -3 z m 3,0 h 3 v 3 h -3 z m 3,0 h 3 v 3 h -3 z m 9,0 h 3 v 3 h -3 z m 3,0 h 3 v 3 h -3 z m 12,0 h 3 v 3 h -3 z m 12,0 h 3 v 3 h -3 z m 6,0 h 3 v 3 h -3 z m 6,0 h 3 v 3 h -3 z m 3,0 h 3 v 3 h -3 z m 6,0 h 3 v 3 h -3 z m 9,0 h 3 v 3 h -3 z m 6,0 h 3 v 3 h -3 z m 6,0 h 3 v 3 h -3 z m 9,0 h 3 v 3 h -3 z m 6,0 h 3 v 3 h -3 z m 3,0 h 3 v 3 h -3 z m 3,0 h 3 v 3 h -3 z m 9,0 h 3 v 3 h -3 z m 6,0 h 3 v 3 h -3 z m 15,0 h 3 v 3 h -3 z m 9,0 h 3 v 3 h -3 z M 18,75 h 3 v 3 h -3 z m 3,0 h 3 v 3 h -3 z m 6,0 h 3 v 3 h -3 z m 9,0 h 3 v 3 h -3 z m 3,0 h 3 v 3 h -3 z m 6,0 h 3 v 3 h -3 z m 6,0 h 3 v 3 h -3 z m 12,0 h 3 v 3 h -3 z m 3,0 h 3 v 3 h -3 z m 3,0 h 3 v 3 h -3 z m 3,0 h 3 v 3 h -3 z m 12,0 h 3 v 3 h -3 z m 3,0 h 3 v 3 h -3 z m 3,0 h 3 v 3 h -3 z m 9,0 h 3 v 3 h -3 z m 9,0 h 3 v 3 h -3 z m 9,0 h 3 v 3 h -3 z m 3,0 h 3 v 3 h -3 z m 3,0 h 3 v 3 h -3 z m 3,0 h 3 v 3 h -3 z m 3,0 h 3 v 3 h -3 z m 3,0 h 3 v 3 h -3 z m 3,0 h 3 v 3 h -3 z m 6,0 h 3 v 3 h -3 z m 9,0 h 3 v 3 h -3 z m 3,0 h 3 v 3 h -3 z m 3,0 h 3 v 3 h -3 z M 15,78 h 3 v 3 h -3 z m 3,0 h 3 v 3 h -3 z m 3,0 h 3 v 3 h -3 z m 3,0 h 3 v 3 h -3 z m 6,0 h 3 v 3 h -3 z m 9,0 h 3 v 3 h -3 z m 3,0 h 3 v 3 h -3 z m 9,0 h 3 v 3 h -3 z m 6,0 h 3 v 3 h -3 z m 9,0 h 3 v 3 h -3 z m 3,0 h 3 v 3 h -3 z m 30,0 h 3 v 3 h -3 z m 6,0 h 3 v 3 h -3 z m 9,0 h 3 v 3 h -3 z m 3,0 h 3 v 3 h -3 z m 9,0 h 3 v 3 h -3 z m 3,0 h 3 v 3 h -3 z m 3,0 h 3 v 3 h -3 z m 3,0 h 3 v 3 h -3 z m 6,0 h 3 v 3 h -3 z m 12,0 h 3 v 3 h -3 z m 6,0 h 3 v 3 h -3 z m 3,0 h 3 v 3 h -3 z M 18,81 h 3 v 3 h -3 z m 3,0 h 3 v 3 h -3 z m 3,0 h 3 v 3 h -3 z m 9,0 h 3 v 3 h -3 z m 12,0 h 3 v 3 h -3 z m 9,0 h 3 v 3 h -3 z m 6,0 h 3 v 3 h -3 z m 12,0 h 3 v 3 h -3 z m 3,0 h 3 v 3 h -3 z m 3,0 h 3 v 3 h -3 z m 12,0 h 3 v 3 h -3 z m 3,0 h 3 v 3 h -3 z m 3,0 h 3 v 3 h -3 z m 3,0 h 3 v 3 h -3 z m 3,0 h 3 v 3 h -3 z m 3,0 h 3 v 3 h -3 z m 3,0 h 3 v 3 h -3 z m 6,0 h 3 v 3 h -3 z m 3,0 h 3 v 3 h -3 z m 12,0 h 3 v 3 h -3 z m 3,0 h 3 v 3 h -3 z m 12,0 h 3 v 3 h -3 z m 6,0 h 3 v 3 h -3 z m 3,0 h 3 v 3 h -3 z m 6,0 h 3 v 3 h -3 z m 6,0 h 3 v 3 h -3 z m 3,0 h 3 v 3 h -3 z M 15,84 h 3 v 3 h -3 z m 3,0 h 3 v 3 h -3 z m 3,0 h 3 v 3 h -3 z m 3,0 h 3 v 3 h -3 z m 3,0 h 3 v 3 h -3 z m 3,0 h 3 v 3 h -3 z m 3,0 h 3 v 3 h -3 z m 3,0 h 3 v 3 h -3 z m 21,0 h 3 v 3 h -3 z m 3,0 h 3 v 3 h -3 z m 3,0 h 3 v 3 h -3 z m 3,0 h 3 v 3 h -3 z m 3,0 h 3 v 3 h -3 z m 6,0 h 3 v 3 h -3 z m 6,0 h 3 v 3 h -3 z m 3,0 h 3 v 3 h -3 z m 3,0 h 3 v 3 h -3 z m 3,0 h 3 v 3 h -3 z m 3,0 h 3 v 3 h -3 z m 3,0 h 3 v 3 h -3 z m 24,0 h 3 v 3 h -3 z m 3,0 h 3 v 3 h -3 z m 6,0 h 3 v 3 h -3 z m 6,0 h 3 v 3 h -3 z m 3,0 h 3 v 3 h -3 z m 3,0 h 3 v 3 h -3 z m 3,0 h 3 v 3 h -3 z m 3,0 h 3 v 3 h -3 z m 3,0 h 3 v 3 h -3 z m 3,0 h 3 v 3 h -3 z m 3,0 h 3 v 3 h -3 z m 3,0 h 3 v 3 h -3 z m 6,0 h 3 v 3 h -3 z M 12,87 h 3 v 3 h -3 z m 3,0 h 3 v 3 h -3 z m 3,0 h 3 v 3 h -3 z m 6,0 h 3 v 3 h -3 z m 12,0 h 3 v 3 h -3 z m 3,0 h 3 v 3 h -3 z m 6,0 h 3 v 3 h -3 z m 3,0 h 3 v 3 h -3 z m 6,0 h 3 v 3 h -3 z m 3,0 h 3 v 3 h -3 z m 6,0 h 3 v 3 h -3 z m 3,0 h 3 v 3 h -3 z m 6,0 h 3 v 3 h -3 z m 3,0 h 3 v 3 h -3 z m 6,0 h 3 v 3 h -3 z m 3,0 h 3 v 3 h -3 z m 12,0 h 3 v 3 h -3 z m 6,0 h 3 v 3 h -3 z m 3,0 h 3 v 3 h -3 z m 3,0 h 3 v 3 h -3 z m 15,0 h 3 v 3 h -3 z m 3,0 h 3 v 3 h -3 z m 3,0 h 3 v 3 h -3 z m 6,0 h 3 v 3 h -3 z m 9,0 h 3 v 3 h -3 z m 12,0 h 3 v 3 h -3 z m 3,0 h 3 v 3 h -3 z m 3,0 h 3 v 3 h -3 z m 3,0 h 3 v 3 h -3 z M 12,90 h 3 v 3 h -3 z m 3,0 h 3 v 3 h -3 z m 9,0 h 3 v 3 h -3 z m 6,0 h 3 v 3 h -3 z m 6,0 h 3 v 3 h -3 z m 3,0 h 3 v 3 h -3 z m 9,0 h 3 v 3 h -3 z m 3,0 h 3 v 3 h -3 z m 6,0 h 3 v 3 h -3 z m 3,0 h 3 v 3 h -3 z m 3,0 h 3 v 3 h -3 z m 3,0 h 3 v 3 h -3 z m 3,0 h 3 v 3 h -3 z m 3,0 h 3 v 3 h -3 z m 6,0 h 3 v 3 h -3 z m 6,0 h 3 v 3 h -3 z m 6,0 h 3 v 3 h -3 z m 6,0 h 3 v 3 h -3 z m 12,0 h 3 v 3 h -3 z m 3,0 h 3 v 3 h -3 z m 3,0 h 3 v 3 h -3 z m 12,0 h 3 v 3 h -3 z m 6,0 h 3 v 3 h -3 z m 3,0 h 3 v 3 h -3 z m 6,0 h 3 v 3 h -3 z m 3,0 h 3 v 3 h -3 z m 6,0 h 3 v 3 h -3 z m 6,0 h 3 v 3 h -3 z m 3,0 h 3 v 3 h -3 z m 9,0 h 3 v 3 h -3 z M 12,93 h 3 v 3 h -3 z m 3,0 h 3 v 3 h -3 z m 9,0 h 3 v 3 h -3 z m 12,0 h 3 v 3 h -3 z m 3,0 h 3 v 3 h -3 z m 3,0 h 3 v 3 h -3 z m 6,0 h 3 v 3 h -3 z m 9,0 h 3 v 3 h -3 z m 6,0 h 3 v 3 h -3 z m 21,0 h 3 v 3 h -3 z m 12,0 h 3 v 3 h -3 z m 3,0 h 3 v 3 h -3 z m 12,0 h 3 v 3 h -3 z m 9,0 h 3 v 3 h -3 z m 3,0 h 3 v 3 h -3 z m 3,0 h 3 v 3 h -3 z m 9,0 h 3 v 3 h -3 z m 3,0 h 3 v 3 h -3 z m 6,0 h 3 v 3 h -3 z m 12,0 h 3 v 3 h -3 z m 3,0 h 3 v 3 h -3 z M 12,96 h 3 v 3 h -3 z m 12,0 h 3 v 3 h -3 z m 3,0 h 3 v 3 h -3 z m 3,0 h 3 v 3 h -3 z m 3,0 h 3 v 3 h -3 z m 3,0 h 3 v 3 h -3 z m 3,0 h 3 v 3 h -3 z m 6,0 h 3 v 3 h -3 z m 3,0 h 3 v 3 h -3 z m 6,0 h 3 v 3 h -3 z m 12,0 h 3 v 3 h -3 z m 3,0 h 3 v 3 h -3 z m 3,0 h 3 v 3 h -3 z m 9,0 h 3 v 3 h -3 z m 3,0 h 3 v 3 h -3 z m 3,0 h 3 v 3 h -3 z m 3,0 h 3 v 3 h -3 z m 3,0 h 3 v 3 h -3 z m 3,0 h 3 v 3 h -3 z m 3,0 h 3 v 3 h -3 z m 3,0 h 3 v 3 h -3 z m 3,0 h 3 v 3 h -3 z m 6,0 h 3 v 3 h -3 z m 9,0 h 3 v 3 h -3 z m 18,0 h 3 v 3 h -3 z m 3,0 h 3 v 3 h -3 z m 3,0 h 3 v 3 h -3 z m 3,0 h 3 v 3 h -3 z m 3,0 h 3 v 3 h -3 z m 3,0 h 3 v 3 h -3 z m 3,0 h 3 v 3 h -3 z m 3,0 h 3 v 3 h -3 z M 15,99 h 3 v 3 h -3 z m 9,0 h 3 v 3 h -3 z m 3,0 h 3 v 3 h -3 z m 6,0 h 3 v 3 h -3 z m 3,0 h 3 v 3 h -3 z m 3,0 h 3 v 3 h -3 z m 3,0 h 3 v 3 h -3 z m 9,0 h 3 v 3 h -3 z m 3,0 h 3 v 3 h -3 z m 6,0 h 3 v 3 h -3 z m 3,0 h 3 v 3 h -3 z m 6,0 h 3 v 3 h -3 z m 6,0 h 3 v 3 h -3 z m 3,0 h 3 v 3 h -3 z m 6,0 h 3 v 3 h -3 z m 3,0 h 3 v 3 h -3 z m 9,0 h 3 v 3 h -3 z m 3,0 h 3 v 3 h -3 z m 3,0 h 3 v 3 h -3 z m 3,0 h 3 v 3 h -3 z m 3,0 h 3 v 3 h -3 z m 6,0 h 3 v 3 h -3 z m 6,0 h 3 v 3 h -3 z m 6,0 h 3 v 3 h -3 z m 3,0 h 3 v 3 h -3 z m 3,0 h 3 v 3 h -3 z m 3,0 h 3 v 3 h -3 z m 6,0 h 3 v 3 h -3 z m 6,0 h 3 v 3 h -3 z m 3,0 h 3 v 3 h -3 z m 9,0 h 3 v 3 h -3 z m -138,3 h 3 v 3 h -3 z m 3,0 h 3 v 3 h -3 z m 6,0 h 3 v 3 h -3 z m 9,0 h 3 v 3 h -3 z m 3,0 h 3 v 3 h -3 z m 6,0 h 3 v 3 h -3 z m 12,0 h 3 v 3 h -3 z m 3,0 h 3 v 3 h -3 z m 3,0 h 3 v 3 h -3 z m 6,0 h 3 v 3 h -3 z m 3,0 h 3 v 3 h -3 z m 6,0 h 3 v 3 h -3 z m 3,0 h 3 v 3 h -3 z m 9,0 h 3 v 3 h -3 z m 9,0 h 3 v 3 h -3 z m 3,0 h 3 v 3 h -3 z m 3,0 h 3 v 3 h -3 z m 9,0 h 3 v 3 h -3 z m 12,0 h 3 v 3 h -3 z m 6,0 h 3 v 3 h -3 z m 12,0 h 3 v 3 h -3 z m 6,0 h 3 v 3 h -3 z m 3,0 h 3 v 3 h -3 z m 3,0 h 3 v 3 h -3 z m -144,3 h 3 v 3 h -3 z m 3,0 h 3 v 3 h -3 z m 3,0 h 3 v 3 h -3 z m 3,0 h 3 v 3 h -3 z m 21,0 h 3 v 3 h -3 z m 9,0 h 3 v 3 h -3 z m 9,0 h 3 v 3 h -3 z m 9,0 h 3 v 3 h -3 z m 3,0 h 3 v 3 h -3 z m 9,0 h 3 v 3 h -3 z m 3,0 h 3 v 3 h -3 z m 3,0 h 3 v 3 h -3 z m 3,0 h 3 v 3 h -3 z m 3,0 h 3 v 3 h -3 z m 3,0 h 3 v 3 h -3 z m 6,0 h 3 v 3 h -3 z m 3,0 h 3 v 3 h -3 z m 9,0 h 3 v 3 h -3 z m 6,0 h 3 v 3 h -3 z m 6,0 h 3 v 3 h -3 z m 6,0 h 3 v 3 h -3 z m 12,0 h 3 v 3 h -3 z m 6,0 h 3 v 3 h -3 z m 9,0 h 3 v 3 h -3 z m -150,3 h 3 v 3 h -3 z m 3,0 h 3 v 3 h -3 z m 6,0 h 3 v 3 h -3 z m 9,0 h 3 v 3 h -3 z m 3,0 h 3 v 3 h -3 z m 18,0 h 3 v 3 h -3 z m 9,0 h 3 v 3 h -3 z m 9,0 h 3 v 3 h -3 z m 3,0 h 3 v 3 h -3 z m 6,0 h 3 v 3 h -3 z m 3,0 h 3 v 3 h -3 z m 6,0 h 3 v 3 h -3 z m 12,0 h 3 v 3 h -3 z m 6,0 h 3 v 3 h -3 z m 6,0 h 3 v 3 h -3 z m 3,0 h 3 v 3 h -3 z m 3,0 h 3 v 3 h -3 z m 3,0 h 3 v 3 h -3 z m 3,0 h 3 v 3 h -3 z m 3,0 h 3 v 3 h -3 z m 6,0 h 3 v 3 h -3 z m 3,0 h 3 v 3 h -3 z m 18,0 h 3 v 3 h -3 z m 3,0 h 3 v 3 h -3 z m -144,3 h 3 v 3 h -3 z m 6,0 h 3 v 3 h -3 z m 3,0 h 3 v 3 h -3 z m 15,0 h 3 v 3 h -3 z m 3,0 h 3 v 3 h -3 z m 15,0 h 3 v 3 h -3 z m 3,0 h 3 v 3 h -3 z m 12,0 h 3 v 3 h -3 z m 18,0 h 3 v 3 h -3 z m 9,0 h 3 v 3 h -3 z m 6,0 h 3 v 3 h -3 z m 3,0 h 3 v 3 h -3 z m 6,0 h 3 v 3 h -3 z m 12,0 h 3 v 3 h -3 z m 3,0 h 3 v 3 h -3 z m 12,0 h 3 v 3 h -3 z m 3,0 h 3 v 3 h -3 z m 3,0 h 3 v 3 h -3 z m 3,0 h 3 v 3 h -3 z m 3,0 h 3 v 3 h -3 z m 3,0 h 3 v 3 h -3 z m 3,0 h 3 v 3 h -3 z m -144,3 h 3 v 3 h -3 z m 3,0 h 3 v 3 h -3 z m 3,0 h 3 v 3 h -3 z m 6,0 h 3 v 3 h -3 z m 6,0 h 3 v 3 h -3 z m 6,0 h 3 v 3 h -3 z m 3,0 h 3 v 3 h -3 z m 18,0 h 3 v 3 h -3 z m 3,0 h 3 v 3 h -3 z m 9,0 h 3 v 3 h -3 z m 21,0 h 3 v 3 h -3 z m 18,0 h 3 v 3 h -3 z m 3,0 h 3 v 3 h -3 z m 9,0 h 3 v 3 h -3 z m 6,0 h 3 v 3 h -3 z m 15,0 h 3 v 3 h -3 z m 3,0 h 3 v 3 h -3 z m 9,0 h 3 v 3 h -3 z m 6,0 h 3 v 3 h -3 z m 3,0 h 3 v 3 h -3 z m -141,3 h 3 v 3 h -3 z m 3,0 h 3 v 3 h -3 z m 9,0 h 3 v 3 h -3 z m 3,0 h 3 v 3 h -3 z m 3,0 h 3 v 3 h -3 z m 3,0 h 3 v 3 h -3 z m 3,0 h 3 v 3 h -3 z m 3,0 h 3 v 3 h -3 z m 3,0 h 3 v 3 h -3 z m 3,0 h 3 v 3 h -3 z m 6,0 h 3 v 3 h -3 z m 12,0 h 3 v 3 h -3 z m 3,0 h 3 v 3 h -3 z m 3,0 h 3 v 3 h -3 z m 3,0 h 3 v 3 h -3 z m 3,0 h 3 v 3 h -3 z m 9,0 h 3 v 3 h -3 z m 18,0 h 3 v 3 h -3 z m 15,0 h 3 v 3 h -3 z m 3,0 h 3 v 3 h -3 z m 12,0 h 3 v 3 h -3 z m 3,0 h 3 v 3 h -3 z m 15,0 h 3 v 3 h -3 z m 6,0 h 3 v 3 h -3 z m 3,0 h 3 v 3 h -3 z m -144,3 h 3 v 3 h -3 z m 6,0 h 3 v 3 h -3 z m 3,0 h 3 v 3 h -3 z m 6,0 h 3 v 3 h -3 z m 9,0 h 3 v 3 h -3 z m 3,0 h 3 v 3 h -3 z m 9,0 h 3 v 3 h -3 z m 6,0 h 3 v 3 h -3 z m 3,0 h 3 v 3 h -3 z m 3,0 h 3 v 3 h -3 z m 3,0 h 3 v 3 h -3 z m 6,0 h 3 v 3 h -3 z m 3,0 h 3 v 3 h -3 z m 9,0 h 3 v 3 h -3 z m 3,0 h 3 v 3 h -3 z m 3,0 h 3 v 3 h -3 z m 3,0 h 3 v 3 h -3 z m 9,0 h 3 v 3 h -3 z m 3,0 h 3 v 3 h -3 z m 3,0 h 3 v 3 h -3 z m 9,0 h 3 v 3 h -3 z m 9,0 h 3 v 3 h -3 z m 3,0 h 3 v 3 h -3 z m 3,0 h 3 v 3 h -3 z m 6,0 h 3 v 3 h -3 z m 6,0 h 3 v 3 h -3 z m 3,0 h 3 v 3 h -3 z m 3,0 h 3 v 3 h -3 z m 6,0 h 3 v 3 h -3 z m -153,3 h 3 v 3 h -3 z m 3,0 h 3 v 3 h -3 z m 3,0 h 3 v 3 h -3 z m 9,0 h 3 v 3 h -3 z m 6,0 h 3 v 3 h -3 z m 9,0 h 3 v 3 h -3 z m 3,0 h 3 v 3 h -3 z m 3,0 h 3 v 3 h -3 z m 3,0 h 3 v 3 h -3 z m 3,0 h 3 v 3 h -3 z m 3,0 h 3 v 3 h -3 z m 6,0 h 3 v 3 h -3 z m 3,0 h 3 v 3 h -3 z m 3,0 h 3 v 3 h -3 z m 3,0 h 3 v 3 h -3 z m 3,0 h 3 v 3 h -3 z m 6,0 h 3 v 3 h -3 z m 3,0 h 3 v 3 h -3 z m 3,0 h 3 v 3 h -3 z m 3,0 h 3 v 3 h -3 z m 3,0 h 3 v 3 h -3 z m 3,0 h 3 v 3 h -3 z m 3,0 h 3 v 3 h -3 z m 6,0 h 3 v 3 h -3 z m 3,0 h 3 v 3 h -3 z m 3,0 h 3 v 3 h -3 z m 3,0 h 3 v 3 h -3 z m 3,0 h 3 v 3 h -3 z m 3,0 h 3 v 3 h -3 z m 3,0 h 3 v 3 h -3 z m 9,0 h 3 v 3 h -3 z m 3,0 h 3 v 3 h -3 z m 6,0 h 3 v 3 h -3 z m 6,0 h 3 v 3 h -3 z m 6,0 h 3 v 3 h -3 z m 9,0 h 3 v 3 h -3 z m -150,3 h 3 v 3 h -3 z m 3,0 h 3 v 3 h -3 z m 12,0 h 3 v 3 h -3 z m 3,0 h 3 v 3 h -3 z m 3,0 h 3 v 3 h -3 z m 6,0 h 3 v 3 h -3 z m 3,0 h 3 v 3 h -3 z m 3,0 h 3 v 3 h -3 z m 12,0 h 3 v 3 h -3 z m 9,0 h 3 v 3 h -3 z m 9,0 h 3 v 3 h -3 z m 6,0 h 3 v 3 h -3 z m 6,0 h 3 v 3 h -3 z m 9,0 h 3 v 3 h -3 z m 3,0 h 3 v 3 h -3 z m 6,0 h 3 v 3 h -3 z m 9,0 h 3 v 3 h -3 z m 3,0 h 3 v 3 h -3 z m 3,0 h 3 v 3 h -3 z m 3,0 h 3 v 3 h -3 z m 6,0 h 3 v 3 h -3 z m 6,0 h 3 v 3 h -3 z m 15,0 h 3 v 3 h -3 z m 3,0 h 3 v 3 h -3 z m 12,0 h 3 v 3 h -3 z m -147,3 h 3 v 3 h -3 z m 3,0 h 3 v 3 h -3 z m 15,0 h 3 v 3 h -3 z m 3,0 h 3 v 3 h -3 z m 6,0 h 3 v 3 h -3 z m 6,0 h 3 v 3 h -3 z m 3,0 h 3 v 3 h -3 z m 3,0 h 3 v 3 h -3 z m 3,0 h 3 v 3 h -3 z m 3,0 h 3 v 3 h -3 z m 3,0 h 3 v 3 h -3 z m 6,0 h 3 v 3 h -3 z m 3,0 h 3 v 3 h -3 z m 3,0 h 3 v 3 h -3 z m 3,0 h 3 v 3 h -3 z m 6,0 h 3 v 3 h -3 z m 9,0 h 3 v 3 h -3 z m 6,0 h 3 v 3 h -3 z m 3,0 h 3 v 3 h -3 z m 6,0 h 3 v 3 h -3 z m 27,0 h 3 v 3 h -3 z m 6,0 h 3 v 3 h -3 z m 12,0 h 3 v 3 h -3 z m 9,0 h 3 v 3 h -3 z m 3,0 h 3 v 3 h -3 z m -153,3 h 3 v 3 h -3 z m 9,0 h 3 v 3 h -3 z m 6,0 h 3 v 3 h -3 z m 3,0 h 3 v 3 h -3 z m 3,0 h 3 v 3 h -3 z m 3,0 h 3 v 3 h -3 z m 9,0 h 3 v 3 h -3 z m 6,0 h 3 v 3 h -3 z m 3,0 h 3 v 3 h -3 z m 6,0 h 3 v 3 h -3 z m 9,0 h 3 v 3 h -3 z m 3,0 h 3 v 3 h -3 z m 3,0 h 3 v 3 h -3 z m 12,0 h 3 v 3 h -3 z m 6,0 h 3 v 3 h -3 z m 12,0 h 3 v 3 h -3 z m 3,0 h 3 v 3 h -3 z m 3,0 h 3 v 3 h -3 z m 9,0 h 3 v 3 h -3 z m 3,0 h 3 v 3 h -3 z m 15,0 h 3 v 3 h -3 z m 3,0 h 3 v 3 h -3 z m 9,0 h 3 v 3 h -3 z m 6,0 h 3 v 3 h -3 z m 3,0 h 3 v 3 h -3 z m 3,0 h 3 v 3 h -3 z m 3,0 h 3 v 3 h -3 z m -150,3 h 3 v 3 h -3 z m 9,0 h 3 v 3 h -3 z m 6,0 h 3 v 3 h -3 z m 3,0 h 3 v 3 h -3 z m 6,0 h 3 v 3 h -3 z m 3,0 h 3 v 3 h -3 z m 3,0 h 3 v 3 h -3 z m 3,0 h 3 v 3 h -3 z m 3,0 h 3 v 3 h -3 z m 6,0 h 3 v 3 h -3 z m 6,0 h 3 v 3 h -3 z m 3,0 h 3 v 3 h -3 z m 3,0 h 3 v 3 h -3 z m 6,0 h 3 v 3 h -3 z m 6,0 h 3 v 3 h -3 z m 9,0 h 3 v 3 h -3 z m 18,0 h 3 v 3 h -3 z m 3,0 h 3 v 3 h -3 z m 3,0 h 3 v 3 h -3 z m 6,0 h 3 v 3 h -3 z m 6,0 h 3 v 3 h -3 z m 3,0 h 3 v 3 h -3 z m 12,0 h 3 v 3 h -3 z m 3,0 h 3 v 3 h -3 z m 3,0 h 3 v 3 h -3 z m 3,0 h 3 v 3 h -3 z m 3,0 h 3 v 3 h -3 z m 6,0 h 3 v 3 h -3 z m 6,0 h 3 v 3 h -3 z m -156,3 h 3 v 3 h -3 z m 3,0 h 3 v 3 h -3 z m 6,0 h 3 v 3 h -3 z m 3,0 h 3 v 3 h -3 z m 3,0 h 3 v 3 h -3 z m 3,0 h 3 v 3 h -3 z m 3,0 h 3 v 3 h -3 z m 18,0 h 3 v 3 h -3 z m 9,0 h 3 v 3 h -3 z m 6,0 h 3 v 3 h -3 z m 3,0 h 3 v 3 h -3 z m 9,0 h 3 v 3 h -3 z m 3,0 h 3 v 3 h -3 z m 3,0 h 3 v 3 h -3 z m 9,0 h 3 v 3 h -3 z m 6,0 h 3 v 3 h -3 z m 3,0 h 3 v 3 h -3 z m 9,0 h 3 v 3 h -3 z m 3,0 h 3 v 3 h -3 z m 9,0 h 3 v 3 h -3 z m 6,0 h 3 v 3 h -3 z m 6,0 h 3 v 3 h -3 z m 3,0 h 3 v 3 h -3 z m 3,0 h 3 v 3 h -3 z m 6,0 h 3 v 3 h -3 z m 15,0 h 3 v 3 h -3 z m 6,0 h 3 v 3 h -3 z m -153,3 h 3 v 3 h -3 z m 3,0 h 3 v 3 h -3 z m 18,0 h 3 v 3 h -3 z m 6,0 h 3 v 3 h -3 z m 6,0 h 3 v 3 h -3 z m 9,0 h 3 v 3 h -3 z m 6,0 h 3 v 3 h -3 z m 3,0 h 3 v 3 h -3 z m 12,0 h 3 v 3 h -3 z m 6,0 h 3 v 3 h -3 z m 3,0 h 3 v 3 h -3 z m 3,0 h 3 v 3 h -3 z m 3,0 h 3 v 3 h -3 z m 3,0 h 3 v 3 h -3 z m 3,0 h 3 v 3 h -3 z m 12,0 h 3 v 3 h -3 z m 3,0 h 3 v 3 h -3 z m 3,0 h 3 v 3 h -3 z m 9,0 h 3 v 3 h -3 z m 12,0 h 3 v 3 h -3 z m 3,0 h 3 v 3 h -3 z m 3,0 h 3 v 3 h -3 z m 3,0 h 3 v 3 h -3 z m 9,0 h 3 v 3 h -3 z m 3,0 h 3 v 3 h -3 z m 9,0 h 3 v 3 h -3 z m -147,3 h 3 v 3 h -3 z m 9,0 h 3 v 3 h -3 z m 6,0 h 3 v 3 h -3 z m 15,0 h 3 v 3 h -3 z m 3,0 h 3 v 3 h -3 z m 3,0 h 3 v 3 h -3 z m 3,0 h 3 v 3 h -3 z m 6,0 h 3 v 3 h -3 z m 3,0 h 3 v 3 h -3 z m 3,0 h 3 v 3 h -3 z m 3,0 h 3 v 3 h -3 z m 6,0 h 3 v 3 h -3 z m 3,0 h 3 v 3 h -3 z m 3,0 h 3 v 3 h -3 z m 3,0 h 3 v 3 h -3 z m 3,0 h 3 v 3 h -3 z m 3,0 h 3 v 3 h -3 z m 3,0 h 3 v 3 h -3 z m 18,0 h 3 v 3 h -3 z m 3,0 h 3 v 3 h -3 z m 6,0 h 3 v 3 h -3 z m 3,0 h 3 v 3 h -3 z m 9,0 h 3 v 3 h -3 z m 3,0 h 3 v 3 h -3 z m 3,0 h 3 v 3 h -3 z m 3,0 h 3 v 3 h -3 z m 3,0 h 3 v 3 h -3 z m 3,0 h 3 v 3 h -3 z m 3,0 h 3 v 3 h -3 z m 3,0 h 3 v 3 h -3 z m 6,0 h 3 v 3 h -3 z m -129,3 h 3 v 3 h -3 z m 3,0 h 3 v 3 h -3 z m 6,0 h 3 v 3 h -3 z m 3,0 h 3 v 3 h -3 z m 6,0 h 3 v 3 h -3 z m 6,0 h 3 v 3 h -3 z m 3,0 h 3 v 3 h -3 z m 3,0 h 3 v 3 h -3 z m 3,0 h 3 v 3 h -3 z m 6,0 h 3 v 3 h -3 z m 9,0 h 3 v 3 h -3 z m 12,0 h 3 v 3 h -3 z m 6,0 h 3 v 3 h -3 z m 3,0 h 3 v 3 h -3 z m 3,0 h 3 v 3 h -3 z m 6,0 h 3 v 3 h -3 z m 9,0 h 3 v 3 h -3 z m 6,0 h 3 v 3 h -3 z m 3,0 h 3 v 3 h -3 z m 3,0 h 3 v 3 h -3 z m 6,0 h 3 v 3 h -3 z m 3,0 h 3 v 3 h -3 z m 12,0 h 3 v 3 h -3 z m 3,0 h 3 v 3 h -3 z m 6,0 h 3 v 3 h -3 z m -153,3 h 3 v 3 h -3 z m 3,0 h 3 v 3 h -3 z m 3,0 h 3 v 3 h -3 z m 3,0 h 3 v 3 h -3 z m 3,0 h 3 v 3 h -3 z m 3,0 h 3 v 3 h -3 z m 3,0 h 3 v 3 h -3 z m 6,0 h 3 v 3 h -3 z m 3,0 h 3 v 3 h -3 z m 15,0 h 3 v 3 h -3 z m 15,0 h 3 v 3 h -3 z m 12,0 h 3 v 3 h -3 z m 3,0 h 3 v 3 h -3 z m 6,0 h 3 v 3 h -3 z m 6,0 h 3 v 3 h -3 z m 9,0 h 3 v 3 h -3 z m 15,0 h 3 v 3 h -3 z m 9,0 h 3 v 3 h -3 z m 3,0 h 3 v 3 h -3 z m 3,0 h 3 v 3 h -3 z m 6,0 h 3 v 3 h -3 z m 3,0 h 3 v 3 h -3 z m 6,0 h 3 v 3 h -3 z m 6,0 h 3 v 3 h -3 z m 6,0 h 3 v 3 h -3 z m 3,0 h 3 v 3 h -3 z m 3,0 h 3 v 3 h -3 z m -156,3 h 3 v 3 h -3 z m 18,0 h 3 v 3 h -3 z m 6,0 h 3 v 3 h -3 z m 12,0 h 3 v 3 h -3 z m 9,0 h 3 v 3 h -3 z m 9,0 h 3 v 3 h -3 z m 6,0 h 3 v 3 h -3 z m 3,0 h 3 v 3 h -3 z m 3,0 h 3 v 3 h -3 z m 3,0 h 3 v 3 h -3 z m 3,0 h 3 v 3 h -3 z m 12,0 h 3 v 3 h -3 z m 15,0 h 3 v 3 h -3 z m 6,0 h 3 v 3 h -3 z m 6,0 h 3 v 3 h -3 z m 9,0 h 3 v 3 h -3 z m 3,0 h 3 v 3 h -3 z m 9,0 h 3 v 3 h -3 z m 12,0 h 3 v 3 h -3 z m -144,3 h 3 v 3 h -3 z m 6,0 h 3 v 3 h -3 z m 3,0 h 3 v 3 h -3 z m 3,0 h 3 v 3 h -3 z m 6,0 h 3 v 3 h -3 z m 9,0 h 3 v 3 h -3 z m 3,0 h 3 v 3 h -3 z m 3,0 h 3 v 3 h -3 z m 3,0 h 3 v 3 h -3 z m 15,0 h 3 v 3 h -3 z m 3,0 h 3 v 3 h -3 z m 6,0 h 3 v 3 h -3 z m 3,0 h 3 v 3 h -3 z m 6,0 h 3 v 3 h -3 z m 3,0 h 3 v 3 h -3 z m 3,0 h 3 v 3 h -3 z m 3,0 h 3 v 3 h -3 z m 3,0 h 3 v 3 h -3 z m 3,0 h 3 v 3 h -3 z m 3,0 h 3 v 3 h -3 z m 3,0 h 3 v 3 h -3 z m 9,0 h 3 v 3 h -3 z m 3,0 h 3 v 3 h -3 z m 6,0 h 3 v 3 h -3 z m 3,0 h 3 v 3 h -3 z m 9,0 h 3 v 3 h -3 z m 3,0 h 3 v 3 h -3 z m 6,0 h 3 v 3 h -3 z m 3,0 h 3 v 3 h -3 z m 3,0 h 3 v 3 h -3 z m 3,0 h 3 v 3 h -3 z m 3,0 h 3 v 3 h -3 z m 3,0 h 3 v 3 h -3 z m 3,0 h 3 v 3 h -3 z m 3,0 h 3 v 3 h -3 z m 6,0 h 3 v 3 h -3 z m -156,3 h 3 v 3 h -3 z m 6,0 h 3 v 3 h -3 z m 3,0 h 3 v 3 h -3 z m 3,0 h 3 v 3 h -3 z m 6,0 h 3 v 3 h -3 z m 6,0 h 3 v 3 h -3 z m 12,0 h 3 v 3 h -3 z m 9,0 h 3 v 3 h -3 z m 6,0 h 3 v 3 h -3 z m 3,0 h 3 v 3 h -3 z m 3,0 h 3 v 3 h -3 z m 3,0 h 3 v 3 h -3 z m 3,0 h 3 v 3 h -3 z m 6,0 h 3 v 3 h -3 z m 3,0 h 3 v 3 h -3 z m 6,0 h 3 v 3 h -3 z m 6,0 h 3 v 3 h -3 z m 3,0 h 3 v 3 h -3 z m 6,0 h 3 v 3 h -3 z m 3,0 h 3 v 3 h -3 z m 3,0 h 3 v 3 h -3 z m 3,0 h 3 v 3 h -3 z m 12,0 h 3 v 3 h -3 z m 6,0 h 3 v 3 h -3 z m 3,0 h 3 v 3 h -3 z m 9,0 h 3 v 3 h -3 z m 9,0 h 3 v 3 h -3 z m 6,0 h 3 v 3 h -3 z m 6,0 h 3 v 3 h -3 z m -153,3 h 3 v 3 h -3 z m 6,0 h 3 v 3 h -3 z m 3,0 h 3 v 3 h -3 z m 3,0 h 3 v 3 h -3 z m 6,0 h 3 v 3 h -3 z m 6,0 h 3 v 3 h -3 z m 9,0 h 3 v 3 h -3 z m 6,0 h 3 v 3 h -3 z m 6,0 h 3 v 3 h -3 z m 3,0 h 3 v 3 h -3 z m 6,0 h 3 v 3 h -3 z m 6,0 h 3 v 3 h -3 z m 9,0 h 3 v 3 h -3 z m 3,0 h 3 v 3 h -3 z m 9,0 h 3 v 3 h -3 z m 6,0 h 3 v 3 h -3 z m 6,0 h 3 v 3 h -3 z m 9,0 h 3 v 3 h -3 z m 15,0 h 3 v 3 h -3 z m 9,0 h 3 v 3 h -3 z m 6,0 h 3 v 3 h -3 z m 3,0 h 3 v 3 h -3 z m 3,0 h 3 v 3 h -3 z m 3,0 h 3 v 3 h -3 z m 3,0 h 3 v 3 h -3 z m 3,0 h 3 v 3 h -3 z m 3,0 h 3 v 3 h -3 z m 6,0 h 3 v 3 h -3 z m -156,3 h 3 v 3 h -3 z m 18,0 h 3 v 3 h -3 z m 12,0 h 3 v 3 h -3 z m 3,0 h 3 v 3 h -3 z m 6,0 h 3 v 3 h -3 z m 6,0 h 3 v 3 h -3 z m 3,0 h 3 v 3 h -3 z m 3,0 h 3 v 3 h -3 z m 3,0 h 3 v 3 h -3 z m 3,0 h 3 v 3 h -3 z m 3,0 h 3 v 3 h -3 z m 3,0 h 3 v 3 h -3 z m 3,0 h 3 v 3 h -3 z m 3,0 h 3 v 3 h -3 z m 3,0 h 3 v 3 h -3 z m 9,0 h 3 v 3 h -3 z m 6,0 h 3 v 3 h -3 z m 15,0 h 3 v 3 h -3 z m 3,0 h 3 v 3 h -3 z m 3,0 h 3 v 3 h -3 z m 9,0 h 3 v 3 h -3 z m 6,0 h 3 v 3 h -3 z m 9,0 h 3 v 3 h -3 z m 3,0 h 3 v 3 h -3 z m 12,0 h 3 v 3 h -3 z m 3,0 h 3 v 3 h -3 z m 3,0 h 3 v 3 h -3 z m -153,3 h 3 v 3 h -3 z m 3,0 h 3 v 3 h -3 z m 3,0 h 3 v 3 h -3 z m 3,0 h 3 v 3 h -3 z m 3,0 h 3 v 3 h -3 z m 3,0 h 3 v 3 h -3 z m 3,0 h 3 v 3 h -3 z m 6,0 h 3 v 3 h -3 z m 3,0 h 3 v 3 h -3 z m 3,0 h 3 v 3 h -3 z m 3,0 h 3 v 3 h -3 z m 3,0 h 3 v 3 h -3 z m 6,0 h 3 v 3 h -3 z m 3,0 h 3 v 3 h -3 z m 12,0 h 3 v 3 h -3 z m 3,0 h 3 v 3 h -3 z m 9,0 h 3 v 3 h -3 z m 6,0 h 3 v 3 h -3 z m 3,0 h 3 v 3 h -3 z m 3,0 h 3 v 3 h -3 z m 3,0 h 3 v 3 h -3 z m 3,0 h 3 v 3 h -3 z m 3,0 h 3 v 3 h -3 z m 3,0 h 3 v 3 h -3 z m 9,0 h 3 v 3 h -3 z m 3,0 h 3 v 3 h -3 z m 6,0 h 3 v 3 h -3 z m 3,0 h 3 v 3 h -3 z m 3,0 h 3 v 3 h -3 z m 3,0 h 3 v 3 h -3 z m 3,0 h 3 v 3 h -3 z m 3,0 h 3 v 3 h -3 z m 3,0 h 3 v 3 h -3 z m 6,0 h 3 v 3 h -3 z m 9,0 h 3 v 3 h -3 z m 6,0 h 3 v 3 h -3 z m 3,0 h 3 v 3 h -3 z"
         id="path17" />
    </g>
  </g>
</svg>
